<mxfile host="65bd71144e">
    <diagram id="MEqGY6f5whtx9ZCKlx4u" name="Page-1">
        <mxGraphModel dx="1234" dy="898" grid="1" gridSize="10" guides="1" tooltips="1" connect="1" arrows="1" fold="1" page="1" pageScale="1" pageWidth="1169" pageHeight="827" math="0" shadow="0">
            <root>
                <mxCell id="0"/>
                <mxCell id="1" parent="0"/>
                <mxCell id="3" value="" style="shape=image;verticalLabelPosition=bottom;labelBackgroundColor=default;verticalAlign=top;aspect=fixed;imageAspect=0;image=data:image/png,iVBORw0KGgoAAAANSUhEUgAAAigAAACNCAIAAAASIRamAAAAAXNSR0IArs4c6QAAAERlWElmTU0AKgAAAAgAAYdpAAQAAAABAAAAGgAAAAAAA6ABAAMAAAABAAEAAKACAAQAAAABAAACKKADAAQAAAABAAAAjQAAAADH9R3JAABAAElEQVR4AezdB7hlRZE4cHJGQAQRE6CighKMCAi6hhVFxSyLomtAXfXvGlaUYEDMq2tawAwGXBVBjIsBWBUxIQImFCWYSYoiIij+fzMFRdN97rn33ffmzZuZc7757vTp06G6urpSd9db+R//+MdKwzNgYMDAgIEBAwMG5gsDq8xXR0M/AwYGDAwYGDAwYGARBgbBM9DBgIEBAwMGBgzMKwYGwTOv6B46GzAwYGDAwICB1VoUfP3rX//73//e5g85AwYGDAwYGDAwYKAfA6ussso973nP1VbrEC5ZceXqcMFb3/rWRz7ykauvvnqWGBIDBgYMDBgYMDBgYEIMkCkf//jH99tvv7XWWmtUlRsInm984xubbbbZjW9841Glh/wBAwMGBgwMGBgw0I+Bv/3tb6effvr97ne/UcVusMdzzTXX9NtHo1oZ8gcMDBgYMDBgYMBAYIAcqXxpFWb63HBV0eF1wMDSxcB55513zCePOfPMs666+q+un625xprbbXfnR+/16C222GLpAjb0PmBgwMCMMDAInhmhayi81DBw6OsP/dm5P7/nHjvvu9dTEohzzvjJK153yG233Oqg/Q/KzCExYGDAwALHwA1cbQsc1gG8FRYDT3nGU9fadJ19XvKk225/uxIJt91+6ye85Ek+KVDmD+kBAwMGFjIGBsGzkGdngG0RBvY/6CV3vvf2O9z3rqPQ4dN2u+/w4gP3H1VgyB8wMGBgQWFgEDwLajoGYGoMfP3Ur195zV/vvOv28eFnPzzn5U87cN9d937U9g9716GHZ+k77bzdVStdfcqpX8+cKvHXv/71//7v/37yk59k/vnnn//HP/4xX6dL2EH9wQ9+8PnPf/73v//9dC301/r1r38dQP70pz91Uqi/8PB1wMCygoFB8CwrM7WCwnn0R4/eda/dYvBXXH7Fy556wPe/fdZ2O+2w20Pu85tf/LpEyi577Xb0/3y4zMn01772tR122OGDH/zgYx7zmPve975Ob/r0mte85pvf/GaWmSJx5ZVX7rvvvjvvvPNxxx13//vf//nPf/7kjbz+9a8vpeCoiq997WsB7+vDHvaw2YvJUb0M+QMG5hkDw+GCeUb40N3MMHDRJRdvtOm1F8tO/vSJV15x5WP2e9zjn72PVv7y5yvKtjbaZKOLL72kzMn02972tje84Q0PfehDGSj77LPPySef/E//9E++XnHFFV/84he33XbbzTffPAozLH784x/L2WqrreSQDTe60Y3OOuusBzzgAV4vvvji00477e53v3vcdXv/+9//s5/97Je//OX666/PorrHPe7x7W9/21clv/Od7/i9293u5tdDwmlQ5m677bbuuuuyYz772c9qRObPf/7zsosLLrjg7LPPvs997tNziVuB3/72ty6Hu6BH+HnVAgDucIc7RHfD74CBBY6BweJZ4BO0QoP3u9/9jjhJFPzq3F9K3/P+94qctdddJz9FgohSpcr0ytw57LDDOMQuu+yyo48+OqSO/Be+8IWf+9zn9thjj+OPP97rMccc84QnPOGHP/zhIx7xCCJEztvf/vZdd9313e9+t7Tfxz/+8Z/4xCcIGNJCzgknnLDXXnuROtJrrrkmubLjjjsypzT45je/+eCDD/bVJ49oIHvvvfeJJ564/fbbk20Ez0UXXfTd736X96zs4tWvfjUAgHHHO95xlO/uaU972itf+UpyVC9XX3218T548fOLX/wi+hp+BwwsfAwMFs/Cn6MVF0KMddXVVs3x/+GSP0ivf6NFjL7zWW21Va+66qr203Of+1yC4S1veQvJwebgc9twww0Ve/KTn3zQQQd99KMfJRIe/vCH3/KWt/zABz7g7hu5ctJJJ4XtgtG/5CUvIU7IElJn4403vslNbiIiyP7773/hhReSNNld2CgubLNpiDfW1YMe9CBi5na3u93aa6/N6tpmm22Ad8YZZzz60Y9mVD3lKU+JmCLRhU9MKGJvjTXW4GH7zGc+88QnPjEbjwTAtE9Yavyxj30sQwrMl19++Y9+9CNGT1V4eB0wsGAxMFg8C3ZqBsBWwuUvu/T6/f8NNtoAUv70xz+NQg3JRCpUX0W8xalf8IIXMFBcQd1ggw2OPPLIKBOihZzgsJJzzjnnsFHsvjBHspHttttOmj+NmeLTi1/84l/96lc3u9nNZJIorJYs+c53vpMAY/cQKjJXXnnlm9/85gRPFLjFLW4hwTyKvrKWRHTBrcfjR+rI0T6PX1km0uwwRhsYiL0tt9wyRB0P2yB1WlwNOQsZA4PgWcizs6LDxlD4x98WHQSI55a3uZXEN790arxWezwyr7n6GlXia/6uuuqqH/rQh4499lhWy0YbbURaECHxVRjdLCbBpuFPO+KII/785z+X+dK3utWtxEfgCjvqqKN22WUXElGmDX+WTWzn2Ox54xvfyAC6173udcopp7DV/vCHP5x66qmOHkRT5FDVZhUDnvwA2CWXXML/9uUvf9k2T1Xe673vfW+C872LH1tEm2yyiUwDbEsOOQMGFjIGBlfbQp6dAbaVdt9t99NPOm3HxZd47v/IB3zm6E99/F0f/eW5v7zRRjf6zQW/fvk7X5U4Ov3k0+6z+33ytUwceOCBL33pSw855BBcm82Bb8fXEAZ+QwLxvD3vec9jPdz61rf+8Ic//IxnPKNsRHXuOI44XrtPfepTPj3qUY+ys8Ihxkxx7oAzjWDz2MjZaaed7P8/9alPDZ+ewtGXjiLByvnXf/3X2EmKXrT8spe9LPafmD72lsreIy3f/pNjBewefjxGz7C102JpyFn4GLhBdGp/iYdmN5jtC3/aVigI9973X554wJPXWGtNo/7rX6485t0f+9r/fnW11Vfb5YG7xvE2+Vdd+dcPvubIo4/6cLD1Tvz85je/Qdsca51fI/PSSy9lM3lwdlKqKskW4WezRspebLfIFNad5MjyzB3plDqZXybszay33npljrTDaYweAqbKL1+dq/7LX/5y05vetMwc0gMGFhQGvvWtb7ljMAqkQfCMwsyQv1AwcMo3vv6OI97x5IOfNsqnxId25CHvec4zn73zTtf6tRYK6AMcAwZWVAz0C57rdbQVFT/DuBc6BnbZaWdbJoe/4vDd9rrP7e96xwrcs0/78Vc+edKznv7MQepUmBleBwwsWAwMgmfBTs0A2PUYuM+9d7/L9ju+/Yh3vOeTR2x+m5vfeDNXSle+9LeX/Ppnv7rztnd6z2Hvjss011cYUgMGBgwsYAwMgmcBT84AWoEB2zMHvvgAGW66xLG0zXfb3M2YosiQHDAwYGDZwMAgeJaNeRqgTAwQNoO8SWwMiQEDyyIGbnCPYVkcwADzgIEBAwMGBgwsWxioLR5HTkWPX7bGMEA7YGDAwICBAQMLBwMRjKMHnlrwiNVx+9vfvqfC8GnAwICBAQMDBgYM9GOgM1xvVhlcbYmKITFgYMDAgIEBA/OBgUHwzAeWhz4GDAwYGDAwYCAxMAieRMWQGDAwYGDAwICB+cBAvcfjcMHwF3bnA/FDHwMGBgwMGFhRMVALHngo/xjJioqWYdwDBgYMDBgYMDAlBuJvw/dUrgWPU21DdOoefA2fBgwMGBgwMGBgLAaGU21jUTQUGDAwYGDAwICB+cPAcLhg/nA99DRgYMDAgIEBAzAwW8Fz/vnnn3zyyfmngv0Nq/y7wlPj1x+5+uY3v6lZfxRr6kZGVQRenJ746U9/6u96jSqW+cqceeaZ+Tp14uyzzxbd0vPjH//YAKdup63ob445EtLmzzTHX2IGnlrA84ecs3r8PeZ8nTDx+9//fvFwF/3MniTKTlHFz3/+8zJnKaZNa9n7khu1Xn7yk59MQrElPJ1pfxo193H9FbvTTz/dH0KdomWDzXaiI38QLyc9/hReJwBTZM5y0i3hKQY4BZxDlQkxMCvB8/jHP94f933Pe97jDyZ+7nOf06Xfd73rXRP23Vnsggsu8Nfm/RHiD33oQzvssIO/QNxZrM0kSF73ute1+VXOa1/72q997WsyH/awh01yfu+DH/zgGWecUTUyxas/afzCF77Q3zZ+/vOff9vb3vaLX/ziFI10Vvnyl78MVz69/vWvx5s6y0yS6W9u3ute91IS73jsYx+bVd70pjd97GMfy9cJE8cffzwMG6/nfve731577XXVVVdNWLe/GCn74he/WJkJZ7y/tfbrjJo1rQR2NrLkRq0Li+KKK66QeMITnpA9TpF4+9vfHsvKn1u1xJDNQQcd5K99h37w6U9/Ov6w99iWP/nJT37gAx8oix188MH+nrcZP+CAA7bddltrrfw6m3RO+uTgld394Ac/mCVfKlsb0rPHwPSC57TTTjv33HO/9KUv4XrCu73xjW8MaOhQ7JXvfe97CdyFF1742c9+FvsOpcOmk4qULOaRMldeeSUuLCfKv+QlL9l5553POuss8uwzn/nMy1/+8j/96U/x6TuLn0gjRMaWjr773e9Gzle/+lVijy6sQX1pkG3hE+mi9x79C8D+5ne2U4LnjxO/4x3vePSjH62db3zjGwE/5n7xxRfL0aYe6Y8BgN9qLDHGU089NQog/WOOOebzn//8v//7v7/73e+OzKoKmA3thBNO8JvNVkMAMA3uK1/5ir+8qcy9731vcgLXMEwTEUBWVcAMTnjWLLkSLVuNNFb2TeZkj52Jql9lelDn64Mf/GDj9UAdVJjTaJaVAE4D98pWDluQgRvDkWkIQDW/Ud7vL37xC3gLS9GffH7FK14hM2dcuqqSk/jLX/5S7wp4pAmVSJe/1bjKZhUrqS5qnXLKKUkMkQNyJMQC8Dpq1GjGtOL1ynSOWn7VV0VgSHGdddYxWZgvMyW6LquUlG9phJSyfJRRGD6j96jol/gB7f/8z/8A7MADD7TiVIF5izrWZkVFqmhB7yXNy6QspnJGuzLjZBJlhSIY1FjRCVo1F9BY+hKqGawmJSa9Aq+q0kPkj3zkI9/5zncaTo59SCxdDIwXPEeddcITP/36l33lqEv+cq0ACIi33HJL1PPWt74V/7rzne980kknRf5b3vIWXHX//fdHynJIAoKElKJVWTlysJhdd90VgVoSlgedEfuWg2/6Q5N+H/WoR8Wfr7/NbW7z/e9/f91117Ww99hjjze/+c1UKrqzRqwNzR511FHaeelLXyoHX8NGdYfpWE6e4Fb4sh7pXxiKYtWDWQDgIx/5SGhqvpbgWbF3vetd1157bfmgCsZHYQS2vtgHOqV+ht5XjUWVvffe27iwpLJTjZDEN7/5zWW2VWiLD3rQg8gqw4QKZTDcaghMEGJePgDwGlzjve99r8UMJOLTamyrgBkk5kUZA7GqFXvgAx+IA8IYOEsIR6WrfvtRVzZiRojwzTbbTObTnva0V77ylW94wxtMqOkmaO9xj3sceuihxx57LEsXYLgYnCMJeDDjqkDgPvvsY2gKYFWobr/99pOfM95WyUmEbeM977zzlEeB6FCieqpxZbMt1cnxZ+Q/8YlP/Od//qeZinZkPu95z2MZV3+Mrhw1zHMPqGiwEN6Ouu2rJTDqBTT+6Ec/0i9stFVKyrcww3D5+Mc/fuSRR6ryqle9ilAJmOPXsvWV+IHSf/u3fzMi7fOyegiYlooQJLK0KNBSyh4i55//+Z9Ls0/jXrW5xRZbWMgtncDDPe95T+DpkWapfDuD1aTEpJfgtVV6iHzNNde8+93vXg2/RMWQnmcM1Mepq+4P/+6nTv3VGXe72Qbn//GCfT/9us8+9tVZwEltzIK5Y74tb0sx+JcJpjohC+T46le/euWVV7Ymb3nLW26yySYsGMq+FsQuRdYSGNCzn/1sixlvJZbC1cP8z17WWmstafod8XP00UdjTPhR6K0PeMADDjvsMBQpwaj/l3/5FzqdpvzG+nQu3GrHlO92t7vtueeeQNVLthwJDA4wPANY8I477hgyLMEDJOFXVYlXjB7f1OC+++5rwcskBcuxPOQhD1l99dXpWbvttltU2WmnncgwDMVrSKO2ik/8SPis6niHX2WqIbAmt9pqq2c+85n0OPIjGjdGwvUpT3kKjLVVlMHxWZMStGb4pDze6U53whrkpLoq3fNU/fajTjvAUAZtmI5HPOIRZC2eq2uZ5hEbJXchhJ+W5MahDAfTpx/w3/6///f/SCODwtNpNje5yU20oAoOkjt/OeP//d//XVXRe04iZCI8igW+87a3va0dYDWubLalOkSC7IlDg8qmTLpXzH3VVVftHDUJoQpuu/HGGxsIXo9Kq1Hj1BWFm6CKwAJyctQsG28L3hprrJGUDyQEH9IuPJNWZTV2gpxRYhUrQC1QwBKgjpid293udpS8ivAs5P/6r/+iFtD5wh41g4ZGIOWa5Um2mmLSFdZjJ51ww3LxKUb4UQhYUdUMVpMSkG+66aYJXuek9xD51ltvTWuBvQoJw+tSwcAYi+eEc0+7++YbrrLyyltusOEGa6525oXXOsTAahbXW289UocYIBJe9KIXIXr5u+yyi1/czbKRYNZgkSgbT/Eaz13ucpdIsJMsSF85x9GuVa1NNHddwZWe+9znYvGULFxVJjGGf4Xg4ZWWY7lGR1lF4g53uAOpY/2QHBFsm6leApCFwwsEAGo4bS6YWoJHfLY3oXAf1bfffvvQ3DHH2GGuxhJdYO5lX+eccw4nho7Cyd5ZhVBRhZwGW+cQMAsw2DgBdjC77EKis4p8jDiKPfGJTwxHOQ5bVsw0HpT6rEwaq9tdElW//ahT/klPepLx2nBmfxx33HF8TRxudpKAzSBmMRPMitnxCgMXL6bOs/bueMc7yjezfCPcTWxKhgIqYiQhJ5+qp62iQE7iYx7zGDRmJ0z1zjtq1biy8ZbqwI8jK0BeGkKUZL9aC7mD1Y6aboSG8VkDh41AZjXqtq+WwBKwSLRV5AflS9DG+LL45RBnLMmquldug913393ipRAQz0yiLNNSUeSYNWXolEwWCYaXZViuLMLGpBsynZLWpUwnnRi+T9Do1yprZ3DUpCgfT1tFfg+R4wDh3b2ugeH/pYmBMYJnvdXX+fNi+QHGy6++ar01FhFKPHifhYRDEQbYK6kTgsfrdUUW/Y/DYnCIG1sp8yONF/hKNaaqbLTRRjJptUwfXjJpnmKcSEWWkFVEwGBDCI7C5WvVkRyqpV9PsGMFHvrQh4ZtceKJJ9KV4mv5e9/73peJBgDOK+UrxoRYc/PJJ4OlowFAC04osDbCl035ktOOpewo05gsdQ8nGlUl5K5dkIc//OGdQ8DCOCjwFEI6Dkpk4xTnzipZQILSx61PzwWGV7I2PFFZJmaKpx6vYczZTMLOfK367UddtiZBj2ZaYdAMxA022IAe7SHRCVdfTTHtHlMgG/AjrDAGBQ+0VFYCRVtfwHjGM55RHXOIGW+rlL3TDDiOWOSPe9zj5MN85euvxqVMNNtSHW6LnNAhTo35Ri+kmgFilGWn0jnqW93qVobP+kdmZIAR+VqNuu2rJbCyfRC2VRRIRQRPN9GkNbEdct32XjVwli7HOJJmR2LZYcRoROMtFclhf3/rW99SgFnDwSvxrGc9ixeRJV1uScpXmI+B+JHupJPweRKK6IEwa2ewnRRNxTPJpFdEriKWEmR8XTPD/0sTA2MEz3Pu+tAv/Pw3Z1142VfOv/A2G95iqw0Xuenj4TgykexuKxBPx7jDiY/mFIhfCdyNFwLJ0oPQGdv82vqL/2Nf49pIkyeE/0EeMwLj0ziND3sNLz/B5lUmu4cCu+GGGypZdUTzsiFkGWTXyjCYNEhQaYdOt7jPG/yAnAmiADYBjFVWuQFC9MgdHxVouMZisIw5XXARcLYQNrxznC3KtGO5QU/XASyTDIMHcquzyhFHHAESjCyabYeAR1Dn4YGWzduuwRiyfGgk/tsqJSTcnowqFUPSMx8D84k3ife97318XGxQHT396U+PFVv124+6hCq6Jma4hswsjxn2rUHse8vF6jPGZ7zwD5nICZL51pTBjF7wgheoburNHUccs4leIic4ac54WyU6jV/DUZ280Ysczl4GX1mgGlc221KdScfuUQXkB2za0T5PLz9VeCwTjT7FqCUOOeQQaoRBcX+F/VGNurOvisASZpPC29ZWKbtWGK6AFOLW63/8x3/EwLMYmWQ7h7BH1bZbuHYVs8R4sJkpLRUZ8mte8xqjYLcxuLXjUZ7WqPEAL1cQIkeKJHQnnSAGLmhswTkRVdoZrCZF4zHpCV5bJQCI34rIZaLzsKTLYkN6aWFgZVpt9k2bo51VWv8frvzzt3599k3X23D7TRe5gKoH+6DsqFXll6/WGLWatKDYckMHAZUF2NpsC2pXZtJ/aamcEig7M5k70iF1MrNMYOW0IV2UmQZI89JU228Wo9fTEKuB+6o1DJpKG+4RA+EdynZ8ZQ8Ze7iMorV2LNnLqERZBbOwhi0b7uxcw+0QCEuYD0lfNmupM4PktFXKYs7pkSvtjldZxujgrZqXtt9RqCubqtL0bpjUsnyaL1OAQSwnBGEURlQmOlwxcnzVEbshvuZvOeNVlSwjgYNrIZxjTHCiJQR2lqnGVTbbUh1b30Za2hbZSH9Cm/g1akHSo0Zd9dVJYHrRlNkP5FRVShj44uzTxGZqmV+lOT8tT/SW+VafRYT8OqnI9LUrJeuOSpR0wj/PNHc63JLPKVaxmsFqUrLlBK+tkmUkSiKHJa+stJnOWtngkJ4RBhjHodF21hpzuECdDdda94FbXbsl0zaB5/ZLHVXQVpAXW6FtQU7bgoUdDp+yfI/IiWIpEspa1jk+Xua06WCCbb61x1XtGHScvYlRZDFf26MH7Viy/KhEW6WSKO0Qwl3TNhhSR35bJQvTNPVYcd78mgmjawFr+x2FumynTWBbFecy3Z6yZEj6zIH5Vur4Ws54VSXrMkn5LW0iRg4F345Rfo1ENa6y2ZbqbD5V1Sd51SaBV5ZsR1311UlgWtCUJ5qqqmT7vKm2W5wNy5xRCc6u6lPORScVVXNX1R312tJJC3k1g9WkZMsJnpyqSpapiJxrlwwepE7iZ6knxls8Sx3EpQ4AxRMLmB8wKOaUzSW6Qmh/7Zqfn9G1vdB8OQwrid4Wm00OjR6vxENn08jc1p2HUSMkRFt6EeZ2CLNpjbmmeuknmE1rnXUrIp/PJdwJzwqYOVuLZwVEWTXkeZM6+l2iLDjGtXCkDniI2CU95Fajr+Z3/l/nYdRLGquzQdoSFTkBWEXk87mEZ4OZFafuPCnySwihNo0c7mobp+DYoC7zHcPNQzs82nwvZXQZhSmhZfkp0k5tZRdTVO+s4tJPHPCrvs4SYPtn8OZxtirPAVdd9L/OEoC28WpS+PHLCWrLj82Btxij/XN7FWPLVwVmD4AGwRDXtqrGq1f73gFq/JqUqkD7Gif42/zMKQle5qiVkuUjYRYcB6gyR73askqwY6tpVMn+fHXt7vSXGb4uZxhYtgWP3RenjNyiqGYFM3WIqMx0isaBHDlOqTqs5YSug0mOORFRMhW2MsvyU6QdXXU6bjo+Pqo7++E4YPt1lgA7Ku1QkINMbl85MzZhbK4SjFkCUDYl3U4Klu3wdFVsRq+2dpzxM0btmPG4+zV5C7MHQF98Sg5xjO3U0WET7QSwSZGwGzG2ShUjri3vHq5Dz5k/aqVkASfcpAkAdyQysz8BzsDwLCOz2fOPmCbwMEttox/g4evCwcBEgufyqzt4X+cYaP2uMTvE6eCNAjRNUiGjijlDHPydOubIjQJyqIQO3jgplA26suM0Z7SQmW1C4+9///udBMVG86tTsy6oO0KTOXRzFxjz4qEDTs4LOPzqmoidSZ+ipDs6wEjxo3dHj/73f/83NFbc36Ay/puunQB0ey57cQDMSJ01cGEoMvvHzgWvPGVc+dLYKsfuuiIxFjcWaYVugJf3OiuAQa4pHDyGUAHsFVryThIIHWuGN5PlPKs7LnIS5xZ/BKMDgJNFcW+JLgw/ebhc+X4AFGhhLuOVKcBAZHtJjJoU0sKgQjlQrBqjWTaiANLXdoxkjzHGNUnnmJWpxlhhqR1jPwAaJJ+gxWxKx8MWyUh0jq1zK5mU6z5e+z+a1FdmokYHncUBEmhAAszVSJVsO5IJM+jQDd9sSgLhVWZW50opB8tw0S/lzBGAiIOnHafXkEeaMqbejKOiuJ0TPU4SmU3JEnhDyxvi5i72e5SxcnUHdU5meqL94Xd5xcAYwfOnq/7ymGMP2euYg+539Is/cNaiK2Plg2NyC6B+hCufkU7lx68zLFsVcKmNH+VyhkA7mAu92yLXlBN4ji9nLCxL1LLRvt+ya2mbV9z3VFqHcUNK4Zhug7oaqdkobA3Tzd06jOheMim/rilgFvacVaQ5RkkXzr/whS+4R0IYyLGiXM4gWlhUhBYel/Hf2thTyouD4rKIoABOE0WD/WO3el1bcXLapULHmg28HbtF7g6E1vARYLgfTi3NeMAlwFYv601gmI9+9KOhupYAk+5lQLwAL351ir+4buKVxh0M1GlXVeRkrDkSwszK1CnuEHX7AWhhruKVaSSjh3VOCuQLnGOORHYBZztGSoOzeZ1B/wLC+CVdMLJw+ldjLLHUjnEsAJi+SVcMhGF2u9ES8SxMbrBUmEfPJTzSaBKfrTLztR1p25HCcMKcYrtnjDhy/fDDD3dhNqRsNtiulGqw4dwzEGQZK8UCQZYw7N5MBDl0Rg6NibUhJoJ709m4BD6gomOHztq1q6MCXtdpigk3hfyiKQhBM2AwKejB0IilspchvTxhYMxx6gNPfu8dN7nRJussiinw/rO+uOdtd77x2uvH+K1ndON+MvYhfto222zj4JBl4OxyhmWj2pRRxSh0VfwoW6C0XXWp9kwKdg8m6LInDihfRywAV1PdueMoY9+U25JYEibrKqLjrYwqK5zLCE1zH2GROILq2DpOjWmyG0Jbdy3OUR8XtgHjzCWAgyUdeuihWiDA6H0MF2n3BK1kx3ABZlCYl/XpfJSLIG63leHdnO90SVZTgNe7xrU5ydhJRGvVvTarTl/V2N2Hjas2vmJG0hkXztBKgB09J+zd7CN6XcoLlpcAi/9YBZFTne/FfUx4JqpH+XZgO2LNEdVuXUAdUZTqaj8AFcy4pGnFgp2RjXhlfEo0fZB42kmJfFKcbhH4UbEdo4nAIhWugv5BgkyjNh3GiNGPig+UWOocYz8AtKIyiBzFC/GUkejIRbTkLG8MJ39dps50m0CE1UirjqKK0RkawvNKQkjo3TApW27mAiNbblcK7aGcUJdMI/5bOiQtHGCTYWWQQ3qSYq6vEj/CPmnfchsbma0CvvRtJIQS+iLktA9jdCz+N5qfbSSXrF3BCd2oLD+kl2kMjBE85/3xwgdsvEmM0M3S8y77XQoeK5ZxwESg2lv2yrAM7HOgnmDlcly/pyi55OxiipVAVxJjg/nCHZHxo25xi1soSWsjyeg4VSwsBpAWxOTAthRIwcNgt8DYKAIfYNk0faKC+44arjV3NfxidgQSeSAt+ArBQzUDhgvY1GSqGX5nuUbcUsspwZBQkagjscKWkkPCxQ0G7hpWXbjCI7wbXizqDHNHMQ+vhXT/2PmISIu4jeHiJL9HO3bojTuVzMHQo5WBB/qgXkqAjYt4hkPTsRiERT8JMDbBSQJXMqOuBN08PGztOeOSNbgerzClNRi3wHcR+05mPwAVzBgHUcSJr6IHbJHw2zkpJIcW4kAatMNP5xgDBo10jhFtEDm+9owxsVSNEQseCwC9hysSzRsaBYWiEJHo9Ij1B61Swkp8+jT2aUdadRQtcGujIhqbjRnDhDGeg/buS+dKqQZbgcS7QJyzUOVzvmUotrgPR8+zEqOKtenKs/L0GDoKsdGujgr48oBZmjsVAPRRK8uOl7Dx1CbiB/1XZYbXZRoDY1xtohWcfemieAGeCy774x1ucstI+6XrWdgomN4au9NtWLYq4BJ64uso40dpp2QKdHYNUtgpjzZvfNUyocLppPF0KcjnViK6mCDMEZsQNFNijysg/OkaUQaJW42RjnzHWJlcfHFkEp5OyGEZSnrKqzP82gZFiyTwsOyqgF6q8G6Wh+v3IPFYrhRMVcaOvexR+XbswqHyS/gEePKvjAsns6yO7WIH1Fg+H5/iyQLcPlVAPAUgB+ZL5OPvBkuJjk2d65pZ9D9jC0ORMBfJArJ9+S0AFczuonLFVPHKcEysRzudk1K239mFzHw6x+jr2DFmL+0Y81P00o6RToMY6CgRRE4LJCVDwUPQRiQ6TFOgnYQzEsi75xDK2I6iEeZjxIjjVODoIyYZWPQJ4ie1JSU7V0o7WCUtimgZ0sYGOYySWb4nMluFJbfIkZnhE+2U17IdaULXL7KnSBmdTVb65SiLvKo7vC5DGBhj8bxqtyc//XNvOu7sC9ZabY1/v/vD11nt+qg2BskZ5ZHAiP3SUNC9dWjJRVi2CLhEy0ZncVWefsSKj7C1gabgfcEHMxaWT3EILf+MQhTOX8ydryBeMTUAMGXofQxzWn8YCr7aJMAU8ErkHlq2vxJkz1nsLDyCJMMjopFkwRIsNozM2gO2zRXQ4phRzK99F6KLMWR5AJIybkThJfeVvBTcTBScScaebeq0HTuMhevDJy5vwpXuHAHcVCwBVpJzBsDyDZMZF2I72oeT5zznObQEe7wRZDPrJgASfF9m0NxFMLryk5MIJoJoxIuBEZ+yEYkWABNdwRzxyhh5XJ2hqXDdwDOnaDspeRgk+2q7CAM0CrRjlJ8QRhm/1RjLAtUYTWvWiqZaAPB6wJtonJTCwYSNSHTsHs7nLRdHomO2KlA2JY2lcosRGGV+AjO2o6ilPGcUD5UdTZAYGjue0BJnzxo0WVGsc6VUg1WS7cheMRFhhXMGcKNZOOyqcGYqExD6TaslE+aCFCFQq9WhQIUlqxVyZEoItJGj1j5EOSZnu5Tfwupmo7fxDmJQw++yjoE5jlxAX7ZiMW4GfoRlqwIuTRI/Cnu1a1Lpm5MjmhHDs5dLgvbHF1cFoaFrWyr9sU9wE1wYGPhI+HxKGGyBMuBK3ld+jfQsx27DlqXinI/FSRvlV7FW09lYdacAHmGY7EVDBltVoIwIV33KV9On/WA9mZkJ1knPeFsAWpgBxgIwipLdZPtjJ6XtIutGYv7HCGMooQznA0syk2PSBkR9ZbxWoPa/tiNtO+ppgd0wyfIpJ9TUoJySbDjQUKCTn6PooQeAanW0wFMsSgdGNkV6hd7TSSFZbEgsfAz0Ry6YY8HTjw7KMqewPSE6XX/J5e/rdGO3eUYV7Ym1t/whankaEaclhy0Le3ka1DCWAQOTYGABCR6KD0NkYcaPmgSVsykz9dgpnoP2NxvML8W65k7vw/QtxSkYul5aGOgXPGP2eOYW6NKQn9uWF35rU499YFsLf3JHQTjM3SjMDPkrOAbGnGpbsNhxoNOx7HhsacZhmHmAlg5rW9ixZj7x6M41hdn37jS2jai5hT9iQ1RtOhDBs19lzui1xUBb3ZmIxE/7NXLadpYubI7IjwI1820fXkd01/7PkM2vnYmxQdUQj7ayrs3R8jXzq4SDl7bEqsxRr2AIcN0oGAvwqEbkTzKtPdWHTwMGEgPzavFkr7NP4NTOm7kYpCmb6u48O3lZ/b2T2fdStSC+i+Oz7jO6A+TSBvHjIJOjdERR505pVX3UK17gkI+T33EOe1SxGeUThw7sOfJU1XIMz3W8wFv1aZLXTgy0FZ2Oc/O359JfZztLFzbXkxkoeTGoHZQcR3ud7HfYxLl5t4/luFYVN886y8t0vcyRh56tfq2hZL/Rggsx/viTYAHtWTgFsH6nqJ3y92fC6VuOBY7qt8wHg9YcpXFsx8Frhx6nI4CYVkdmAoayiyE9YGBGGBhv8Zx50TlHnP7pT59z6iTtkgFuk1iWofDSahG6w51O6aguoACFTsKZFvo4huur86ZuHqTR4FCc45sRZaC/R0wfI/Bo38nUOKGrCtPBtWesTVoXbndaovhFdBfBYKJluj9oIxqV4zT5iWIb55jZVSo6Thbl3SUSOMcxAe07eJoX751/A3MMTUkJI3KRJXI0AiEaiUFVbSrvIDh5BhJLOjpyjNumNOHhFdhxh0baKSOAUXUZB6AVXyTK+zVeF1dBEjmYl7u60mVT8QlUBpUXmMwUZT+j0ilDoIIkbvOYQRehsqNRGACV3uE5usjfqrqxhDo/qp1+2CpMVo2PanNC2KCrvS+ClpxBz+E4nW+Yrpi4JS3hcWa6wh5yMqE5EVEX/UMjfSWbkgA/hanKacMPljNLIGkcnl3EcWA96hJsJtSZtHhFGJpFkMRMNk6eWSkyHYuPm6E+VaRYkYobArGIHFGzSLOphMFiz8whMWBgRhgYI3i++osfPP9LR5x54WlHnnXsUz+3KJRk+ZAWqNOiCm5iPbjdYh26UxLhZmcarww/1YKVkzHBgvnGb9l1mbaeSTJySKZFJRYOjcxfmQQPTr377ru7UCIAD2XW+SJcQ+QCJS1Cqxd/x0SsJaceXEEIdgx+owAGVdE6dwaPVFDFfRqXDDA4zbpQLUxcgNEftcy6zThvbZtacMPO7RznbuOvZOJHyruQ4UibXijLbt2y8JQMwES9hCWXh9zbiBNTwHPTmywHKpYX4paSWzUV0KplUC7QRHdey6h0ymSINoiFAddjIwixT50YwNHcTkcDbocQWtGL37a6GdH4qHbk98NWYrJtfJawIQM6SsrjGAXRwqaJdOdvhT0cn/lSRdWzQFCgWU6zmDybMKhaNbNa1gU0Un3iCpobZpBvCsIQB2QV/7AEG2GQFnG2uyLFllTcgLYKVLdG8rqb14SB6Uz4gTBlXtnXkB4w0IOBMa62t33n2IdvfWt/u/GOK238lQsuOvuSX91+42tvJFCX5iRWWxmvDBGXIaTALfBM3LJ2C5W+WY4Ej4jQOJYiqYNZW+HYBKmTAcEiWigbBTsmeCwkujwBo1gbjSqknaszVrVAmfwY5IGjzAAgR7nCxAUAj9uj4uW4McPicRMQSP1RyxRgTpHQLsEQJFWbFGrMmsBgfunFJT42n8LiO7jBx9RwHcotRffPcX+KLQlKYHCViC1G/kkQG5iac+puzsa1Vregwv9TNRXYg2ECTAwCZhk/IdHiFjBWqFmWGUhc5XFnliuJiCW9yqh0nRgQSUVAPLc9METyMm4T64t4q6pj7rrwqbMd+f2w9UfM62xzctic/kBjuGpoMIErOI/EqN8Ke0QLLoxgyqh6ZhzH5+DSCCYuwTeLzEgLBlNYFdE+Xysp4gowtxg7XuPVzKpFOUOT8lVho7CQiHxEggwQiVhNBlLGPwxKMMXyrRS1IpYH+i9JUVyrkuoCns7fhAF4mgKzgHi0Pfn9XsfO1obMFRMDYyyev13zd1InntVXWeVv11y7oy4HM2WAY3bMESQoh9mBXWLKVm9UwabZ+2haJs0dl+T6t04yVptFHtfTxBrAJdGxEIHqCggmcKGEdUjr9EsmRZv5q65gix6uBqsdG8WISSOamu5cVIy/x277xDJ2hpuUcjfNElWYfsfiibBjGY1Kj4QKqUNcqYKHkmGawpEjxFkE2LfScFjCQHTUACY2BjAdwpgVyKjCsCI2WhTIgGBtmxFKAF8gDIgZfiFiA0vCRLBpQGrBnw4CCbc+MyWucMZuFiBzLFiYkgIWuLIOIRGzq21KmRAM6oLWKwbHd0+IlscBIkQbFx+hCANusEdUuk4MmAJfoT34mjbjaatf92WlznZ8HQtbYrJtvLPNGcGGYLDyBHKSRIU9xAZXTFW7a3msgJHBpaxlMoOkl0CrAg3ElGUv3IzmPRQIegDNIKi0nNksHAkxYa0CJO0V8OmgLuMfRknoggpal5miT8isSLGTVKIuqRmJ6peTgJpCAaJ20O0Ej6gKDK8DBkZhYIzgeeKdHnDieb+92GbMhRdd+feVtt3k1tnQnMRqqzZdw7jRRcYEIwbodPhv/jmABCATwgrwU/HDuBLfBgSruohatpFVCdUPF2ADyeck4dESW5ru5hWXl6AYigMUMXho675ah8QYXR4fidbKLqxnPJ2YpIDHV79ZoGqTiWZcJKuW6ZtMLpIP0/FLLyaEuOZtO+Ni9GIxPUMYa7A8pyvNGnNqXj4jCcY23XRTdb22TcnMmA7SnVHp5MfTRqXrxADzkYfT/fxyU0ELbXW6RfgMO9tRZSxsicm28c42J4dN72ALGzqG7xd+qt2a/BRfq5h+VYS6KExpmC6oGt2umlkNopmEgRimaREnlAZ6SZJcSR5ZWIKSR8kId2JFii2pUKRi7LFMynYCBsixOkwEfy+1iYFblhnSAwZ6MDBG8Dzy9rv863Z7/PmqG227yfbHPOLlVUP0dHHJaKk8SD6haezSUqFbUfc4kXFn1gCFnZZHOVKGUxiDSAZaNmi12CRQl87uL/eElwPjIOHYEBmDpKySabInTg9HQDAtiDuZAbAVy6WYCdGoKKd8U7pgviiD63H1YPTG5ZUGJ76ZdQWSiB3A8GLk4U0MCxs8gAwAsk0Jw7SwSTWqK74AIfm1bZO0wAvCYPKVpaW88TIdmJK2dgSaMzQtgFCzgCl7zJbtWjkSZtTsPPYlvZvxhxm1Taketfwab0alM0fkLg9btB+/5DGmBkX4pq6V78QApNnD0C+lmzadB7Ta6sThJJgcBVuOF3ht47OEDTMl+8PgTiTY0kMk+VolWuzZZ+LmwtPxYo6sKA9sfjAiCuUzVdk6XAKWgKBqnLQ5KJZ0aDxqUaEsK6y8mlnVHaeM0wEqIh50yN+AWkiOWGKqR5vmKxvPBIvZwkQbFXm3pILkqFk8rmYtq2s8YbAKfLJG2JoKC7wW4x1+BwyMxcAch8xhDdBqZxmrrQwhNXYAbQGLqicgWFmeKwODxi7D3Vd+yjS3FZlXRlvAWI2RVZFlqgQWxrsyy7BpAMMjPNE4dga3eFbVV/la4s0GFZZB/ilQNVVWiTTFdkZR6VoMMMhsIXh8quLasUTl50DK3tt2yq/zDJvdF4Y1h2ELQ39OhT2z3x9Vr2yNYzZtuDK/Spczi7x1Ee61KIYa6Qd8blWtSV4r8q5IBXhURtNXNRUwgHwS4Ku6w+sKgoH+yAVzLHj6cTpdvLL+NleEr9RnoUJtNREPE44XJ2It2TOYsPxQjMHEhG3/ns2AmQEDAwamwMACEjx0duZ/aT1MMZ4VsArLgMVQujsmQQK9GLYnKTmUgYEBXQMZDBiYQwz0C555ZUxs9rmVOg4COSPXIgsTqa7+OHEXZwG4wstYI5zUxGHbQk+OLfTYIc8yPHvaz9dRCf63PI8wqkxnfmzzdH6yG1TecCzLTCh1eFegMSu2o7OHXGIsS2YCDGbBA5mcMJk/eYKzyEFB5e1jcSv1V+QgraIW9Zcvv7r9Ux69QyfA1qAyga6xg0Uti8f6QxtCM6WcgCQHO6qvuD1Tgt2m1Q0w8peN2xYrc6qxl58yzW1Y4gedWy/5dVRi1EA6y89V/J5JSKUTgCFzIWBgXgXPnA/YoS9b4s6qVi1zTDu3WmZiVbbf5bgOacs0P7kE50xqvk6SsDeb+8ZR3gZMJ7NwXC3jKSjprLmNerBN0suEZez6xKnoqry9ignH5TySTe+s3o7OcSknNbJAJnJ07pQ4B2GXGzK5quRnmSrBnVXlxCvB5tC2tE14B8M6y0SmzSRH240O2Ha5cR/5CUlPxfjkr7iWxyOhDv3YyciKowZLproboBhcqWKwPJm28Rw9CLmVLWRi1BTkYJ0/jHvWWSUSjnFmqIjqU76662rqPYBxlFGiH28qVmPPpsqE62tx2FomseqUSnV5riycaB+FtLJwph2FcOsWAoHtnI6raflpRokklVFENaPWhsLzjIE5FjyUeieJLc7QfK3JnpA5horN0bBs6pYncd31ce1grO6scUvU0ZpyJwMnQso2tBOPTB/7xmMtElqbQ0RxfjTq0vWwBpzOKw5lUBn2JhuPxH777WeJShMq+gpjK6K/OPATqijDAiocmnJ6O2r1I8eyV76KJ6RiiRyXbPQYt/ZK+CHBLNgWChzaQC5DqmgEGzW0EucyHZeqLLmA0xn3iM7SMzoFzAJ2SQiRrzl31FtghGikm2NVNADNQg48ZFQhxzde8YpXRHfxWw5HjrkIww5brKIWVXhmMBm76tla52DhpBS3WTgHW81OxolR0lwbrBs8Mo3XuKJ6STDlFMAGvSSDErWDLRGrqUmC9zg5nXzf1qk0TctIJcJ21E41hADSb+fYYSxnLUpaDo4yQmZpSyUyS7Qn0qLxJLZRNDyH8XuSqNhzFfw53iGxADEwXvC88mtHPeRjB+5z/Gu/9ZvaqUVV5HAIf4WxoXgavTVGG50kZI4qVXgPTTlu696DOyt0IgUwcesHefmt0MeHyAelmHOoQXN0fIdQXYKJgAXKYxAWpEuaZENVvXwl/GiODrnSnkIjrkLvlMFayoqRdmGQBAVhGeomLtiSHCG6HMx15NTFcmwias00nlCLHCs8biBV8ON6cogBaGlDqlDSnVYgeNznTayyaaCo80SskiKm9I8uRuSMkyP1tqPC/nP/SV+Q43ixi65IRTFQSeNobsi6rRXqKqlcTlA1HLXwU6feJdq4OCWeaTCYINkfYZCU7xwskUNfKQ0dJeOJwUpXs4M2QJU8PQq7LeDygFnwWhFMOQVVWJ1qsBViNTVd8B6kDplWSgYuqoYQMFdjR1TEP+vNXbFKESFTWfYORjrVEnVLZNLk0HaQdyKtIjYjNfUOWLruY170Fe3EL7FET51l/J4kKgoZ2mCVdipPZb9DeiFgYEzInP/61rEXXHb+g26z2e+vvPLAk4/64t7XHzalxs5JyBx+qm222YbSZ0kgfSGNsRhEKR+C0JNLPG7kcJSxb8o//EzeWGnuyriwGfFF+LXY7wJ4EAO4vOooniAhDpkFea+7xTs2gRtaGxHpxAoBA/mXoXdEBMHgUDmumiZL1Q7fvQIZ6sZ5a1IBW9G1Xxd0rGSjAx5fnxPnvCVimypPTJIQusD9I9Bc+J1siZXxhCjUFXLYKGAGRgU/ZxTmJfqOfQtIw4wypIrrI6Gky3Frx8pXnVxhPOHXcU+2Gle89oyuKg8kGoADeIwbWrOxs4fMCHcckFwfMblUE7eOFMO4Yb5qoRqOr3GpS4Km30YtSjyL8mkseOiee+4JmbpoBwsSk0uRhyVqe9V1vlaz44aN/TlaEVs8y0i4QINEW4Lh+4opEBGAc8nNMNMXQYmqG2kVYqNxsBF15QnpxEDZe5lugwNVQ1C4HDvjnuC3OsTvsI442coj2m0kJyu0RKbWEu2BEwUqYjPqioYjpELkE+Qaidup1ikhB72Ih87qTli5lMphVukkKvmm+7jjjjNTlp67ZQ960IMgvyo/vC4QDIyxeE664Hs7bLYRWDdaa63N11/ve79btAMcT2iaswyZo6kyvAf2F44j9Grp+ooWrRbkSIkOj030jmVQ8cr4IvLdIbXaJeL+OXZAIJFqcrbeeuuoaDGXrgPsAJlynoRuHpFOaGp4Hx89AZChdzJYS7TT/vYEHbEyKWLMHXxWRfq735nGE2qRQ98MUVHBn7Dh7MYbDCVCqsgx3sih5wYT1A48lG7GbCETPaPLMpEgDs0CaB3Gg0DzuOWWW5YaA1OjjSpUNjJqOMp0xsWJuiQci6cMg9Q5WCaXzSFsveyxTVez0xaIHF1QtDsJJqsgwjYoUX7tRKzJwsezzCQJN6+rwEXtEMqxu2rNW8DDGd7LUuroro3k1InMEjAFKmLzVU5ckouYWFHecgCtZTiH8Xu0TNdhN9twsuQFAeHjLcEb0gsKA2MEz8Zrrf+nq671cV10xRWbrrthQu+qs0vLFBZXsmMLHQVTNxgiqC2K4d3i89O4+XBY9MQJDYWOT8PKO5vlKWE6iwapwHwanCEa0TK9jDdD4xncVz5HDTOIWsROEsCf/4rtz4ETW6yhRtH3MfpIR76K5Af2FOcRItMil2Bz2H213gxq8tA7Mcz4xburUDfyw73gRAMvBFA9fDJQ5NNY5FS381rkcFPEMbkK/oAHfzdYEtQKNzoLkrmAL6tC2ZTjhmlshrEmXaEXykFm1G1/e0aXhbF+o2O2Wvl0BY5Q9oeHoZY3kCCkM6pQNiLRDscORMhFCOyMWqRZhFSFQeocrB0UQPqTNv1H9arZAVVMZQkn0kJ4dKNOglHSFIC8CqtTtiDdiVhqyoyC92iHGWdcZeCidgjl2F1aQpaWFWVLGp0kYEbKEqIewbYlFpGcOpFZ4qQlNg1WNJxdSOAAcxK/R1MBBr2TV5MegIxtvwUDKXsc0gsHA2NcbS/bdd9nnfCWdVb/x2V/vfqBW9x98/VuXILOZPbIidiOyIhbn36Hy5Qhc/gNqG8ZModZXYZmCcFDSEggGnst0WYcQvPnQ7TPmV72K413s6YjM+OL2M7hyWGEpcvImRx6PWtGeFALQ3nK+HOe8xxs0cLGywAjU7+CvmAimGacWIvQO9aG89+EX3XGF2fM+/lx4gvwGXSESaFTBfRFyoJHLxZwQGs9iDNkgzfiCfUjJ6r47UQOlNrs7YRf45wzzA5aLVePMrQB5Vke9s94IeTwgLF4AvN8jHgNV4njDzMaHTempggD7FWCNsASpcXrzmYDYcnu0R2jx1fBgXjb2KlcbRFVwaRwQpKIqYgo1k6HHTLauj8lQGUxU+ZOGFOqRkQtCjyDhOzkazXdXIjUi3aw0OhRHqHae7DLrbu8NGrq/XEBBWRWs6MvlhzODjbsOHYmFKamBF1VBBMtxBTY5zBYSwBto3wzUg62JRtsFLW0wXsCA1rufCJwEVcwe444QYHVEChw5djRrS1JD5FDAvFukaMxdrunICwjOZFYLNeKchLt4FFRlYrYGIIlqNF4FI580PJnkBOWrVUJmVx8lL8WJzznZgf+SbJUYqKRICrLyojISCoUBbfsd0gvQAxMFLnghxdfsPHaN7ppYe6MGgn3PZ/1LEPm4P44V4+uNKr3yLeQnHPFT+MVWVMq5ZS1eO3wJl6+LGa1V5FOVJww9E7ZssVmOXkiU0ecGNlLWVKaLcK8S9iobHYpcMyqWPlaIkdfTEwuBUu6hZ8vNA4LmBEdpRmqNUyQMj7F+pzR6HREYCOJcOh5hVLj1S9o4d/AvcpsIWmHUyKhjbWTeGZ1AbIMgzT1YKvZASeoKpdUCVVLMDkFVBzsEkmDPFWWsm6JWJttaIC9UhaYJO0YC0x6spdqCD2NoIdJVlyFzER7ttwSW34am6CNIZW86lfiRF0Q6t3oqnaCqMzLJPBXdYfXJYeB/gukEwmeuQKOSUHbddgmoxnOVcvLQTvTIceZMRofb89ygIFhCIEBVt0QvGcghmUdAwtI8FB+6f6p0SzrmJ1b+KdGDh0/nRhzC9LQ2lLBALtqlIm8VOAZOh0wMAUG+gXPmD2eKfrrqdKayT2FV7RPUyNnkDrLGakMUmc5m9BhOC0GxpxqayssnJy5Cvo0+YgYJU4eZ/k4MJavkyQos9VlWD7x6lpiZzuOj6vY+WnqTGfbIhzA1C2YgrKu/afq+t7YKHaO2BmXh0Of6Va2NmE6uoiTkGOrOGPmhGQZ2GJslShgM6Mamh3B6hqQ88T2G3oajJH6tfXSU6znU3RhFJ1H8uLebk91n9RNMCIxFhhTU4207QINWx2Rbx61nK9t4cwZi7EsKTBBgl0ewMsCEyYmpJMJWxuKTY2BZVjwzFXQp8lxh/SdBMvyNqviukPmjE3gX4422SbNkhm5K3Mi4biaexiZOSoqXRaYIuGcEnjaira1cYQ2v80xBeVYnFCKM4FZclQUu+zCETUHzJyGcv7NAb9Rl3wrbGT7EtEFZmRrpMxv00o6u+WAnF0xp/yjwNhaUYyYcWSuissvUAAAOadJREFUbNPRxAj/k5nOlXUy6OiCzmHq4dzj4jBCqo5KZjuJnMzJRHQhUsB8BnlzBNFBvoShM2GMcUXBVz4WI3VIsrOkzBzgKIy1Fd29dWgWnXhMogtADhq0xcbmJJ04LB6XQMZWGQosCQxMJHjOvuSXl145Pvoy+BxVciccmYbqR/dBjg5YW3W+YkyxMh1OdYKLTtSGI2MBONIzigFVKJgk6JNOabja9Et3o/CWaikwPNGsK+ihpjmMlJlltLGq93y1BjJEW2Ri6DrCreIVH3euSU5WyYRjPBGmrMJVGRzMJwedHRh1UjkrMlYMKgB2+jbVQKMAj1EzaBRghWQVn9zdi+E7aa3YFHHeykaiZZPrJC6dNDvKhAt9boN6pWhnKDygIpIMJUcGGBfRgpuI/Bh1DVmbDhDHa4mNisayi6xYkpxMRpXjXmYEv4MQNOP2ogPHMmkSGFDKj8W0cC0xqNhJig6MOW5eitvo1y9h4NS+RDk1VReO/OoReZuF1FpKaqmQAy3Kp02cXUSnFeHNVZC3qtkcoAPlldnnk+nIApFwTAatxkWF/JRkUw4whwMbVkdcSlOFNiaNhpMAZDr5jU48aBj15hXgaoWWyMdthG8IGFRh7kRavu5cRmYuW+yROfzOJwbGCJ4L/njRgz924Mu++q7HHnfI605ddO2xfCw/LC/cR/ItjxnFaiMGqlBOqE0LCM55fLxJmz2x2hISzBf1dwZ9UsYNAH/X2eVQeq7Dx9QcyjVCB7beXbtzghnLU9J1esxRAnG7XCJRRRuT0z5YpCXhUqQDZvEnwMHPFNCUw3sxCvFIpN1CaKtDQoQpqyJrlcHBqJDO4NL13F4KsYEpG5dl6QZM8Nm49oTNgdmNirFB8Cy8mcZ5gzHH58pIeoYjk9UimEp5vTeHGVHsiEAqsBHRiynCWI8cwMdYojCWzYYwTbgwGQaBLpe4B2PUCiQ2WhqLLrLHCo3yX/WqVxmsA/qu/ki7biyT7HGtNS5XgaQlhpYU1SKr3Mjhbu08ucuIwcWqqckuEkIJp72RYhBbRS0lctAhjJnTDL8WXURTLeG5WIPPaqHsi9xC5GVOla56aZuN8kQmQs1ofhad69Kw4aZa2SCeTqAyLiEQ5D5VZFMOMIbjFLW7brDhvleASiTgA0SXC6HiCpbtS9Mg4TkuIVQrtEI+GNzriupuqqWJqbpJ9CAndjYCJpaqXobXJYqBMYLn1accfZfN1t/1lps8fOtbnXz+Gb++/NKEBoPYe++9TZi1EfaBXW4MyA1BjNhSV9IycHOQj4Jqg8sIRIZY5WNehIGEHXVkisLwGhSJTbO+WQDYU2giFCXcx694M6mwJAyumrpLiASpsUhQvqZ4e9xLx+t1GiXdKXNxT1+4s3xrQ1/MMkHesHIUbxVRLfECjE8VV+0MDVHShZ3/dveeiMUgst8yQS/GXNwrdATW3wXwqRMG4KWGW1bPdIUrwLifGOekAQnJLipGVDpVyGOX7PAj7MCtKV4IUapAIqCDBWZ32mAtfqJU7AYjJZwizpsJinsktNe41AkVEOtGrU+uHLrHjn9lnDcsAOrc79Ny2whIYJs1A9WkXY6lSozqgjAoS7pWha/RWM0ISHh4DApWzU5io6WxsgXpCo1y3GwVoU7C/VPS0ZVkBBPR8MTRkG90LTG0pEi5EQKOvKcVqTXqqaYmu6jKGyB8yqyoJfEPORF+DVGhc5pN1UJLeApgo2kKRHnLBw1XdcvXqpfOZi0BtAQnqM4ADzjgAGocy49aYC2XrZk7AUQUI1SINJ8qsikHGBWJRlMASGyEchbWpAi2hx12GJqMJakkRFns9EvX1VG+RLtCK+SXgJVpV7xpXbpA9tAFYKY2fRQboVuUJYf0EsLAGMHzmz9fctN1142+N1l37d9dfr07JbSGWcZqc6sxGFaEcqKwxIVt8TmCWeC8OD76qGK1BUhjgz5FMYtcwj32aJxyTQqichxWPl6GiAkePFoAUG4QjJKGTqbyq5TRxjCsCNwSzRKWVFcMwgLDl7XGk+MTHmE1qsgxjRFE4YAh0p2/bWStKEZMat+yhGo3YQlF+eTQPe5xD8omo43fEhiWDX+Ur8HplOkPgkfdi/gOowKjcQ+anbgvqX1ogZAqkp5esGOchXMmoO38HdVFVdjo5BCH4UuBQDEIGKNYYZY0WKP2qWKvWWAUGk0czZrmgZzoE5hdqUm0xNCSIgzAWOn8yU7LRDU15acyDf94t5xOaomSbfi1soWW8Hw1U/1zUbbQ2Utns6A1O0H84oPYZEKTrBMyoDpUSTyYPrTqz0BQH0mRTrIpwWCD0rHk0KsYJfQYafEXIifVTfIeQjjHuLVpJOBpV2gP8tPcKbuWpqKhMcMR5UQwi4iFUZUZXuccA2MEzz03v/2PL75Cr3+66qrfXH7FDpttlRBQamYfq61yWRAwqFYXGCimI8EzJs1+4pTvdOYoQ3SNCvoU0Fa9RCbRwpBC1ggd6TPt0T1Nij8hjAbAMA4WxRq7LtoYRqwuGuWOYO/bu2KFWABViDbCgIZuBbJyMnhPdNrzaweijGunJB+F386odDRBahoAREYJQ4o1KWqLiAkZDrXkCMQSTmqwlET+d82StRwREvRWYpheqR0TKseDXxgaAezIk68R561tREkidscddyzPQSxu4AY/o7ooCzFrDjzwQEzNbBoajgaBtGyjiDAQgQ1kALdMwJiLsoVIt2i0YYDpIB5bIDRixej4wiyZwaii5ZYYWlIU2s7Uw3lY823XkdNOjfwAPqvgnpx+Biunk1pC68fZWQBl+LVsQaIlPJn2YJgFZTHkXWpL5adIV710NktgcxtEND8qoARkUtSszXITkWgnmBnTLEh+NqoequskmxhgALD77rujEGnWKuqNCEYl9VYwo7ctttiCxtOu0Ar5VExjJ4mpleFBKZuKSbEKkJk2SUrzy/FelhnSSwgDI90j0d+BO+/zyq994PPnnL3hWuu98b5PX3mlRWGs8uEB8HidTay2bA2p4fs8ISiVqLBF6dOoWG1RK6kTb6LAYpFV0KeyGOU9y8vn8aeJgx9pqsVhJRP7Rru4mzTWBh7AsHsi2pjq73vf+7ihcA3rk4oUcbrsWFDxMkRbJwwBSfyWwcF4QsLmYxJRgVlI1okNoQwOFj6fqJhR6UDO56MK4GPriHvTHkn5x1VjsNxuEjyBeGtMVuwG6cJq1GwbGE2zoKJOcqTYa1EGKpSnC1eN+KRxbgr+k/gbSDhIuPJ84gaMAj1dKMAnw8NG8cSCbdjI4QYhy6kCmAJoDYH+G6HS2niA0UUMVrpCoxxqrJahiwOW20roGrxS4zDmK5ybUFt6FTFUpMjuRJPhwMRzMVZ1owUJxi4OK+Fppya6QDm+Rqx0pjPXMZDktNSS+Od2tv2AtjP82qIOrntofhXh4aS8vrMP8lY1GySU0fyQGcA8kGCKoS4MfcUwbisInYDRjLA/aDNcvhXZ5ABjKOaUw9ZCY1MGzUT1/I1iOcVe+Y2ZrRBYrdAK+daLlStTAo1pIRsxZUxnAkz0XmP5whe+kIGdorvhd4liYI5D5tBbOUZmGauNfhpK7tQjr4I+9bQTdn1Inc5igDGokigtbycC5JQhGOSAuQR7chiy3yqyFjmqr1HBwUBFZ7dyorpX/J2+WcKQLUcCw8UUwv4DMNNhijhvZSNV+z2vBuKMn/VPC45iNNDcqe6saHQYfQ4nsdHSWFW9QmP5lalKmHFChrD3SbMMQR1Jt8QwHSlWU1N2UQJTpitqSeTYcgCbJ8OvlbWkS8KbwyBvZbNVj9Ur26XTo1AVq8gmB5jFGKaWoZFmzoSJaoVWyNcIHa7TWWKXGhkAPqXRhD0OxSbBQH/kgjkWPP0ATReOrL/N4SsM8CBR2ynRQvxOjhDmBWV8iPM2OcYWeEkWxhDkbYHP0YoD3gISPJQR9nhpKKw407BER0qnpr71GxCdALAABnWvEzPLYiaz0vpaFiEfYF7+MNAveMbs8cwtOqawo+cWgOW1NR6DKaQObAxSZ3kiiUHqLE+zuXyPZZnXjxxu4bVvJ4ljt8qPHB5hJ7uiPJ9+BhdwNroq37ZZ5XBwlYdzfJ089lQ0pUd+ee7vquVJXqs4aVHFHnjc2pukhcnLxD2tycuPKmn3xUm58mtEWitz+tN2EO1LTRjRp2rKFNs2rzLZfDDGFq/y21fUYh+ize/JYYlqnCGiDMirdE/F9tPSJTZbPkirgmpyYpt8XbjF1c5R1a9XVASZ5TN2Bjtnv2rZUZ2y91G8parldfIB8kwk2BhRxUDalntyIAE36ymwkD8t84LH0RQnlNq7Cw69xPGtxH7kmGynMLEb+f6iosNauIM053heOM0qEo5+jTor7DhstRodj6lyyqaqtPM/TjS53ujMmGt3/X1Vdb1WcdKigBtwThDFzcS2ynQ5WJ4D5TOqa7Ohs7xhgrD85MjTJKEto4ojc079OXbo9rEj18HQM/BX2Wxn2pHxNoAYhwCMtfnZghs/EdTLmfI8c5VfxyY07rCWYq6ISTubJ+1Mtg25tu6CJbbOcG1jiS2nZvJ14aCHg3wtZqocx+eEvLP2oXRx9Lv9icaqTPXaOftVGbfL40Rr5I/iLVkr6XzyATrvDmbnRT1qOVs7U303e3eaNI6hJ57z08JPjBc8J55/+su+ctR7zzhhksHQERz/dc4yuLkqZegkZz1T4XWHhrSwJmkZLkaUdOMkj9Uuf2yPamGyzo9a1VkYo2RGsG86c8y0fDfR/DoG6tCU2wPSptBFDYlqCGWUMF+B7aZRjg6QGklhQ3S5OtAZaYrCCyr6FPC0g9sytsQFwMuo8G4SyKz6YmdUpkbVuyqYr4O8tDlp0nSmId0mwb/bRQ4QG6MD1nrRV0BF24qxwIbhuAYR2iKFzvQR8wp7MFP3DdOqA6SD74FzXzPSmkzVITNLRl3n9FhFcZ+clHIggqhW3U1J+ERO6C3DvjkbhpYwr0UdL36q3iNTsTgP7bU/sJhRa9A0sdXoK05+ZwtlRy3wTtujfC5QQWUCXUiUhgFmLZB2Ea9o9sRG07cEXPDUfqk+A4mORRNHeHNFbCAnOCNcWyex6csMhqAtpybWRaBuEU1fFx2xBV74VOceg59G+fhFaRrPHDcZ0JhV41S0hMfVZnMtkf4M7AW2g0SzokQ5+5nPnM1FHZmdvKVkTSWd5wA1gjBSlnSyAmRAcHroH8Ybao1O0YyVEqTutYIf84xPTnua7oQ88Wz5VEPIMgswMUbwHP3DL73jtGNXWvm33/7tNx917CurASB06MD7zIFPppzxgcrpR2E94InO2uMdo0KKuZBPdXV5W/gKKolG8BEXiZEmWwRbx4YQCgJNeiphEGlY+5THuPTjk+lkiLg9EAHQ2hy8wDkuK1+zvrpAgDq1j6vusssu7RAySphhqui+JDuJthJguE3tBoBLPEEKEXuqjTRlrcKMVeFWQYTVcT8fZTOzLAzHoCMgStmXqydu9mUcuc7eZZZx0gzKHRqwTR7SbSz+YQaXd/HCeA0fI4Zh4YHlx91e+QJqUb7MMlWOvEcSMr36dQtYrC3LyfyGlemmkYtHtFTXRRXISGtVcLmo6woObLv7YjHLYe4Io4K1OVtsjGw+q85605cl50IGDRR4rsGHJG571wiR4wpt8GjDiYsmOEXQcIVnp37NrMeaN4qw/NqOWuDNtenTHcqPO9EuAhtsDCS0nDkhNlSEVCDKfVuiEfyeiNFJoXbBDp+aE2IzFkpShmtriQ0OETmBF4EWy6mJdQGwiqpb4PViWqswPDItag1KjHrMu9k3iW72WMuIzS0rywrOI4JiVCxnXw6QzIVb2C6ilRqPTy1vqVhTSecxQCwFK2DWTxh0DpVaL+SQ7iwKLhADF5EEYbTwM2uwViXxq9IDkXg2EJyEeyY0AyUX8jNG8Bx79qn3vfWmm6yzzrY32WjVlf/2w4sXMet4OCvHxmrDVV1zQwpI1iH9NqSYpqwZPjFXMoP5cqTghliGW/RIGYMwH3CKqigI13W+6H9z4/KaCDGoWQiNuIRh+XGbYE8vetGLonCbgxdYHtRkFYk9qjre6paZW2k22wHgaDKqDR7hskvETKNXVuHOtO86N2hx5FTwo9Mq0hQ2hPrFr8yAHJpyR5LhZUW53SIgporZl+VRxZHr7J3UNGoynjRVfYqQbmr145/KHGFyWHIGhfTNgrvxEhaAgWsBpzBZBuJiLMgzOhmVDTJBhQVjRrR7hbFCJotlFlH75MTj4AmDhg4bweWotwqQCqpTQaKMC/N6JLpcqGRJGHsG/rKvztorI8t19m7ezSxsO0euzbGBxTKoVyBBFc1WHcmsgJeTEdJoMwibMi6Gha7JSJKSQkZIzxWx6R2i0DlGhg0hRRdULQGSEiSeOSE2zM7sYL5WtDZbYvOJqMtAizk1cZ9UlZaqZVbAy+HACA4rnY+VQnzma5uYJOJcOfuUWosRNUIU0iWx8uKzxjt5S8Waks4TGMuc8xxDoDej8FBuKlagsDmygjwu4SEGVEH+WSPoHxskw8g89E+wESSADFU1e6kSiWds1to019gI3Z0ej0VXhRfO6xjBs+pKq1xz3Z/n+vs//rHKyteXD2WQhCddsB5DIr15Rcs4WqTF2JBiKEZdfBaazDd9NiiM1uYys5tfZo5gwI+InxJxFEmynbnjk3yzbv6gPi6HR+SYNkdJvIDUwaSArbBGyJ7goe0QskdqVBupLPgXIKs5xhlVNKhw+yDEyBGDLhokSJxD41PGkqxhYhI+sy/l+RC84k0RR66zd6xcO1ihkmGLIHozwmYXy0Tm7PFPics4C/Q4vj5LVMRfCY8J0gucUymIk8rSJ7Qw7rgAS6mMS7iQrwoxVjrE5HjK4HIYjSUUdcM7ahmTEy94wQvwU1OGTVA7Ftdb9KMvmmOUj8hynb3j+yYi47xh1qgIxhDAhIHF2o4ChhL4hEpCbAsjpXjhL+4qolWKArKhh80VsRl4aB5kG4ZF8HDg6BpPx90k5oTYmH3oKhzgncRGmkbQhAy0WOJBuqVqmRXwciK0RFV37CuCwW2ZBVi5wqQdG6iMoCiznH3xpfgGiEmbOqYmKCd7aXlLy5qycCYmDDpnyKD1WFxog4+U5UcaAR7z5FhGwJ3wR0ecDdljlYA6JqnNSGyNqofLVQUWzuv1gqQTpidtd7/PnvOr8/5w+Wm/vXTd1de7w8a3yGKTxGqjIzApMKaekGLZoAQ+a2Wy4qVxNywGoZty0gVfTiMmqtBbOT2oUR76BfZN7VXdAlAgpFSb4xP5waymEYTWye6hRMcGT2coMNJLLUxWywiFIRzhzmSOurNtIL7mIxqV/Ruv8SsBAERmdEpirEbnkR99AQxb1xelPuLIdfZexkmbOqRbAinR4p/kIBqjDDlNUmLTXDq0M6qWK1kgJHJYPwLSBFeKwgaCAbFZMQICCXr5fKKLKND+lkhT1x6JnRWcVOMKQzX2zQzSMg5rEq3VaIRMaiPLdfZuswqpAJXz3bLHiSYJLBaTEn21HUV+CbwcaAlsyOeZRGDsbPmRpktJzxWxVUTI34VQ4dwAcTcdzQmxcUtkuLZOYkMV4VSk9ESgRV2H1i/haalaZgW8HJyXpr+oQvFYdKFgFXk3SLIYzGzGtSMjkQrVBPU6BME3q3Q5+ywJDMQUIGPppKVotOUt7dKIkiVtzDToHOWJ4W5d8HlE8B6aEM2MqtfCT7sNigr+doPBX4dnop3fG/bMPlaTbKoqvBBeF7loep4H32anLTbc/JRf/OAW62+yx23uVpVcFKmtN1ZbFTpJdcpFZ0gx8xq3EKi0HhvaNFOrlCpHN1HRLkLZO7FvksLNKh+KNWul2XUk5NA9nToCqbU5+rK1y1ygEqqrF9puKO9tKDDmV0QJE/HTyonx5nk5TQVUmShfMxN5cRNh2c4yhG6lHeDJIXUQGScG9wgMRF/GAnXKIDXGO+0YjXb2nnHSyF2OjugdHfMhsA9mj38UTB3zayLo0bQN/MXUSARZg43kNkB8AYT+hgLPGI0+AqDZoWEngYoDISyewElixqdMRwISJHRnEmMHXu8RaMe2kB0j9AAb1mF4ujPwFwU2LG8aJRhUqXrXrIcpaSo5GAE5SWAx5eN0U4AKsKqjwLmWJQJ4Cd4SUs0fYpAmcuxBmhHp0G/id66ITbP5AIO2azMMacGSfADPnthiXBmuLbxq0WkSG1dPFWgxpyZKIvWKqsM6KYGXZlrFnmLmSwjimZZcmZ9pxF/FtdM4JGQExUVzX8x+2KDYEZFDzGACGLoCGhzFWyrWpGTSeYBhQicJOpcwS5gj0sJiQdU8fiaLMmf31LKq4LeZrXHClahm2ZSNBJ7tm6I6hg79IDhbWWahpec4ZI45o6LCGmMch4VHOUQ6eR4j90ogW5MZg6sTI05M9RforBWZ+BRWjo9nmTYnP7WJdgiq02tCYFAeM9xZW3dUDkcZmsYOWMHkJSERJdk0VG9LNyuWfdGa5UNmfp2i99njH4/GKImWBKNNEJAWgyURIcWMwtCC+gkkau9MV4IWbKVYReraurdlimdFvzCGNrgxEwzGYtyfRXuMJIInP03Xe4VnflSzj/lms21H+WlGiSVBbCwGeyRYKlRQn/kGA/J5IDZjr1ZuTk2ipaXq/BQJlMZw4WGu8se+OgCCzDwZ147OhFQ8Y+sis9b26qxVDrCk8yyMPq1ZYGTOhAmtmTvcIOSfWhX8gETPnS3Ds/wJhzAhPLMsxnEV+xed7cyx4OnsIzPtBpHt/GYzCimW1ZfdhD0J6gyGyNvO9cwyWCpjmQ7/+BcjEtjzDLOzkZy0FFLck3FDiZlnAJbR7vAvDmfChgrPNKcmL0MD4VjmWW3/6ugyNIQB1MDAAhI8lgTlcbrgLsv6dLKZqDO2DZciA50a/4Av9f15mwuqK5jzdMO89bscdDS13r10x25DFwCp8i9dYIbeZ4OBfsFzvfdgNn1MWBfPnUOpw03BHZxdU43p5vnambAax5apKrKsbWxGJi/B1CF2MG5NlSuKuyZbrjrtfLUmubl57fDizgI9meQ9q6vEP/+nnf+sAhJl8rVK9EgdUDnnZi6qKrN85eB2uIAHfJZSx6D4mkpgTCIyKHP606bJ6aCqkf4q+dX55mobIz6ZC97gLDYqMVNQtYM2TAdFgYpj1iIt3yikR3XUmc8+5tspP0HCjGgPgTFf+C3LRvrTFkiskc6IUPZlS6LtaWpyUDkhJhmUQwoQmE/uLvfAwFFmx6GngE/WXbl2lgRh0HcT7PBz9oM06itX7Yz41ah2In9eBU8/KDP9Cpu2rLOWWzJuM+RrZ8L+iuPanZ9GhZ2Aa9vpoYjZrLZrHWTqJExckq1aQ6AThtjB/hxsq6qPeuW/tkUESA4oe/txCKenr6od8tLphjLTLqU9yaQkB69LKV6W9Kl8rdL0Gp7DnpAzVfkJX+2U9gjCthGH6fMGePmV9OInLHNmFPnG2UhodzhzDoP0YDT2q5x5KaEq0zmWGYGaLZiO5SBIj3MildgzwCURw4Z8rcI4JSbLhKWHJt3dcYJAYpI/VNoZZ6hsU9riIvkicwkRBlDdKnMi5oADDnBSpjqlVcHT84rnBCuYnO30tDbHgodK4sSL882pRFj5eH1IdWpCcEwAOS5so6wzZIuBOUg9I0WpHKE28XQtpGILGN25PpakLMcGbEZ5ARWwKbYBNm1U9QhQEZdI4liqgdiodKlId1hSnE2qhlyGvaFmqhJcICC0CS8n9CCnvFwjkA9OehzwnLmIYn7VpS3Sly0Mr3HbwOEogDnc5QSzzLIvkJexOqKFqneZnFcgDzw4DlCdUFfA45iNJ9KkOz7I0orXEjOR04acoVU5UBdHP817HLFVmAJoZkcNtgSVVYc2HJjm8Sd+QAtmCNGIeYx+NQWwEJzwaewR2MZXE+dTAJCF3ZZgB3ilRoS+0kl7DGJYTc3aqfH+ID2sWJRTKpJt7zp13tKiCGDi1qpapfGdNF+OJUFVseoItaANSMtlYmqsNUatzfmYPkO2rRiH0ekHSzRIT0WuFtdMI0K1i8WoTZmdqohDgX7w6Co+VlmrpFVKoXOtWqjWRUt+jq44igm9MTvxi261VuZYcYjKLRknISVseZopGEaZsZwVLim/rJtxhspMNFa+Sk9HGEgL8TNHorWWMOQ7Yw1gF0io5tTi4HKUabgteU7Jqw0qGJ3q1mO27zXZTjuEgGGS3/GC59knvO2fjv6Ph3784C+c++2qRRyBLEEcMUm4wOxD5jhEWwZZsa5gFh2kbl7B0L6S7Y7w4lkulFneCsC7o1loEROJ8lWUF4LHMjYHpoQpUMausJKdzbBugaGurVorGTwmw6Z3O+QMe0OWlBFEol/HtDLEjoUUcX0mCbHjKKCzksSPWoIgGKMGsy+wOTmKcDNWR2fveCKuxLKJ0y+OeODOZXgSU+lstCsRGaonXApBnRVmAIA6kTLurLugAWikcQOMcsQM0hElkQNBYQogftQOtgXVQgou6YwpzJMQdsshHOTmUVNWkfb1GPFRHOnxyWOAZrwMuaQw4JkXThI61myAJHecw3bZtg3XBD9G5PAu61Zd5k5PkB58n2xADxRJq1H5tneZRI6j56n0sJ9QkY6OP/54Xz0lzbtVmmNJUNuOFlSQHvOL1LFj5DddRKiWBqDFZJURodB/FR+rqlXSKt0CVbTroiU/x5eddEdyi6fi2h/rWliWMqdKY8SIx30ml5bCDqgoP8s7t51xhmRiHS4YmX3WW5aJxBSEMUn0puwFBeIeDhjjaWQ5m9I58jCGlCGEyvBmcOsmZdR1jL4UzMl2zDU8o/lSLGV3YxLkXj7USUKPUpzPs49/09OPO/jQEw/1766H7/fbSy7KTzYJLCc3CjEFv/JJSDYEDZ1Q5ZKSY/U6IE8GUMGAi4PY4yEn6ewu8SmAxVv/EniBk/gmjxruVw4hwVELHqsao/GLsuXnQ91wMTtfXc7Qr1dQYRYSiMwE46069SsHrQjuIoEnahyuXaaBODnu9ClvPiiJAPYVd2Cc+uT2H4FBbvFWqYJMDZO3xKd2yBoxZJ+YtA7US2CdcYXN0IT2kWMijRdODMqrljFQCajTu4SKuL8E2CJHWhWoNhajxuzkZF8OLwm2IYcEVR7/rXpndhip7mBVMQ8OrhYjD1SIzCdD0yw8+Ep3c/kDhNIIyG8nZoAEwzR3hxXJcsWcQ9NgmC8al8PTZXkADORmsx1sBaoqhmlJSxiUKUBFhoxmSDhKiXzCG1ZJFPQjXw4RhX1LEJwIQ4L8UCx0fwxIDszAMACwM68V7clBOZAgoU1zJGGhkvFQAQkMXIiSGaQioS/eMAlePq1FTtk7ytGmgQcqFKD8BjW+733vcwtETkvzOZYEte0IklGp6laNWZDIx1wbaVAXStBd2OuA7yFXEAJVI1ZKkH1Frj4FqWhZwqTLCZR2kivkw6GSAHA8WuEk15bMWhpQ63GPexy/liGoiyBxTNI9HAAxEW2toNUEtV0XLfkpbLrdQJIY+3BRYAKKwRKJwk61QnXK3Gwp36LmoQU2wawK0sJSYMzNPKgwIpnWHURJTEEYJeVgp4amHQivCIPmB5kxEUANfotDohxcLpwZhlPxalQU9KlNMJPEzM3gVzmPeILhE1cKuOQU7EL5eMjylCxtYozF8/2LL7j1BmsC13PLG63/oyJWW6iZFG2kEBf32hAgdIEZhcyBiCrISk/IHDd14Ctg8wsLNlTjNUKGwDX02aW0KRKH3yOajjKoBE23UV4wGiyyjF2hMMvGsoRuw5w8xA46ayOImEsNThFiR+/uRVPbUYCZxpFjpPGL1ASUk3a7hW6CptveSX0X/sN2ybo0ehwTy46c4FbSNngjVE+W7MSMPTMYRgMZcoY81hrx5kJ47A9be4wqDBr3jBsVpkOzGU+oBZXKD1RliHAzxZthvKZA0DM58nHSMj5KAom+ybwtFwf1wkbjUjCQ4iql3sNfl+XLcE0yKV4BWyCThsiItKJYHniHRsogPdGX+Agq8prSqzp7h3Bt+hqdEocSJBn7zyecq6X5KJm/bUfxaeEE6UE2gbfABvAwKcxu8ohQLQ1ohIaqHU5XaWRmCsr4WDI7a8nPp10XPlXkJ8f0zWhDURW04dI3c4HYiO5aypePksmkYFMuVCAkOjSdkvIaZyiirt8pCAPl4PhxvxDrs8CjtZYwCBtLxhK2MPkVFYNPLgR7zFarpWRdVLw6AZMozZ0y3+kVBgYZRo/ncidQy6/96TGCZ6sNbnbu4muMWrngj5fdeoObZnNLImROG+bEnFl4nSFzIB0wJlIB5hcORakP8Gh2EliVySal6UcKcKNRteTjy51RXhCT21s0FBo6lkrexJGq6ULscMKYXd2VEURG3fCqqLANscNdQ31mp/MMOBRgRFr2cEf4bWN1tL1T2OEKliqvAhsi7FTt8JJhvgxnKLJo+U8W9bG4lxYzzAisk6YGNl4vkQIwAkICnsObzLhUlwSitNKnKLCLG6sPy7agknkxQGKeoDWbhJZlw3/NCaaRKj5KNAsV0MhaYgzJiZBLEqNwHrXKX6aMUcuJeLUq0mpHBenRF2vPkJVn5fANdvZehmkBoSXKcIcxfiFmtMZbmtdgTGvA1naU+ZGIX1MWDE554nk+g/S05MpDPqOIUC0NGFQZEaqNYaNAZ60Sde26UAt+AmP5yxBP1hGZGDE5lwXaBAqhOdH3+W/ja0v58plczEFGkkXBzyyBHpAonpCbc4pNRxhgpiUzPTVOsUtI2gEGhPL33HNP68gr3w/hh8sRn/LpZFV4MztkyInUpxuxMaKF/A0kIzktaAoPoUjR0rLA2MQYwfOKe+973h/+/vmf/eq4sy/Ye5vdN157/bJFipvgLgYQgcfZEFRCaCVdabvYBC2Aes4fzcUUO7ouVFt1bPBsJ9Dkl/zMMCd0Ve3QREhyngfGDbM6ZHtZkb+C24TazpIASVIP0x46eN7YttokSEgRijnnpo7cK8bIcA3KOFYbKkCEnYBi3RFXAMB01NKdKtgKrhRmUyjdGWKnGjJ9Ci+2HcLQhgfFnH+jGQXYMdho0y94yvz8CjYIBDCdMUZNH6E98ThR5Dl/tKli9gXz7E59WWk0dJ+q3rWMjYKftwrpl0Rv/chURZkMakJaQ04ETYBbnjQFKswQY6yliD2sLghpbfaitAa9aBHyo1k0YIWYEa+Rk78SFahyqFHIPcpoCplpn7lJdgbGIj6KiUAe9r2Y9gCmeZH0hm+1Q4VTpDFT2slHO9LxmwmvcV4cwFGX9EU2CnDC8GCQdromzwK3SSr4CIWReCYIjVH5qncte8AWQXq0AP6wehW2LhBPS/M5loSw7Sg/gVwXXm2BpOUaPMjClA/y/G1XaJKQibMWoNq8xzCzizIhXT16b8lVOxYjAkau1k5EhMq+WjJraUAvWrbq6Yg4CQYHXdG1Nsl7ek9bK2k1SrbrIprN3yiG2MLGjVe/cjpv3QeqFUCiSNrAGRNGah5byo+pwetotMJwsJjRLc0PjbERM+a0YtMRBlrCCqwLeGZXASngDyCTMGRKxycCBoujzJkUEgvpom0LU4GKV1M07djJtBPMeNVmNKudnEcTAVH0S/4Y9K9Y9DLJ70SRC/7w1z9vuOb1EUp62qWSUxYwLNvOOCbUyGFtMCOillczRFOGglHtELOmKrj8qDKZT/aS4UQUUyAySTgbGLwovHaJcW5AhlHZKXnOF4cdY1vhijElgTsaBLZVxq7I7tpEO2TVQRUCg5VadtpW78xhBZtmApUiY8lliB2gQq9xZa2yLyd2qlgd0/VOkdF+SB0JXbCBYjomwYyxO9EEe8G7tUAUwZJDqAl2myhBNaFCuzNYk9bb8qwoIHly+nhL4DxmvGytrTsqh6HGM4wqaKl0HRI6SkKsSSShs2KSCqICLfkXEjEKTNF7RfPlWKLNzo4SnskT/eRKI1mKEaGmwJuBl7VKWk2ctOsiP0mgdjKAE2xyyziqo3POQHRidegXKbaUX3ZUpbG4SXocSxgYAhES7p+qi7GvODOwk0GhjZJXq45t2hdo2zFegwV/zxBI007hHa1NJHjajqfLoZXTnZd0yJwQPKHuTQfnUq/FzF8IIXbmBA9MHyLECS4MffIGOaNprz2EO3lTk5cEJBWSgLGYeVHwlMnrrsgll2lydf+PN5irYEWewSUx9gUkeMhJqtyMLLIpMEJu03x7RPEUbc5/FQoFq6tSpecfjNn3yCKhUvXYLqO6oONPUWtUaxPmz0Z/nLCL5bLYskuuIE+/yHI5NUtrUP2CZ14DL3JHLGmpA8uMx6WF6zns12KIM1dz2OZSaSrcmFN0Pf9SB5ActtN5LaYY4PJUZdkl10HqLBU6HHO4YKnANGGnjCeHqeKxXcZnOmHF2RTjL+YGjRZYJGXa/t7kLXPL2pwsy/M1a7zM6U/TzbmwHKnsL9b51dFzlwCqTywMyGQvVvmzfAWhHZFZNqJ6izH454OevGUYdqIvp2zyikrayMkL6llRDozla08CEpj7PQXaT8sHpXXibXJKm3yKnUxrSbrFqkUXHCN/xxJ85xCqlvGfsh2+x0m4wYyWPFQkzCpWAEz+akcKtJOXX0Ill2HBY3adw+GU9zgu4qhMHjJeQsjSrON5uUnu/I9bk9GXM12OQrX9jgoB5+hhFSHKOQLn6NoWOnOc3XT0wAlIMDiUwl2g2Ki+2hbsojvXW+UzjeGzza+KzejVanQiK899TFJ31ChajDmz4IjqJG0qo7BDbo5+2TryZwajllmbsHpn3C0zCGPumoxqJMeCPlu5NapW5C8flNaJt7GUlnibfIrxUwdc+1Hqq6OY1q+oASZOwkOu9NfqHEJVBSElGaB5h8HmPBbfnIdcc6y/M7xhNbQl9Dpe8Fx+1ZUnnX/mDy4+fxIIHPOwK+vAdOp3NBF3+kIdcHch1Xxs2oGNzshCjug5ZFIe+R3VNa8ISvI4pOjSaOKRuqEFB5+iol7oucDwi86ovQmehNeUWKAKUCnpjjxGdSeb2RYMLK/OLGL6EhRSg3Wc3ygUdk4vbr0A3oyGTmGwsKFudAcen+KyhRbofQCLK0deXUqIE+cugikDqnJJaFYXtJ4YlAVp+91JU9XtA7mfVPXlqI+uS82oE6vOpJosvXv6o64Zb2r3DonQLuXAmyEALFrwyw6LsAWR41i5i9OOt7kfA4GsUthTxteQ0zBDeLhIFOpqNYoK5gpjIpFY4ZoaRUWJMV3jZQAjKpxxdwIbGg3HdGQYOqiAc/wrIPdb9R75zsrTeKQB44ysE6XILz75LYdfjsWZ7Agdpgy6StJCbBiWg/JuAqXJDr3a6ae0frxNSGlj8QbasZQ2U7xps6U0mejBaXjjKvGWUzwWb5Y/Mou1qXA+gcx8JQ9MuuPdzqxLeLbccsuSApW0oi0oFbNWJHLqy3xLLFZ3ZtKQ6IJWHxs9M5OW6B/IzPljX3PJK1Yt2M6poeYitrgkN8uQayUY+FjCOW+JMYLnzAvPfdgxB7/7jI/sf/I79j/pXRVYlgpZQt0OloTbYr5mkY5gpSnsuL3z3da/iwUWWJxhl6+8mw22fNqQU+4iOAdFbLg3Y20TPyjb+uw3D/mOeF3CO9+GFAMDy8CE0Xad0yWf3PNALlp2BB6hZIgzFOkVhCbY2XwJcAIJl3ehBFdCrwGMsbhG4KIPJoL7y3dqSy26j9H55Ei0JYSfGr6+EGIVQ8wVP6DSuVwW0ZEhi30i4WYAwiXSYADMcgDggLg7mC5Uolo5zB3XVnBSW/cOWzvLX/YlH01bPKCKGGIVVrXgIXLwzeB3CNEtHFyGLInZBDmt0JV7I2IGeSVCzIixuARgXiwe0+20t/VgyjSorhxrxtVI45Xj11gk3AGi55KprmfBDFYbUdfUdVcDivRlBstRtDBXGDMp+tJ4JxWVGHNEmEEs/EHcDyV7bnzjG5ehvdz0MkzT5z4HWtJm27tMJmnG3TIc21esbfgP1lMNvxwLlYJ2YqWgIpd+MhQe3UIOUKHRlIXl6kCjuv2U1oO3ySltLN4MuZ/SpsBbS2lG7fii66IoHD5LvMUUT4g3q6AMPAh4TyAz0p2/FSZRuLuGVp+u43pi1CqnXg6QCDnhoJyIq1TkKUKutQu2nZoE3oJFNi6o4J9o1ainCLmGGq1BDx1lViHXEqwZJsYcLnjdNz7ykNveeo1VF/11pi+fd8G5f/jdlhteG7yAFululKuw1jPGjSfaDYZ0W+JYsFhbwh/RGgQ4wIUtPP4W97kwIOcXfVXXtp6DAJidurQMfNDVJC1gfI6luddJFCsQMV24Rwj5uA2XY0Sj7lR6xRZJHRSDICxs9CfogK65VnB2BdzMUFdht7fokviLuvQdYR4oQb4iIKY6sYTX47CuFhOfpB2NmChCjoaAzalLHhA2VFSChAmCRvE1mXoxdjwaQago3+Vt7MMJcgWMi0Qh57BmHEphB76ZLIQf7m8By8kHJ1KLmNQIxuR+O2YNJ7h2lAn/FUYMOcalcfBnX7gYGSbH7FgwpGyFVY0YC0RhUjiLV2MkIWDMMPHfWP8ELW5opliKbk3S2WED48DE0T2RZtTkn2UgQX5ojU8JbAIsEsbmgg4bATyMAtPH7k0BdcS9K8SgX8vGZUMWqqPMCAB6YxRoo4V5FMYqKnKFqMXY4YcfDttokvDDL7AVswzJCADtsV2C6owCcQqy0PYOpWaBOI9wPuQNWeXyoOPXtBADqYZvsnJGYtYMUGEVkZMlQwuWD3giH80ETUIXuRjleyhtFN5mRGmT4K2H0szRFHhrKY1KijBQI5UONygpeUZ4E6EqVLeoFb+JzDKzTFeY1DuNhC9O5Av6UJQsp543AnOwzIWcQAB5xTtKcvAgEmTMgqF8IzDUVdKSYvQ2BCAeSkQ2kVMtWIuumhqFFQOSMHqwRGxgJnIg08KUSfi5Ckr/q1huJRRVicddwAQDSVuSyFKsevwED4zuriu7RP4fY/H8+aorQ+rofP011vjTVVckFCEzcVJDNXnyaawmDLfNyFQmZmystjKykD3YyWO16ZGwQVge7BuXJAwwQRKFXwUYpAI3VABseiQY4xE/DQ+lpWKFcWMZO0AorGbMQiN4k0bo4GiISaEp0otJHjciMWhuAeyJueP4P0tFO3EPACSTxxCLsAggKd07AW2cZwMV6a5Ny5LU8QnH90vlQXCul+ua24feHcZZ1EXTFKiImoW/m4sWq0paVMR8zhTStwzMZk/UNRewiGr2ItKMvrQgAc4YAvItw9OFq8ESUsb+Cu5MSayirskkgYiEMBqiWb+dMPdgrKSiFmOYBQqhcxC3ZKdRhKkU3ekLIQWGEYzZ7+ydekhAhqeU9CWeQ5OQiRNpqhp+jiUT9BWiyCsVLUPh6ZrUkUmehRMyy/dQ2ii8xeyjVY1QaOgcElPjrZ/SpsAbYFpKs8qC0yGVUBMTA5GYEG/03VF8tmqwfK0wSXKbWavbTFlHUbKceqoztUy0UA5bmm6QTTY4Rci1dsFGayVJRw56Q9tYHLVpgYRcy4HPNDFG8Dz0dvf65q8WeSpF5b3kL1dut+kigo5nrmK1ladm27hV1rmJ6YzVdh0gi/7HfIWvoJjTdinjDAj0bb3l36/svNZDWoRTmHq+9dZbK4yHss+4U8Igo3pomb7jwf3jCiR1BqNnKLieYsEwtri/yFdg0Np4zwTsKReA1WuMRBrnjDIZQ6wc+KIxjHjghBqFieNKdBOljIUdM3kMsRarGiljiGHK5NDYqGtMBN55/YaxopFqCNAVShxGzFUFdcqE+OmMukbSEzkGJbZuMHTlPTDWCXPVXRSO3/JTizG3r403vPaEOiJBKlGRWcZqoWeAk/CLmFedvZNbLGMWgGKhdlCNGTHUDmihdVXDj/aNJeGkylBZCGkDV4vt61NLmcxlarJPoyitB2/wMCNK68dbP6VNgbdOSiMdyWxoMXDCcmq8UTRFRUlsRyKRWeXHa4tJagQKt8DZo3YE6Z1KllMvWhXXFqnDNpJGOdkyWmIJUWtQBdqY21h82YspWzgh1xKqmSbGuNqetv0ef7/m6pMuOOsW693kyD33rlrnJPHIjDAB+JEdERoEBl3GamNtYCs4spJ0BEHV+IiyqSB9ZrsEk4KflxfCVz4fCrsEFcMvH0hW6UxgczQjtq3yHLu0SM69PG4QvVBPIhEtAFh4LnRPycXKI5OxyTRGWF7/fzv3uuMoDINh+P7vep9dS1Em0JShHIr248cohRycF8d2DINolB9Sgf6RqgJJQb0J2qhWfUrAZNf/J0k0yddxSLYCepDSMXcfahPT2aA4JAxdEv7T3ZKkl6eV2yVYTIQRr+GYvNp1eSxkW22mZs2q8ouEaWMxjtybVnKVorYlVf07xHT1DTE5PbMW6+nEeftUgRsjay5MKidaX11jsj3CNffKNVXl9lcBK7ksuBgsDdEWs1v5PLpuZdt0pWB/bMdgXr7K46SIgZ1llAVxTG2bxVITtO2H68t1qbRoSUw8wbfJZROeDCw+PdTcxCkMKyOGrV27O06GJbHqWTjCssgvVVZNDw5ujP7bgw7Td6nN5V/FvxtWb0NYMpaDFJ/pi1rqUv2tWciZ2JZBPdG0CbcdmvaKG6nmmvZbbtzzUtOk19z9siRMvEF7bphs5GZfomHPU7nBHM7Xz6UGWvtuiq2/1Iv1a30Nt575ojwOLscqtpZ5Tb2pJrKke5SqOvecRrhjDzdosnUnM1RhR93xYcFW816l64whqsDCSDhZWcwCN1nZe+hUoGAeaeNQJpdyMlxOKrBR+qxu9dPEsMwldX1yTXRY/V/w9+BP5sg/CszdTpaF3XEbnBFd2oXUZPw89lttq4wYaOEP1o3yarU66e0sAldGaLWaLByxywuuVuhPelinKwdfVSE/FWn/NqsrStPXf1s2F5ZO9CR2psoedNWrXBqSXG+sauukjWWbaEvef/iAcdcDwVrltwUR3PDVNbabmgrtJ237OXpyY1nKfE7qWyH8AV+1JLZDZgO9IoaJp2syGNSy5FFToF1M6K1ND8fTRN03ej99XbU70roVZStTuXZmX2HCTYeDGFuGeMVN24mmHcVNQCD0oQYl6g5uIhjJBjnMLZPt6yxJWjtWlqOvtlq2pprMqxXq5KBLUujMY3Mk6iwX7KS34RIDS4ebtIPJVZm/X/3kWolh6C1TGAZ9+5Mbnnzy6mDHM5dGrkOAefa32uYyPPGq1xzsI0VYkoc2N81uXjwXbzHw5ULCLe68ZKPT3ie0lWk5z2tk/hJi10z2wFGey03qUs623q48EEi62k3gixyPkIqPbeH/7in9hw3tBtC72HwPnIXqO+J0vme7oxpG/OTnNxD7RP672j6UGzVD7BZNu+tOffm4c8fz4xmPN6zsOtuW7fCJCdXjdfZRrazdvrZHtdrhdQx9ly34BmJHkb+yn4dyu0vNrrw1DxrLk455Vv9Hqs3EvGUks98nHx8024gaAiEQAiFwLwG7T4d3gydijI5nUjWXQiAEQiAEQuBzAm/+j+fzAdJDCIRACIRACPQE4nh6GimHQAiEQAicTiCO53TEGSAEQiAEQqAnEMfT00g5BEIgBELgdAJxPKcjzgAhEAIhEAI9gTienkbKIRACIRACpxOI4zkdcQYIgRAIgRDoCcTx9DRSDoEQCIEQOJ3AH4j2hzpzFxKmAAAAAElFTkSuQmCC;" vertex="1" parent="1">
                    <mxGeometry x="150" y="620" width="552" height="141" as="geometry"/>
                </mxCell>
                <mxCell id="7" style="edgeStyle=none;html=1;exitX=0.5;exitY=1;exitDx=0;exitDy=0;" edge="1" parent="1" source="5" target="3">
                    <mxGeometry relative="1" as="geometry"/>
                </mxCell>
                <mxCell id="8" style="edgeStyle=none;html=1;exitX=0.5;exitY=1;exitDx=0;exitDy=0;" edge="1" parent="1" source="5" target="6">
                    <mxGeometry relative="1" as="geometry"/>
                </mxCell>
                <mxCell id="9" style="edgeStyle=none;html=1;exitX=0.5;exitY=1;exitDx=0;exitDy=0;entryX=0.5;entryY=0;entryDx=0;entryDy=0;" edge="1" parent="1" source="5" target="4">
                    <mxGeometry relative="1" as="geometry"/>
                </mxCell>
                <mxCell id="5" value="" style="shape=image;verticalLabelPosition=bottom;labelBackgroundColor=default;verticalAlign=top;aspect=fixed;imageAspect=0;image=data:image/png,iVBORw0KGgoAAAANSUhEUgAAAHsAAABFCAIAAADl1Q71AAAAAXNSR0IArs4c6QAAAERlWElmTU0AKgAAAAgAAYdpAAQAAAABAAAAGgAAAAAAA6ABAAMAAAABAAEAAKACAAQAAAABAAAAe6ADAAQAAAABAAAARQAAAAACyXJdAAAJI0lEQVR4Ae2ceUxX2RXHi2wqKiOLUMV9icalaqyICqh1ZNS6gB0kGocJ1dSqA3WZpHVFJq5Vq4JLoyFgFWNIa1qr1hkH0cxQBHXcCqi4U5RVIUVAUfshN3P7/K3vZ+nrjNzfHy/nnfs95773feedc+79/fJzev369Q/Ux0AGWhg4l5qqkQHFuNFxoBhXjBvNgNHzqRg3mnEXaxOWl5ffvHnT2qjSSwb69Onj4+MjT+0KTha7w/3791dWVg4dOtSuvQJcunTJy8tr7ty5OqmwEONEN3TPnz9fp4tmDhs+fPjevXshTWekW8jjJBMV3Q6FEXTpz8AWGHdoMgV2lAELWUWnC/LXrVu3KioqwHt7e/fu3Vu9GXqoc5jxe/fupR5IPXbsmG/HDgE9O3t4ejBNTeGVlLTUsuLSKVOmfBz9cdeuXfXM3TwxjjG+Z8+epKSk9yPDPk1a7u3nbUJZRUnF3//21aRJkxYuXLhgwQKTUXUqGHCA8UWxn5RVl69O/syca+EL/U+jpwV9MPpPe9LzCvKTdiYqls0Z0Fs5obve+fm8+PnW6JauAQADjIlUKkEyoIvx3bt3E90z42ZJM7sCYEzIQnaRzQ1gP6vcv39/165dJBMTajL/knH+THbBN/nVT6q8OngvSoj7UdBgLSbilx8mxKyaOHFit27dtHrkBw8eXLt2rbS0tHPnziNGjGjTpo0JwLDTGzdusGL09fVlRq38v7sA+zGekppCqdQmk4YXDatifpO4antORjZ0c3GVpRV38gtNrhITDGlstPr6+vrVq1cPHDhw1qxZ69atmzFjxuDBgzMzM7UYR2U61E2bNj169MhRQ/DTp08/dOiQMNTKb+FKp4l9xmkEKYZad18e/SLv4j/QhEwe8/tTycln/vDJZ79ydXPTYoSMIeZa/dq1a3fs2JGcnPzkyZPCwsLr168PGjRo2rRpd+/e1cIckllhr1+/vqSkxCGr/xfYDuMsc+i7TQL8j/vTuVzfH3Ygk/j4+3h6eY6ZOi4scqL5PWCIOU7E0MOHD0lQixcvJrRbtGicmqyyffv28PBwyXhdXd3KlSv79evXq1evmJiY4uJiaUuCOn36dEREBEORkZFiqKioaN68eWDoRzMyMhA4RkVFnTp1KiQkRGhQpqamjhw5slOnTpMnT87NzRU+bR+xBcxcc+bMITIkODo6mtdiyZIlLD6kUr9gh3FWlSxztO7+ebeooqQcTeiUsc4uznLI1c1VyloBc5wITV5eHgLEaQFdunRJSUkZN26cUMbGxiYmJi5dupS34eLFi9zV8+fPGaqtrc3KyuJRDRgwALohdPny5ejbtm0rHE6YMIHnh6asrOzkyZNgSND+/v5oDhw4gFsAO3fudHd3Hz9+/J07d9Db+Jw9e5Y4ICxWrFjx9OnTUaNG3b59W+BzcnJ4ukeOHAkNDbXhwdqQncpJihSrSmlfV1snZP+Axpux+8Fc7ASAFFHZsWNHa1YQwZ1s3bpVbH4S6WPHjoVcGU3x8fG8IsL8+PHjCJ6enkT9xo0bycLsNEjPkEswitOEhARGseWUBRphu2/fvg0bNkiwuUCa6t+/v0iJvDGYcGHiGQPmFnhxW7VqZW5oV2OHcXN7GdfurVqaj9rWiJaAaLUGo1tgKCgoSAAosAgyuJDJDGKIjQTSt5AtHolQoadgEPXBwcHiFJoCAwPFRBYNUb58+TI7OxvG16xZI620JrxAb0c33uxkFbaoaqpqtFfm49/YSPGpqnwqBNtHzHEiMN27d0coKCjQmrAXT5xu27YNZVVVY+fj5+cnAK9evdIikeV9Ojk5mQyZnLZr105oTHyifPHihQnY5JRagsbFxeVf336o7aNH/6d9aN++vYmJ/lM7jPOeFt1+qHVHnXR2bkzft67d1OqtyZjLl71nz56EOe97Q0ODxB8+fBiZRMkxICCA44ULF8Rofn4+gnhOQvMWR5HEZLVk6nPnznElNlx5eHiwROjRowf5TXz69u1LvbFhon/IDuNswLIjyBaV9EhwBf5kBKc5Z7LLHpUKPV/dUVElRgoYYi53cVu2bAnd3DxvJaXp6tWrdIokR9I0bzpWw4YNgyCUNNdk/82bN3PnVDzp0KJAMUR/+fLlZ8+emQPc3Nyot2lpaVeuXAGAczCsBsyRWg2F5OjRowcPHqS/otlftmyZdvS/ke3ncehgR5AtKjnNh7+Iyvr869qa2k+jFv94TOB73u9lffH1+PD3w7v/TGKEgKEsekJD4YJ0WJ46darQUPdZEwmZR0LfMnv2bGIKDXSnp6fLTCIw4qjNKuR0Fq5xcXEgZ86cqYUJmaUWHR7NojjdsmXLkCFDJEzrSspQTP1gE1TA6J3CwsIsmkilTsHCN8s0YcQCX98JF2yI05aabBnmZub87tdb6r/tW0DOjv0o4udvME6As8o/ceKE+XY5mRS3tH283bBscq3oaShdXV15r0mmJqPWTqmQ5G6R8cwxlAS2Fqqrq0lxFh+huQkamqvHjx+T1mwnbvrF1q1by6pu0ZVU2mccKBtSmefPsSMozRBKi0tzz5zP/yaPTtwvwH/0B8EBPd7o3PfF7w0dHkwIa63eSbnpGYcmsVurf/vwyI4095duzWSL3CHG7VROGZJwB4OErbaKylGtAABY86Fbe+96ZL2M4wvSyRKk5r+m/tki7ygZAjAmMKSZRLceik0weuuSMCMpU0XZv/3tovVvfLNcVUPfLb5ZZvFtviFuMmtzPtVVOS0SpH49IWlxKI87FuNyDgTWNXJpo9Ur2TYDDuRx247UqE4GFOM6iWoymNWsQm5qskmUIw0DKsY1ZBgiWo1xua9iyGV8vydxKB+oGDf6YSvGFeNGM2D0fCrGFeNGM2D0fFZ7FYfqr9FX/X2eT2UVo5+e1RhX/bj+R+FQPlAxrp/YpkEqxpuGR/1eFOP6uWoapGK8aXjU78UC4/x9hfyNvX5HzRkJXZCmkwELvQr/ocBv3fk/BfWlmh4SoRu6dP7xBA4tfLMspuHX2fr/T0HPlb2rmKb5R5t3lZ3vwn1ZyOPfhct6h69BMW70w1WMK8aNZsDo+VSMK8aNZsDo+VSMK8aNZsDo+VSMK8aNZsDo+VSMK8aNZsDo+f4NHHyUcVpVPBMAAAAASUVORK5CYII=;" vertex="1" parent="1">
                    <mxGeometry x="540" y="160" width="123" height="69" as="geometry"/>
                </mxCell>
                <mxCell id="6" value="" style="shape=image;verticalLabelPosition=bottom;labelBackgroundColor=default;verticalAlign=top;aspect=fixed;imageAspect=0;image=data:image/png,iVBORw0KGgoAAAANSUhEUgAAAigAAACXCAIAAACwbDdbAAAAAXNSR0IArs4c6QAAAERlWElmTU0AKgAAAAgAAYdpAAQAAAABAAAAGgAAAAAAA6ABAAMAAAABAAEAAKACAAQAAAABAAACKKADAAQAAAABAAAAlwAAAADtpZLqAABAAElEQVR4Ae3dd6BtRXUwcLGLSBFQEBDFCooiigWNRozYS8TEkqhgJZ9iUGPBlhh7r0QSe4+iYhcBRSyosSAoJApiQYqAoKgUC3y/x8LlvLXP2ffc8t677705f9w7e/bUNTOrzVprb3DJJZdcrv86BDoEOgQ6BDoEVhcELr+6Our9dAh0CHQIdAh0CKyAQCc8fR90CHQIdAh0CKxWCHTCs1rB3TvrEOgQ6BDoELhiAcHb3/723//+9yWzP3YIdAh0CHQIdAjMCAGmA7vssssd7nCHaeVXIjyozoMf/OBpRXt+h0CHQIdAh0CHwCwQ+PjHPz5CeFZStXVZZxaA9jIdAh0CHQIdAuMQ2G677c4666xpZVaSeKYV6vkdAssWAueff/6RRx55wg/+98ILL9h6q613u/Vut7zlLZftaPvAOgQ6BEBgJYmnQ6RDYO2CwMte9fL9nv7k43/5g21ud92d7nGLS7a+wgc/d/Bj9n3MV7/61bVrIn20HQLrFQS6xLNeLfe6M9nf/e53//wv+9/ibrd62IMfkbPaZPNNr7/jDh4PfuuHT/zRiXs/cu981RMdAh0CywcCXeJZPmvRRzIPCDztmU/7q7/7651uc7OJde772Ace96PvH3HEERPf9swOgQ6BNQuBTnjWLPx77wuBwMEfPnjbnbffZodtVf7jH/74rle//Qn3fMxet7z/c/c5IJu79z73e9/B78/HNvH617/+tNNOi5xPfvKTX/va19q3s6S//OUvP/7xj997770/9rGPzWiS4y7qF7/4xXjjp59++jvf+U5l3vWud+UIx6v0tx0CayMEOuFZG1dtfR/zoUccevt77B5QeP+b3vuJd39st7vc9mmvfMa1t7l2C5ob7nqjww8/vM2JNGJz7rnnRvpb3/rWD3/4w2GZkZzvfve7qM4ee+zx9Kc/HeF5y1veMlI4Xx199NGvec1r8nFi4pxzzvn85z/v1Re+8IUc4cSSPbNDYK2GQCc8a/XyrY+DP++8866y0VVz5ocd/Nmdb3fLxx7whN33vNN+L9o/8yV23O1mR331S23OSBqJus997vOgBz3oK1/5imKnnnrqU57ylFvf+tYvfvGLL7744h/96EePetSj7nrXux5//PEcFJ70pCc99KEPvdnNbvba1752m222Uf7Xv/7185//fOVRo9/85jdytPbYxz529913/8hHPuLxZS97mQTy4+//+3//73a3u51MNO/Rj3609Bvf+EaPw9+HPvShe1z606+3bd1h4Z7TIbC2QKATnrVlpfo4L4MAfdQ1t9o8Hs4799cX/O6C6934+hOhs/E1Nzn77KmeBKUKcQTl+M///E8CjVeve93r7na3u33xi1/85je/iVpceOGFbowOOuggxOYzn/nMXe5yl6i+2WabPfCBD5Q+5JBDNtxww69//ev+fuITn5CDgO2///6o1DOf+UyPz3rWs/baay906Fe/+tWPf/zjT3/60zJRo0c+8pFo3mGHHXbyySfLaX9m+l//9V+Eqn+59OdVW7ct2dMdAmsXBDrhWbvWq4/2cpe//OUvvvjP3/LYYAMQueSSi6fBZYMNJuzwa17zmhdccEFUkdh0002lkQcizsMe9rAddtjBI0IikMc+++xD/XXmmWfKQWxucpObSKhOHpLwU/1tb3ubBMpx73vf+0pXutKee+75pS99Sc6WW25585vf3N8V5Vb+3f/+999iiy0IUkpqduONN77zne+MvK1caoXCTUePeMQjkENWfPE26paS/bFDYO2CwIRjuXZNoI92fYPA9ttvf+bPzohZb7zpxlfd8Kqn/eQyMlBAcdZpZ2277QoDhPLbaaedXPP86U9/gtaPOuqoG9/4xgqQbHj/QPFPfvKTPd72trd90Yte9OEPf/iJT3wiKUfOFa5whWjn7ne/+3ve8x7Cxx/+8Ic3vOENP/vZz+SjMSeeeKIEgSnUaFF44t8rXnGFGwMKeoMb3IARgcBWxxxzzK677loK77zzzpoyhje/+c1///d/H2+jbinZHzsE1i4IdMKzdq1XH+3lrnzlK1/+kssjGwGLO97jr479+neP+tSRx3/re29/+Ur3/Cd8/Xt3u8seQ5A94QlPOPTQQyF6FIg+7aY3vWmUuec973nAAQe4mPHoFmffffe9173u9cEPfvC6173uBkSny192WJCirbfe+ja3uc0tbnELQokLG+Vd+VCLuddhI+evHNJPNBt/0UsqOG81lflPfepT/+7v/k6/3u64447ZS5TR/tWudjVjIA8poFZbNxvpiQ6BtQ4CG7RfIKXCfvjDH77WzaEPeH2DgKuXw75xxB4PubuJn33G2a986ktPOn6FtLHVdlsd+Kn/CmhceP6FH3vjh9/65pVIUQuoM844Y5NNNoHZM5M6y3HYaKONIgdtYwB9netcJwu0Cbc+v/3tb2nM2kx6OYq4NqdNX3TRReSVlJzi1R//+Ef6umtc4xptyTatzatc5SpXv/rV28ye7hBY5hD4zne+Q1UwUdVs5D1ywTJfvj68CRD467/+68O+cPhxR3/3FrvvssVWW7z8/a/+xc/POPuMsza55orbmvgdcuDBT3ni/n9+mvB/q622KrkFuaMQ06iOile99FdaGKE6SqIfpbxHpGiE6igw3uawwZ7TIbD8IdBVbct/jfoIJ0DgJf/+4jO+f+pXPn5UvLv2tlvd7DY7b7vDdh7P+Nnp73/5ux/1kEe6d5lQs2d1CHQIrGkIdIlnTa9A73+hEHjFS17h1uT9L3v35ttsseX217rSVa78m1+e99Pjf3zNjTd76b+95NrXXsmZdKGd9HodAh0CSw+BTniWHqa9xdUGAbbFftxiTjrppPMvuGCrW197l8fsMlGjtdqG1DvqEOgQmBMCnfDMCaJeYLlD4PqX/pb7KPv4OgQ6BP4MgUp4eCf8+VX/3yHQIdAh0CHQIbAQCLD5HKlWCc98AyaONN1fdQh0CHQIdAisnxBIT7uJ06+Eh8P2xHI9s0OgQ6BDoEOgQ2BGCPDjGSnZzalHgNNfdQh0CHQIdAgsPQQ64Vl6mPYWOwQ6BDoEOgRGIFBVbeOKuZGG+qsOgQ6BDoEOgQ6BgIDg6yOgqITnf/7nfzIA+0i1/qpDoEOgQ6BDoENgGgRKTMJSrBKeO9zhDqVEf+wQ6BDoEOgQ6BCYFwS6ccG8wNULdwh0CHQIdAisWgh044JVC9/eeodAh0CHQIdAgUAnPAUg/bFDoEOgQ6BDYNVCoN7xzNjb61//el9OjK+V+Iqwz2HN63Lo/PPPf93rXkcJuNtuuz3oQQ+60Y1uNGe/bCR8Y/h617veSMmvfOUrPuT1V3/1V//+7//+/Oc/f6SkV75z7Prr9re//Xixkbc+kyw2pQK+NekTxQ94wANGCs/46u1vf7vvUW666aa/+c1vFhZf+Rvf+IbPlwmd+ZnPfGbjjTe+053upOvjjz/ex5X/8R//ccZhKLbqZudDOHMu5fg47Z9p8HnZy172rGc9a7x6+/bpT396PG644Yb3u9/9fFe0fbuw9L9d+hsZ5JzNxiLaAL57nYV9ueelL31pPkr4IJ5v+dz61rduM0fSRxxxxOc+9zkFfE3VobMffFRopPwsr770pS9pzTazphDCUn2Ze5bzHsN7y1ve8uAHP3izzTaLx+W5b88666x3v/vdT3va03z37yMf+YizCZX5nLlPpa0bM4W4IMDNN998lj2jzAIlHsTm3HPPjT6+9a1vzTfQjq8L+9Q82uDbw1CkIzrncJXZa6+9xov94Ac/+L//+z9lrPF4Scv/kpe85Ja3vOV4sfG3n/3sZ3feeWe7Z88997SlfE15vPwsb2984xvDgEcfffRrXvOaWcoPy6CFVkQ+SgMgUeDnP/85JDUsPJKz6mY3y1KODMyrEfh84AMfGK/bvsWm+F61FfSDAnwG++yzz24LLCwdlGBkkHM2G4so9im2zB6D3CUe+MAHlorf+973ROYumSOPyntrsnDEYYcd5giMFJ7xFerop/CjHvUoH0udsdacxWbfJIcffnhriLs89y0+Cb0xa4TfCJ/5zGf64Po//dM/oTrrxkzh0he96EVzLmsWmIPw7HfYm+7zoWfvdcgLTjr39KwzLQFX/s3f/M3jH//4n/70p8p885vf9CFtosDHPvYxj89+9rOf8pSn+EC9OKRHHXXUa1/7Wp+Ux2MeeOCB2AEFoIDdd98dFxboEiu63377qY7LQyfe8IY3OI24G+unEfmq+OK9Fu5xj3sEHyen/Z166ql6hAVe/OIXW+Af/ehHzsZd73pX7L+TvMsuu/js8Xvf+94Y3n//939HYnwWbe/6ghQIbT6ISUwhZ8j50Ic+ZDx+evFoCk94whOMIXnVMk3H5j73uQ+0QlxTHivk9GLbdQRz/frXv0aeVQcNe1cB2AfZfuc73wm2J598shzrDQ7f/va35xTyFF7k7MqaLmx2uZSzz87I298IfKLYq171qle+8pXSZcBlU0VhK+gXEnygzvkuYoHq2972Ni1PG2Tuw69//ev2iZ2psGX95S9/WRbxWte6FkWCjeojpBL2/MQNT9Swf/z1CW0TV2zvvfd2yjBhNrwDcq973QsXEpPFaJusg/a3f/u3sWPLMaGHUMvAbMvjjjtOLWzlox/9aM2+8Y1v9IjUPfShD1XAJvR47LHHomf2rYrPfe5z5ZRB5sGn5PjoRz+qwKc//WnjlCi/Foy5SZQpR8a8ArG8613vyhZ0ata+Ry5neCrLNnjHO97hEJkR1A/sqpQxlznGqRwZUs6xnErjAcYcpMQJJ5ywzTbb3PCGN3zYwx5GMHaoR5pdi2YKR8FXKY20U56YHiM8r/vmIX+8+Ox73mDr3ba+xjO+8J8T62cmCL761a+Gux/zmMeE2PHP//zPtpczfMABB4hUan/j5e0tGBb2p56Kunvsscf222+vConh85///D/8wz/Q43mlPMr05S9/WSaS8+QnP9lqPe5xj3OibAt7l6+rlm3KN7/5zUFacjCRsNHxsDh92w5QbAKqhoMOOghviyrc5CY3UQykIiA3JCgx5yyy9+gCdjNN59AgnfDTTz/deADhXy79KWPkyJK3Zq3T4TQBBMGgH/jud7+r/E9+8hPog7KIeAc7HHLIIYAGQ/nro2cKmMt973tfqMFKkzuRZOdfhL0ddtjhIQ95SIxq2t9Fzk6zZU0XNrtcytlnV2Y0Ah8lMfJIMp5jOOCyqaJZk/LDOkBYFFDzXcQhVL///e9redogcx9S8175yldGbGyMiy66iJpifBEnbnhLgGQ+73nPu+51r0uIsZ/tNCfFjvr973/PLQ9rZXZBM4yK7s4jtGuH+iunHBMMuPF//OMf33fffYN4o6CPfOQjcUjaB1gn2sgdQID6wx/+oEe/e9/73rvuuiseaDjIPPgQ/fvf/349YvKGKu4CxtwkwyMDq8DamFdjMAANkiFe+MIXwj+hOSynUgFTbnHRmWeeCfKU7WCOFg7HXOYYp3JkSDnHciphOTTJAPKHhJ944olkWUiDoLbJJpuMNLsWzdQEd9xxR/stZzqeGLvjOf7sH99k803Vv/qVrnTRny5qG8KCwY+RI+FOgq75Gc94BmbK6f3Xf/1XG9RxAlNlIM2Qacj4dobCuLNsDWHYcsstnRY8FBGEzISPjrd3vOMd7Y8b3OAGqMK2226bVWjn3Cphx7zaeuut5et9qHOA13CX8DI21lajBb7LXe4S9AYTp5FsUMIp9QGxWWYRvUddKgtkzPBQAvsJFrAFH/GIR3ib4j/6YcrwGvqBTpRpErqhSCB66lOf2o4n0o46/GX70ubRH6LKQBQqF0yuTm91q1shrhtttJHyqeaOui54cgzwmreLnJ1lGq7papvdEDhyhvCBI6ibn/jEJ7psmLgJ200VbeJmJLCiEgCF+Z3XIv7Hf/xHu/OH4yyDJMHkPsQgf+pTn7KmEipaI79hC5ED+MMNj6JY6Lj7JPejGZCydbcx1ILroTbUNLgrOSQnfZkmpaJD58CWY0LMsqbOKf4G7SGQUQ+Q4TbYYIM73/nOGDjtO9fvec97KCeSfcwxTxxkHHyDcUaoQ5zc4ZVw2ZzZIALTHhnjQWZoPowHeYhiL3/5yzGpkFI8llM5cd9aAjuE2EfgMLAC2PE5liFFpzHH4am033IuEgQs1Bf8QdWRhz0APAqUZte6mZIfYMJ2siPpMYnnfjfc/btnnPOnSy458Zxzt95oy7YVdzPYbZyCIwpebiZgdgvv9AK9tUQnsF1Ym4MPPhhHFuQhLh5vfvObowfgrkEJtyNAjx6EnOTkxH24ty4t204zHe3gGlQ3BpTvjDPOGNodkAOwYFg8aMgCq57OtM6qKnIcsPPOOw/f9LWvfc3j7LOIwZi46dhbth2Uh+jaxHokhMmJMv/7v/8r4d6FKnw4TRIMzgt/GkQ6quRfjTurHslDWs58CdOHsDB3IeggaXjVtgAlMkyEkYSGSEuWbJGzm7imq2d20zb0ED7ut4GU/hbcJg54uKk04me9QIz2ab6LWKDaLkGkNV4WMfchQYF8DPUTlxUeLmLb2sQN/4pXvIIul8SjJD07dZPtx7gGkZAznCw9j/FgzIk7CLMyw2OCLSOWOcuEGC1Aym5k3YfR18mxXdFaQryjHS3MOcg4sJqyV5/0pCeR5kHAtjTfrDsNjOXIaARn7c5SXVMIiQdp184HP/jBaK2cyonbwOwUdqwAZAjY8TmWIUWniZTaU+kV9BIF4q+d6TBe/epXv/vd705IDY48XpVm17qZmgva0052JD0m8dz/Rrf/0yUXH/KDL990ixs9+w4Pa1ux1/HdzgxsC607sd5iQEjo9hPBlqRCfwq4sCFmH37HoUQL2H8039kgoRMRUCksCdz91re+FWujTF5SRRUL4EcmsNWUkY52sEhIGq2dTYx38De7CEbMFseyWWNbgZhCJMq6JP24gacHcyn1vve9T5uqG8mMs4gx5F+Toul2rvRFpQ4sMEK8NQzYkIhGatHFcJrggy0NvUcMw/rZnSBMHgdGLDxGmCbB25bHxJeBVaAY3CstIkqfQzI184qlwWWDFVAscnZlTfW1gNnlUs44O4yFI9rSnhH42HhgRTuEkFPNDwfcbqqEVSSsEXxk+ea1iGXPZJvTBonnzX1o3dEAVewff4eLmK1JDDe8TCfLlScBAieH06fotnNOOeUUC+0kRkd5LtrW9EjLJ6ccE+gDP+c8Orn2qgIOl82jd1QH0sdrsiKD3O3q4PaifbwdyY+CYdqp1BSulHQSGjyjpSFPdqqAMTcJsb4cGTqAEP21EMeBroJWyvki/Zc5xqkcbgNH48gjj7SpMNBDwNoJwzmODKmFcHsqbd3tttuu3boWy86k3rTHwND0STaB2dbqmQI7HhTtbOE/kt4AI5OvYa4Q+TNnPEFocHJAMIvRoRFuEjmCu91vFbNAm8Dj2P0wRWbSiaW8nJmZwN0YbVveKxy9s5c9ZuFIkIfwsE5IyTcwzCZGSUVt4u8WPIvSskezcBJgeWlYjJrCmFsglGkCkTGEuixbI4zjoYI1LuWzjMOD9aOsy5xhAsNlW7dQndcaDRts13TBs2uXcs7ZOZnEYtYo7WBmgU+UbwfctjCenu8iFqhG47MMEiaCqvgAjI8n345veMVcvdhs005EttMm2mOC+Ln2cO9tD/tFMVsIGCHofKS7a7e0fMtkvnGOpg2ShIRPpStTHvmhrAtdSDTrbwvGkU1iPN62ZzZbmJZotwHiR/2IY3PHkzSjjFkXwzmODCn7neVUQn2AmeMfaXZtmSkpGWdMc5NwYGyCF8FPZE6bGJN42nIT0xwySj7OtM0B2QRumx/pVG7mqxY/ZmYmJp6lPAxZrE1A3EOqo4BR4eMI1MQCO68Mcl6zaLuLdDsL6jVjKEe0LaBKkKjSTp55+aV8lETPaNLo9ErF8kipWHIWObsVK/pnVmPBs2uXcs7ZwWhhKdBOZE74ZOF2wJk5Z6Id1SzTLFCN9uccJGkD2zQ71dHs+IZXoKDyOWeqQHtMjNncy7bBA7X9eixbWiOkq9wYbeEcAB3Dc57znNRnULgNh9qCcWSTGIBftjxLot0GZkd8KVMoY9Z+KaCXkSHFGGY8lQX1jTR76UTXgpliJsKmcZa1UGZREs+MffRiHQIdAh0CHQLrFQTGJZ7Jt/frFYD6ZDsEOgQ6BDoEVicE5ifErc6RTeyLFQpHGfp3pjju6CaK225HqS8Izvw52C9ox9W6W83UA2TLbI20lo90vmFclDkjiYhtQ2fteiZUJa5qaMapsIf2dSPtTHvF2pWhLSOlaQXG8939sDtyXcnJjonHRH2jFlwgU21TJWVrWTFzJibckDMk4ZQw8W1kivvCwioLWKz0os3MNlFin7SvMs3okWUKpw3aoczMhBsCM9WRhfDL/GmJJQkhE/GZctcN+1pkfKlhgz2nQ2Bth8DcEs93zjjp7PNXsghcU3PmIsDURDQtxqNuUNMnroyHrWeEh+FqwBeBpRlTpTRubguzO4DIEJv4hcl1W2AkzSKFmjiD9CiJTsCJadM5UneWV4ziFhPRx70Rc3Yd8UoJ6juxU24ZPFjbV1mxzRym3cpqmfHe8FXmsFJF71knM7iSCPejfDtMlNgnwwJy3F4ipYY98S1CiynxKkzFJpZpM5ckhEzEZ8pd17YfaXZTuQTuOVzDDsv0nA6B9QoCY4TntN+ec7+Dn/vGb793n0+/9AMnfLHAhbmFnPjL+5KBCstmf1mIMW5hb+2RJyljkhIqg78OBAHXs4mKSB4uyfmNKo9Hzjaj5bbTN73pTaxFcdkoBENMVrOunRVgOcoO2w9lggqZFLvADI85bmUIFSPLaI3NXngeKABvqut6k6ATP37jxsbGV1N86AhM8JcpmB2xRnwBxQw7EEdE0WiHx0WckT5z0hhVG3XDYLQZ+fAvcWEYuwUdZVsZb0khvE3DB5BXimF7xXhddwhbxC+R6cpdPisa+aQ38ATDCMDFbAZUc3gWJUJ3tKPyNsO6ZMyPrKg8C29wELxHSVMQJ0J3VhbA5aDlQo9kFxLjEV8IqQWGJVxQNGVdMvaJHAY/7i3D/ZtMSUYxwRiAt9YrgIMatVFb3PF6a6UCVsGjDDeeMsTT8RAyBWLDGEsaKbtOjh9oWKAkOZEZf8sBkdnuYY+5HFoAEFZnUZH3pVf2eTz2vx0CaykExgjP6/7nI7fa6hq7brX5njtc533HH97OkMk2M1CWlxEfzEmAkdnFMxeh4WEt5rxBK8QCqhvYiiigeoTKKJE8HCqNsM5izB2aGY9a5oITzonZr1722GMPj3QyL3jBC6Ba+o0S4AQeQTnYV4RjBOypd/7JYeCPkGA/EaEIM6Mp2FmB+KGCxiZID88406HWQwiFooKwoGMKHIIUyqquinANmioRPxhBGWSDpV/EjYBKMrIIMYJFdRschTNEGxCI5CRiEPNulrXgBmOG/43GS7QPBMDPIEGYp4ghcZ5AF7HSjEQBn5xHTQe1GdKfR7fCGidwdzsqOD3DuhgPAY70kxUtwf7770+fFubanByZ/0GCiCKwa5lEZcWzC4nxiC9DGJZwQVpAYzL2CRYBewGGJstvw1syJQjz3mDvG8BvY4rQKEbUFiUJsv6WWC9l4yngZ8uNh5ApEAN28FeRc0YkpNtdpwC/EzwKLsT242+wopuVf+WAlD2sbC6HiZs18m+mMnk7cq8GFoyahbYWKzfcnzoE1g4IjBGeiy7+/RX/7K15ucu8Py+bFRwnfBOVV7g9Ej6gDMfMiYK53HnA+3QsHiFiaB2RgAczVIYcBzIieSAnEKg056PwLNtnn320LPAMxNFCUZUIN+DscQhFAJx8qNCBVJgSBkfclpcWzQnxgJR5gShM4RPBNzPMDGxlkPFzFaSKWBrIp2GbBWLj/kOzcmBzIgXqSHoovXiEnsgxIMB3D92Sg4SgCmYabkYYcxgE2ZOI6nz0UCNu4VCYkho3QYpBhJNfbdzKQL7g4zaLIwvCEBif8KSigRlhGImSpbhnu9WAlDnuwLBlhG5EdDccVVuMBGOomcMAn4t7muEjaZAgCgpiUUaPMZ6sYhuMqCuHMIxwQQCFYkUj9pVGmPNaJgKfOdKqEXGiWUottNkwhP7DMZi1XUebatjg39qkas1bKr5YTWQgtHPtxoseuV6KlMPBkNyD1spEYl3g2YS0dohlWceo5e8QyDJtckTIkiHYGkEeGBmbTvIoEo5GOSAT93AsB3kdebY9rKDYE2bE/wwbR8y1IpYgiV8OrCc6BJY/BMYIzz/d6gHfOO2c4886+6unnHXP69+unQwcR3xxJCJArCt6JxxiDTP8CHBLVuATQEHk7LWhMrQTDtXRoIMakW/oNOi1ZNJmaJlOiVjTdopaCHrvpHGfxq3DPt5ODHDS1pKGLiFomMKtg0SGmfHKSFCX+IUrWSLf9voamoPQ/XXsS+Me4Thj9hb7DEeADOKEmLWRRUpwlOg6m0J0Q4OHMmHnWUbggr2dGO0jvUPaEYr5CEHHcmSzbSJCd5RRtQUAoX0saXAm+YGhFuIVSlwclYmSJWxP28gQhsNwQRn7RDQHEgMSTrlKFrTccDrpmfQDyKYJ+Vq7YfSU7NHbEuvFq3bjRck5Q8gUiNkeIGk8EWMpu4uE9TI89Bj3YJDhsj6ML1UOyMQ9HMthI6Fh+Co6RqcMmQR2Er/oAObiFXJextAfOwSWPwTGcM1NN9/2A/d/3pdPOf76m157py1W8gxFLdy4mF5ICUQQtyaQJrQO7brUoarCL5NF+GkqRtTAzIZA4zHOfyB6J8e5whvSuYXVE6rmFbwTBRKIlG84UDxgSAMYfwUorHRKXKD7iig1lFRawFSqyD/UASa+kHjCaQsDa6hY4GgWZ00DFmkebTQ57diya51SAdGzoTHUYsHp691PGfcxKC40Jw31YKvxsLzP2qgbmm2DoygZdeX70aUgXWYEs8NcMHhIeySbYbSPrJjDkwABUpEEsJsUPiCKxV+MdoTuKKMC84jNE8WiwUgXAQIDztsRbVOGcOAvgBfzBxJDCdsTDcbfiTAs4YLQ1Ix9Atp+pAfcPZwLRPYJsU9rAMV60CqU6CkEo4jaEj2WWC9MCYDaq3ayUdJfgkjshBJChqVcu452VBtjScUAVO46EqEfvgHntMceeyAYw/hS3rYHxNKUPZwjtKyW0rmgEtAX5ozA54oUdzJ0b8y59ESHwDKHwJI5kFI3Q/HOD8UUCQNL6HSlHzKVUYbKmAgRnDKk07LwE4vJpMoj67Cqagu0AU7kw7NG0hbINCyGcR4PM5OF24QZmRr0ZKgaT9TQlilp9IN8lghizuAoYJju05CLm6pAN6aj62yn9JKPdH2GZ2BANG36CpdRKWzh5oQ8oqJx9zqwuTszuBVFdDuSd1E5jJHEEIbmNQwXNGwBgZw2QtPRbMwXW1Dm7i3oJVSHLU/M0V0baalAzIAJIkMID3ed8QSp00uJL1UOiAJlD8fAysQ1aH39Jg67Z3YILB8IrCYHUmc7jiKqY/LYwKQ6rlggKe4OI0DByU7DLKUW+lSojgLU6NFvFB4ihchn7EQ7keE4S8vjj2YE8ypjqDOefAg9qcUswVFa/EjAckEVQzKdbGdkkMAChjDdtOlH3XZUcmak91RSLPFcFEG75EVX6GS7eVEdfQ1haNVKkLqJExzZG8HuRK3h3L1toTqx8WGm7lrPpwIxqz8RwsPMpDq6IHa3BdoDEgMoezgyy8Q1OOPeG06q53QILB8ILJnEs3ym1EfSIdAh0CHQIbBmITAu8Yzd8azZcQ97d4fEqkc+ycPdwEQnQfo9l9hDh/+hi37b/rg/fFtylrTraIzq8BuLs9RVxhwxtq7NwiV+Wi03HC66W3Y+K06rEvmGp/3hl7jaWsw6wnYjMlmOuWloC7Rp1/5uudiPtJlt2lAZpMUVlHy3OOye3X+0ZSJNleROxQ3ijHNRixwWdUmiLk7cJA2bHc+hRSTGuRTMwAfj5fvbDoEOgUVCYMVd69ryo7KjmXHLTTsEzYW3aRk8RTkz05Lpceii35YZ94dvS86Zdh/gBr7cus9Zqy3AhthPTrjEt6/a9NBVPiu2xYZpZsqML4xz+CpzUBr2IMzfI/pAXDXl25JgZzUtlECUdHfF3iHSqBRDjzQzKU3hD5h4yJxxLggGuwNbwo9lAbtHgyltzvmY4Sfcq9k/c5bvBToEOgQWCYE5CM9Xf37CAV9827u/f8Swm8Bc8ZctFgOkVR25wBhYjjGpYjrM0cdtjRyGc7y7ST+86vDLOc7i8J8u+sPy7reLP3zrUc86gA1VtBxhBTjrFJd+pgoojWHoHavO0i+0+ZxL1PVjmuUV3pyBk5J8OaF1+UE7S9ABZugRyiXmwtQqvHTbUbEoYz0YARqMynh4NUXFoX8+xMp5SHcQq7ckA2Movp9sf5M26Bc8iUQujVj6SrhhatdXAfbuDBHZdyEkMU5X6wRNkIxHfxkTazaCCGQmC2lGE8afFduQDb4KyIeJuXACgX0gOcbgCbIaGUZ8kGlL+LEwdjETlKNAvgWd8kzFYjxajoS/GfhAaDWwRQLzVU90CHQILC0ExgjPF35y7Ou++YGrXfGcL5/y5acecVDb8RqJXNAOgMlySDZMt/G5vGdQmpbvLg7/6aI/LD/0h4dV4XpikOAF1Hol6ADNTOvSj/65KEYeFAMWNCa8Wyj9MOPcmJBJP4NH84gONF0sxdEq6qwI5VKCDri398vJZjiAdlSUURmgwcQJKIhKVMQECJ3AOBsEon3GuAQCLlC6Rh60zCjALLILCfYCQNrmtGmTgqMzMgUJxkefTI2TDUqmJOLNzBfngRqRQhDU/fbbD343pNbzCf3mb4/oGnzQuRKygasswzkenTEXNl3i9ACjwBbBWIBhG/EhBmmmfrSvyCQIDyHfgk4VlD4qtqExjDMCH7DZQxTNBZGzAaJk/9sh0CGwhBAYu+P54P8dudt1rnm1K15xs6td9dCTL2Nso29OObhsYkfwsxG5gGqIpTLU4xu0eEZYwOkVYoCY0kYugMVaB3KPEblAyxm5ACtNHURMwTJPnC2GlBbIK37m/E/x+1hdXj5GIjMd/qUx+O4YspFSXr5hM3WlVgp/eAJEeNSrGE5IEXSAEBNBB8KlPxvEiaMrDJ/ARCYNmClLpDu6NLwc5UGGEZcWBC4zyHAwZB5msuxrJwYdMKOYVBlVNOivgRlzPkq04EUG0JgI8+PeKIpxHIkoeVkrgJmPJWEAYgTk+rpY4i5DyLDEfH7ZFpNjTMoIVXSXwzdI2BjiS5hgmWk0yOmSrCN+WkSgAN42ZIMy7cWSR3vD5onPhemUF4vMNuJDNItQSQgFK8Gcegj5iaADmahe/rLGVN6aRjAObgARbagU648dAh0CC4bAmMSz/cbXPu23K4JBXXy5S66wwUokCqJEWjCSQRjwpKshckFOEtuua64kcmBwGidOlxBEBFaRCZVjnI0QQqSBaT90WMrjbYs/vOpkCMIBiQcD7nEYdEBm/nRKO+QRSy76AH/YwKqQMgJgYLh1AkeUJxVFAkZOxSAcNxJ0gDIz1D5lVDmAYYLtQGbqiAR22mmnufxIDR4KnVFqoiTiAWVnrZIo66s621+InuyCuiiMJHOQ4qikHdNhPQ93I07pnBsNWhFQBRO00EUdu5cSsqH0ixxGVAsrDqrkPAXa2UV5PrN+gEyS438zhHwBndZAlaAZ8l/p1LoQnQm1FsUsSHWlQH/sEOgQWCQEViInpa1n7/6wh33sJSedc9oGl7vCv97pUe1bKGD1Ry4wAOopujIJyiWMs0TxM8cUQ0zwe3H4J1SFi34pT+s19IfXbOtRL4RaG3SAYk2B/AmFQK0kTjPyJigqYzYYzdthSAWZrRNGItASdMDgo1h0BEdnOIB2VJAs8s8Wqx1PVIyWsy84lB6MREgLF34hsHlRrCHkpol457wktBONlMgUlFEuUegYSXJ0XEqyr9OgYlaHVpPQo1Phbej6kJYweEM++duTYuMCDJ2gbSMwtSEbSJlIAmkpYEXKwTeQmw2beBSDzzkmAHPM7qKQQ/DUhb+kqwhmoUALOvwEsQnli5EkoPAQiCXRjegpFKHLnmEX2VdPdAh0CCwYAkvmx7PaIhcMp1r8zLMAfhZmTNfLdNGfVj4rSqhIFZO+jbMHHdApCUnMsaAH0D0E1zq3tr1kesagA2VU+grUme1MTJBFDMl04GKX/4gEso1sSEwsPzGzrK8yjI/R2pbsTaxYfO8nltF42oVTORpqiobKe2uoc3ZUWi6QnwV0ZB2bRNdB4UqD/bFDoENgdgisJj+eRByBZKGJNnLBc57zHAqxkUFjdUfejr+CJlo/8ywMKbd4GQGIV9PKZ0WJllTMK+iAHvHmNHWCemmHSqptdlo6YzG0Ax4Wbkfl7XjhrG4MdGIQsWs5y8TuLmaUBWZJlPVVJdd3vPosSDwb19SQwLRvx/tq3xbIzwI68s2MIG076ukOgQ6B+UJgySSe+Xbcy3cIdAh0CHQIrKsQGJd4/nILva7Ov8+rQ6BDoEOgQ2BZQWAtIzz8Kly38AJxGR6+q0NounvIVzT7vDFcMg+LLSCHYRi7ZPcxvvE1Xp3TjH7zV5woh3XjIwjD/Mhx1x0fjMgCzAoynQm392y68rFNuCdn2BY5Ig9N/JZMW76nOwQ6BDoEVh0E1ibCw6vDl1EE4+I/xEkwvCOHoGkDn3AO9cUwX0YZFltADhMpPv/uY3iKjBMzg3StoguUT8K3ZMa7Q6hGCqAoDJHbAhPj1I2EBUJs0imV0V18dK5tsKc7BDoEOgRWGwTmIDzPPupt9z34OQ/52ItO+22NYRVSRfxdPSFzGHBzqmBFzeyV0wyvxnCFaeOjZOCTgCBTXQbTxJQoydiatCT+ipxhLBwCCsNoZsHEi5gX2uYxIuWwrRIKU6AzLTMFZj/dLlIGtolM/vMizfAlYsYtwfRZKATRAfj/B9IvQVyiluiZbRAz9l18GCd6L4YI1U5HCxkWKAdmVAL5JMnJfAnmW+L3sFRm0BzuLC0YFdCvuuRLfxFaxmlRneeTV5iAtrWe7hDoEOgQmB0CY4TnP77zybMv+Nk9dtjqZltcZb/D3tg2ukZC5kB2EdJYLC8OPaIhCElQ4qNk4BOjhSK5OiIbPoUiiowcuJWfje/cqMXMieEs1KxZWJgcU8KxlGguCAb6EUBAUUqsswxs00Ip04YhtAEvfRHP0Dz5VIUZlSeKcVfk4R8B3yRQVkPlCsMFJ9vJhHDa0u10UKkMC4TScIVB5xBdkeU46GTFTLC7Uwz943vEhbaAUTHQYGponAZAcCS0oYsyfZiHv47hCVEh/g16nG32RIdAh0CHwCwQGCM8x5xx4k2uuSICjZA5F/7pwrY54WF42FF5sdBdUeDSkCpwHHQGifNqFOKMA7lHSJ/Q0IbMUV4ObEgsIHbA+xEyh6dhhszRMr/OcvOhSgQFgPiEpQmpJeOjcImn12oHCS+7jzGqU045RQgDrzh7wv56D7+QiIVDDRWxcBRow7G00VzIScITpNG2yAhtGB4VQSDjJrRjiLRwBu6HuNFwBeXbLzOCuBhPRBCguHNvBCDoE7dKcpXwzFRnqNFIs2U60Rdyy70XVHnqaBN5YCXMtjjEGmUkrE5Zo4lgJNgBFLUh8gMaDKN32mkn1tioOwUm9yDh8oDCIkbX/W+HQIdAh8AsEBgjPHe//m2OPXOFhu0nv/r1plfZuG1ujYTMEQzUXQg0t+OOO2LwI67XMD5KjJNujZ5NIDUBWiBNdyQwPkIolhp0iQ6RKiBQkS5Fb8soxa2neonmwpuEWBCNoyLetgChmovANm1mpg2DgYC/eozMEsQFSZNDQEGh+dhLGCG94qGHHmqm2U5JlOnEW5TAlNFFxFJAowgHh2Cgr9RlRJajjjqKlMPY0WWYINDcmwBhIhhRQW2CGxqGD+B8KnYOzaHpEzrFFAAur5DVMrD+2CHQIdAhMAKBFZhl2u/vd7zz7/544WdP+sYOm239vvuvkGzyt0ZC5uy77750VhjwkDxc1Qh2MoxME4FPhBnl4SjEpDHDxaQcTL0oBswToF0tmAK82cbCUbINx0K51EZzQVpSAiOgsDJIaEi0gW0yP2OxGLNPWdOzIYc0eCEttUFcKP3ITNoXzcU1lZJ+pBZSBVyPWLY9IiHRRZkOuhJhgUSx80MmWVVQTiIYrnOoHBEY7YiLQ2foLXIrxBlSxONV2FC+k22YmRy8TIH43HsRyPTrYonyDdES/yajQuSUe6JDoEOgQ2BOCCyZAyldPwYZ8qLvcn2CT4fa0rmdeAHfuSqfNiDiAtZ7Fi93qjyyTrr6R4NtfBTIXZlpLujoB5kpMebssXB0BNv6lgz8KxCcGGV55TNtUm0+gIAMHZeZGhu07rGNytMWbtPjIWfKdEzcKrRgBI0U4ygqqSsTMmWNdNqCMcdQBqBBg/fLAj3RIdAh0CFQILCaHEhpogKjRWySEjIHpvYh5zKy9tE9dosu21cljT4VqqOAO4yMiQLPJm4tdT3Cy0l15hULR11SC8MEd/JEqHlRHXUBBNWRMNPA2gacseDkT/uNg6WdjhaGxDupjrfu21rItGsUvbdgzPGUAWiwU50ETk90CHQILAACSybxLKDvXqVDoEOgQ6BDYJ2EwGqSeNZJ2PVJdQh0CHQIdAgsOQTGrNqWvLPFN8ivhdXA3nvv7Z6c1+riGywtuICJqDO+6JwfP2V/zMuylJzz0RUOj1SX+XOWnKUAQ7JwAJql8HiZRYbPMSPGCCytObG6ExrvK98yc3DPl4/TEgl/huAZ46ctPFFhy7jfbVlbrKRBL8MXRYKFfSnTPjKDLJ+wa99KM/pg+hGZfKp41LoJK2XikSFJuDpNjHI0rMISJEbI4J4zVhjfD4uN5Lhbja2SXY8U7q86BNYIBOYmPCec/bNzL/ztGhlc6VSgNlSHmZaTifCw6C0FFv+YUWfcw7OCiwZRuPg02bzaXxXReuY1gGmFFxM+h/ECxyBXXBx43XUxzZjWS8nnwBu2fCW/PCb8WR5O/FKGz2+XKh6VZGI3zM8cd2kCF/kxEfQtIgm3Wfl2mPCpVsZ7w/zMYcSYpIsDGR7FyPNtm2CRiIzJmRjlqC0Z6fhKLLr+gAc8wFedOHINy4zn4AY4DCiTXY+X7287BFY/BMYIjzA5D/zI819y9Nse/vEXfeQHXymDY08lJ/7OK2QO5hfC4lfPxjfECw4u0JnwLd/4xjeyzWi57ZTLCHMA7ikMpl/72tdyofcWeWAWzLRaIx6HjXMg5eXKNppjpgKsh0UHgAX43jPQktPGxRlGnVEgfyVETWnKZz2ZvZlF8MKrKFoP4+YYT/geldA7I0OCHAMCOZ1MICfj4XOYYoMhPprEyTScxMOVymdGjQFLrlkLymBdgyXuDpgQT8GEl5K3ZEfhD5SUGW6nZXUS/mzKIVByTAk1FGMuCwFNE+NyOpGwysTWSHOD5X7k51E8CAlsgVHZNmGbXhqMWqLNIlH+xqO/wxBE5FoyCvJg4lFMp/yRzRHASYccyHyJymQjyhG3KjOy/TBPJCGF7RlgtKzHHHNMtMDQf7fddrNjfek1DkhZ1jJaOw0fpq6+IiGdXXPq8llYYlA03v92CCwHCIwRnld/44O3uNbVb7fNFve+4TbvOG4lS+jFhMxxCGlUEAzO+Qys6SgcxTe/+c28+h0SQPGIo+S1o5cWRpARh5LI4fUCG6p7wAEHYGNVD0JSGldYUz7DjGjRXXh0CDmiYkKhQlxqiYuTUWfafjNdQtSUpqBgOMgs0MVVF62Hh2mMJ4BTQu+MDAmlD9qQ08kER9Tx8DlgRVCAIq0a6EVFtm0ceuB0MIcKIxCRtYD7/uXSn2I+AKgMF93Qm2HhdWRFxBwiKChQVifhD2+iUsNQQ9F1WQgbCYULV9ko4K/RBmuSOW0Ci4P2GG18n7A0qKRAFTxkRdDgEmDM00IQacQ+JJ0QuQxYRZRVRAleugBiAPgkJvgMGiPKEVCQzwT985fTFY6NLIhysM7PoLdOgUeUHhQjMkhZ1jJaw7MEugaBSEijXtH1nnvu6bDw/+UZhjkb8nMK91+HwGqGwBjh+d3vL9zkqleJAf3pUuEgB7fIkDmQIDtg6hTnhHwwY8gc6hGsX4zBIcdCqstF1AeYBZ5hzw39eds27nHLLbfkJulvVHTy3R/ss88+GGp4DQXCbPJuechDHuKgRhl/tYaZjUcUhSGydAlRU5pSAF2MiAZQwyqK1hNDyiuNEnpnZEjXv/71qchUB8ZAkdISs4TPYYQNvaI0ACWwW4zBX7HaAt2LYMRIHVmyQHBchC+C40hICJUu4nusEJ8cYETqomJZnWw5EsNQQ5FfFkKmbSA2RFt9l112sYhtTpsGDdIMqSguUYYNIgMahL4nhiDKpqj+UFPElW+Z2ZGh8VKINHpsDwy/pqqw6BXy0QPBh7SDGwDVCB8VzRLIHve4x/FAIPcgzDLLsg5HGxUn3nqCIRqMJULUsXREzCjc/3YIrEEIjBGef7z53T73o1NPPvdX3zr9nLtcdyVH/TUSMoc3PkyHVvF8fMMb3kAHAn1gdck9EKhbGWgCKFvPlSFkb3vb22JyMZUcWokmJS5OlkcUfbQG0tE4ZlZEGa9KiJrSlALh8gL74GGhIb0gbEsbrcdMIXSfNgjiQRYxKoheyAMDmDYkr2BYKjWJhYXPUdEPZSXQBIFHZlyzQZrysRH+lrg7MmnkECpkMq4uhHugZAMWNgL4gxUtjv7AsIQaiuJlIWS6QArmINvDN0zj7umdqOYo2WgLpzXoExjUjyQe1NqAtY8voT1r5Srbw+yQUgW8Er/O3osp65qwYqPmeCKBBwqZ1YVlCKDD7UpOUow6TgthkVGWtUwfkQMlfU37zJIe7Xnkh0KbjroMqT92CKx+CKzAF9N+d9ruFgfuuf/nf/rt626y5b13WKEfzx8U7yMFHvGV/oraaWc7yVhjeJZmgNo6w7EogLskJGXM//BAjL84MjyyIwHFi8uiMKrmlXhlUUBO/JAKWgt3DOH5iNnE0tKHUNbD+C4eAu+3jatYuE63RJR4nDcNFZ+OdCESdP24ReiDGBRRZ3CdlHji8ZgpFEajoilMfRtxpzQFHQcSoUhZddF6EBiRTDmKpitoG3pn2pAMnlIOkQDDBYTPSRi6INEF6QdRgYLjM0K5TMPwRTC7iwrQhogBh0pKADoQdjNPIBiuDtk34O+VZoehhmIkZSFIGySnHKS6fracG6P4jEXk5F+qORKS72uEiEDjWhpUEjZ3cWUbwPIrAhCtHIIomhJPz9YNIwhbCGzRJ4IFAcjqmKwhcTS2n4VkjSqoF1GGzE399epXv9oVTuyZhGEOUoKkGMZ1ZVmxXO0+JE0yumFop4p2/KLN6NqWJjCh99Yi90zbS093CKx+CCyZA+lqC5mDc4doYIoElq6hiYJ38u0wgcI58BlqWgEtpFqmjTojTWPWloRAiVzZ+7CpYXeZU+rCa3QmiZKyWCbaUWFXI1qPt2SdFoOgi0SKDIIw45AWFj4nxqY71aHvQHA54EjAdOhiBpIIES3BqwyBAwCnrVcLf4Ux8iYIBWeooeilBWaYugmXHq9m/EvReq1rXQvtgakNpm1wpAXi7MRZt1U0Zdi5RmW9lASicbO6trVIl2Uto7UizkX2mNV1LQxgiT2Rb3uiQ2DVQWDcgXTJCM/IBOiFXDITieisR4qtV6/wsDACKWTGWWNyafxYScxYfr0qxkKMrBzqvvVq4n2yHQLLFgJrnvAsW9D0gXUIdAh0CHQIrAoIjBOeMeOCVTGaxbRJgU4tPmzBFber2sh33xsXRW2x9OWmbW/zKdD5wcih+nClxP3C1Wt4TrTF5ky7YXa3PGexKEBxhENnLjxj+fFidCwuz8bLLMlbIhf1jqYKDCc2PmekAMvE42pi3XllZqSDrDXjWtCgumjJWhMTc86i1GJIMnu8g/FtkPOaFsGhdO3RpoqfKBt0DMMCc+awoGMooViu9ZxVeoEOgYVBYG0iPO48prlAvuMd74j500e5ASqwQFfCl7t4j7viDmdPPkCuFlyiQAcLwOPuMzimlE6nPbJTYP60JGhXFww68nZnWo9Lku+SCRg1VWA4sfE5IwXA6dNc/Sc2OC1TI0VdOeNaCHDOKm+c/M85izKqecU7GN8GOa9pERxK1/gPPkkcaf3YajJhB+FSZs5HPm3hcptrPWeVXqBDYGEQmIPwHHfmj1/+9Q998qQVAQXKL/jf+OuGlnsa6zJ/XXIqCR0wVGNsg7dl5IYeyORSx71u6K3dOnsr1rZcOo1H9mOsg9gRRUwq5kMM0sJCiU0dOzf2o7xzjKdEHEnvcVwhY9aMfnbCCScwc2IIy5ItzHzdyhYf+3ZGqFTr6u+amuGvsf3whz9kK6XlcAYczlQZRnSkK11H3IQyF1JXWNC6EoMZh4EYdASwphZRHpiVx3e7CwznHAnueL/99jNUAiKAD+fbdsR1l+CMMBt/wHC8fbYe7MH8lI9IAfx7WsjI99MpaysuJsPeS0QDmyocUAq4MtKBaGmccthr5FqUCTIJsbjma+HCoA6OTn4lxpO9xONwFqgFyM833gEBAjcTHjnRsr9lGxgelyzm5mbhbc4rIjjIQVfEMnC+kAePZXZy/Nyh+tn/zGGCSzBTo/ULBqvEuXBGomJEwYh0rjWHJCe3hzwIsPS/SwuBMcLz1Z+f8LwvveU3F518yA8+85wvrqSXGI9cQDShE+PwwXYWQnTa8fjGjSpAQyhE8dZunb2ZA6EijhmtV4QzGU7YcdJOuMorzzaJbZiDjd7AoSy8qRocdVIOv5+W9QvvcYan7Hz4lqepFbcSJIoTnzt/BtZ6LD72ZUZMbFtXf3QIfVULvmBb5Xirjn4MZ6oYzMgcmdMJIKhS5kKeMGuzQJl4b8BHI1EeFIPQGeZqp8BwzpGoyPqZagWUeOmX+bKhasNJ8Hncdddd0UIdBQznbF/J9lfKe0W4ZHYMj6OjpXdvrWYbb4LVGdIiv4ArIx2YDrNmzEGuRZkgk2LWa2i5paSz1RQh9cgjj5TIX/aSOSUxr3gHVt9SsntmP828HgCzteE2EFlD7zR1TE4crpxXRHBwiHwE3UqBWAQHKrOLlsU78GNez6HKZkYznKM2kAT4WFZeX6GaDo8iddsQIbnWrPZ7yINcsp5YWgiMEZ73HX/E7ttuee2Nrn6rrbY49qyT2o6hdRiWe12E9LBB8Ud4UhjZyYfQn/GMZ2C+kB/+dwiPLe6wHXfcccEFy0lv7aGzN7zsbODCNNJ2mumh5zYBCGbBkIZNrU5dRZCEONaFJJR1Jejiw7ccyvMIfbPWhVMMHq7Xghz8futjX2aEzqnieKuSfosmwhediyXPJGJTqJLameoL3hyPaMD7hDpRXdqS0KG1gRhKlAdxaKL3AkNkdc6RGAzMAs0R9XjklPmWjhRuf7PMdM7ynGDsh/ieXuld3RLRwIyMVv5w6bMjEgwZJR8l2gkG1qaI45ETZWySoEBZJXvJnJLAlMwY70BF+x+RIFDikAw73H2iweE2AAEtM8xzskjepV9MEqmFtXQQ6Xjbzi5yxDvww+1pzTFEZdGnDCShTIlzEbWo6SJR/vaQBwUg/XEJITBGeK614WZnXXBZ2JjLb3CFtldonfiCgYpLdYwVhAvvx7euMfXcFOivnCW6IH4PAtIQJvbaay9nWzutJ4R0cfbGo9EkEPlFYGs7zTR0L/IuVAJ5hWLKsUT5qC90oZggVySYaRf+OP3g9YxQYUOiwUAXOaZQPpCQ4KPiY19mRO9ED37sscdyWDHaGJiJQOKIgZMs4GNwuO1M4Wsjr3l5pQAAL5BJREFUhBSIdNMiGkBt8AtPWxDLZiPhL2/WiNRA40RbiDJFjOQCQ/LK+EiGLZf5lo5yAFlxlvaz1kTI0BASPSnHKLhK71mxTeAhPA6XPssMzalb4OMSyA24EC1EFQsd8Y2yBYnopc3JNAFi9ngHapG2ua/aWlbT7sp2Jm4DFzPkTmVcN1JjZuFIGKfBSxM3OWtHZju7yOGy7YcAI+dsZEogCWVKnAsaTjxWRsGIRtq/jgkx11ZH8HrIgxYyPb1ICFxxpP5z7/jwh378xT8+9xcX/fGSZ97h4W1JiGkkcgFndTwd7QF1CtlfRRQIK5eRC+LMUH1Em8XZG871CvrOAm3X0twPW89tOZA1FQF0jI31iH5ENBTnkABBemhPKfYTG8heiCJLWi9uLyKKAc24AQv+VnzsMeDtjLbbbrs2NAO1WwxV9AQaduIRqoOaum1uZzpLRAODNySnPSPKRMvxt0R5QN0JjmZB/CowHB+JXvyiTSP0K/MtHSkMMxJA81ZslvYv7eSyP6U8yk06IQ5Coy4S3PSMRzSAIsGcZFaWHomNSAcxl+gs0+0EoWOsT9z5kUWUpMVC8NpBZi9tZqbnFe+AxGkFbXiaUgo3l514qWhq4jaw6K7c3DnZewwKjLyN4EC4EaUUd6WFUHhKtLPLQUYClDBVToFz4a+ZigAUr9o4FyUKRsIt1ppWAJ/UQx4U2PbHJYHA3A6k5110/sZX2XDOzqjOsZw2OmJDoaG8O1WniOZamlwioAihZFo7OK/W2XtascxXHsJ1wDKnJGi0oGNnic7BqMpbXCcaU6oTViCXkMmiPCZXmZiCnHZGRuttSHht4wYGf+XtUftqWrrMhRzAJjhiaU+sApeRtGKcTMmlQ8FYYLiAkZT5th2BWIHkfNufs3zpfeLcZWqnXXqjsvHaVZtY0aWR/eBeBwnEGFG4uXrBZISub2KViZlk3wXEO9AUGjnnIB2i3DnDedmx8413oF+12kASjieWLrS43tqrE0+H3qlh5xzwRBD1zA4BEBj345mb8CweiD1ywewwZDNGF0fHyN53llroH1lnonvTLNXXnzKk4bB5c41HxkJTaWsF1Fh/INBn2iGwOiGw5gnP6pxt76tDoEOgQ6BDYI1DYJzwjBkXrPGh9wF0CHQIdAh0CKx7EBgzLlhWs6XZ5wAYQ3JvT00f/isjg6ROoTR3bRNleLq4899jjz1Gqsz4ikEUEz73rjOWL8Uo1rlTyHQF5Y7BxfJQz+6tKyWegENjLWYRrojVpZSbNgY6+he+8IV5Ec3+kAtIgqKMZ/jIhCm+GerbMMwl/B2WYfvHQCDvJLKAe3XWCqwGeEfFNPOVizcmJzxJM2eY8KkFvFLmgw+7g3wsCdZi7urTArC89chKnn0Xy5F4NbIHcrcEeNuQ5MNm5fB7BX8Jk+U0w3qtGHNPrNVmutOKFZy20G3hnu4QWJcgsNZIPC63GW2zTWIwzVqsYLSJS5JxR7yFoSDTNKubWH72TDZCxSBq9rpKMurlUWsuqCDHQCZ2E6tPi1wSYVRcGjMon1hRJnC1bvlsvtsvmE2rlfmcorjoMnWDExnKo9/5KhPuSBiF52MmkLegcPG1gsyXmCVQjW/wsIFU2DW4BHf9toWSxgGEv1TJz0c2yhm4bHwP5G6ZMUqNTagXiwhKHGBLjIwcwEgiV3DaQo/U7a86BNZqCMxBeF5y9Afu/+Hn7fOpV/3qosscenK2RBDp+Mven9VmhqjBbrcRZeYMAyPADMtafqM44mgT3vTLvjLBEBZC9OHqcPsvgVumxVNRnccPm2l2peFRMT7CYTySdoSwMC47vjBm1jG2CDpSQpJw3xMBRTACzhmmw7Db/baZqkLEMReCi6A43MjDk5HFNpNZP/6bGblEYWXaSC0ZRiW6Js1ws4joRHL0GD4f8bb9W+BD8CIBGA+xiZ0YDyEYUEcRXoW3E6lF474zxoFRO7xALKXyyBhIcuQiUalYVp97UyDl6LrABKZuKaIy3PVbNoL0wMuY+ZmPwkmQeLxlmgzC4eBS5qsFEzEFIkj06C8qy4srovtkZtkDRj4SpUYL+rV2NkPQ3RLFR7OcCiwi0kj+jtiyZcULwFknh9cX0KX7Vy50D1GTK9UT6zwExgjP24/93Mm/+sHdr3+t7Tb50+M/85oWFiVkTglRw0evjSgzHgZG7ClcP56RxgmS0gutBS8Ef6GGtlNpmII5LPdstrAeSyAWiLsNpZNxRyB93nzYZwEOYH8Vx0dY4pGUEUJ/aYMbjqgajKAjcCJslSFJWE9xISIWQNkYatOBifixK58/GjNYFSWjeGkDnGTkEiVLpBZIH6qNFuDENjqRTMRjombMqwKfEqiGIyfcfdBBB3HjiMbjL/ITTpeMjxEqjdB5sjIHTLScjXJZfUvvly0UmAwD1eywww4jujLmy5SNYGg/8CIazpdglKF3GAqDFYcYDIExgGEOY7gHxqPUkPnEGrAu/nKp0U6J4iOHIzCYCN7BYTlCeJQVLwA3pNjSqFru7Vxozjo9RE2uV0+s2xAYIzxHn3r8jltuav5bbrjh7/5wfguIEjKnhKgpEWVgfOge5p0YBgZOgSY4QsI+cJleiD5YQr6fEVq07ZffKPoUmnGopASG8UprWHLa9nS+Ud236CFrVwswSHwheM4RtvFIyghpb8oFAHwXgywhSSAvFwbkM0oVCFQZlw3FeUimcNoAOAxwEm36K5wBGBJl0IbMjIQrljY6kUyh6mRywpDmOxLFYGc+oQU+wNiGBVKSVm3ozB/D44lFEuJyyDMXLm6DzZTVjx7zb4GJwm1dxWDbQuqyroRh06fZISii6Q/n24beMTZEiDIWpRTqjRtZNjXcA6YPqqjaxCg1qDKSYBftueeetpl2ShQfOQSy4IHIPciSnLLiBeA5mGEYJ6/MFNOA9mOYsC8RFDWr9ESHwLoEgTHCc5ftbnn8WStkjtN/+9uNrrzCJzR/JWROCVHjctgRyogy8CbNkvuVZGzdx2ZTMF2oUDh4B6Whc3DtgVQEHcqSEk64Hy5bWiMlcAt0U0LpRF1kjBSCP4UdONMZ3mJGCPeRTqJlkgdlI5Y/RJASkoTLCGWUfjnPBm4dWgqgxxRTzCWGAU6iC32VSC2RH39LLB+ZaIwhcf1zVwF7yjEqX6oW1a3AZxioZugwyMSAZgxBQjAIKyAJ0TM3aHF6Wf12eNG7fsEf0fI4DFRjtC72S618RB6EsfE3xJfhfNvQO0ZCFEbqEOPyaZzhHrAiI1Fq8D0hzlKEhnY0h5QJkqViBHriToRuKiteAI4fMheuV6hgNtIm9GjDODs9RE0Llp5e9yAwZtX2iJ3vds5F5x35k2O33mjzd973Ce3kS8gcDGkbogbL2UaUURHr50TRKUUj9EsS8ZeKnO7bxQY2EI6WT6PiFb1TFG6rtDnSJRALFVkbSifiqbhHQc8o5cJyzB0D8QslmGWEaJtfGSFEqbUYSQk6IrMNSSJGy7777iuOg67JOjHfqIjrh7A0BaHDiVCSOxXFQBLFjQAnMCMESmZCX4lrwSYjVFqIpoytxPLxChdveK6gANxk0RvoNcLWEbZa+JQwOe69NBjD89eASTYGbwzQqxw4ncM/ImGOBkzfiP8gO5bVJ2zF8FLobGFidsUuAzdAmgGE7FoiYcXWgHkePRsBl86TNEB/1UZjMhKEIULveGsfknVIcq7l8DQRWsKYh3uAsdxIlBpMj/kCPoEs/HNzOu04I40TCjpXVpxpRgtwt2Wu4kLmNkG/AHgsdA9RMwRsz1lXIbBkkQtKiJoSUWbOMDB09ySJBUAZ7iZtZF2PtOepzoJMCRlDRl5HixkhntT1hmtw7eg9SFoMnsDRhiRB/Fw7F9XcyDTbACdQrfFH4zj9NlJLaQGCI4IMMaMWCExszFLSKvDRjgLANaxbuohHkzXBBG/Ovax+qdvCBDafb6AaK6UFyB39AA34etp8S79rJEpNWfECcHuDwrDdMMYcC91D1JTl649rNQRolXBUOOOJs1gywjOx9cicbxiYkaZW0av5jhDiw0HjrFfReNbVZt2u90A16+ri9nl1CLQQWPOEpx1NT3cIdAh0CHQIrPMQGCc8f9Hpr/OA6BPsEOgQ6BDoEFgOELiC++EcB+sstlX5uNwSjLvcFcd1DhM41yG+0TJtkJwu3Y0Pw+q41adSZ9tWKjIocifPkYg9q6sLziUTb4ZKrcU/upGi6GMNpSk3GeIls0YLs71FNs5+zD086+pFtrOw6uLlsIXjyspvKcYAquwdOKhOa7AFRVvG1Y61zkj+7SvenZbMj/2YjTH7XVrbyHh6uGEOPPBApn069QVVthvDPTbe4ILfrmMgZabPoiQcsafBRPwk8S8uXeEVf3z2sP2C+LCWI8zMZJgfOZaSGUvGwuDDywiFjc+wPBTB09wxZEmv0+HXT4ZVFr8VWQC5x2XOE10Pu1i7clwex3QmDntuieeM3/7FGXBiE6stE7FJz0Q0Moywp/UutIF9Nnw7LdALEwCfd2QGxtrNV1PDsHtYfclzoOOMfCP+m1A6SOaS9LLIuD6LHEM46jLj5p8UTbHK8zWzkWZbULTFGPLxQm1zIu2iPqIoWTXXmLzE0NphsUXmDDeMZYL+dMr5jLcNJLXILmasvo6BdMnjJwEjQjUCTBZMAUNlrJpv+GK7ZQ6r4HWY5sq/NPzTZcEeh8UyZ0m2opMCv2XX2fg6mRgjPBf88fcP+ui/7X/Ea+/zoQOO+Ml3y/yZ68iJv3AKg1fMrL+MdkpAGu7cgccxv1zfIVaRY5hWC6sTgUZ4aXBcUJ3bebRpW/iVHoeP7J3QCZ4cuJiIQSLui+gpmuK8orwN0QZcYcuLycJ3Y64VyAAw0bKTwEmIfTA/FU5Ipa4yeC6Ihr1yeAu2sVu8MjVlmM8KMMM1HSg8wozGJs0U2OOzn/1sfqCmb3ZMdb3CKMmPH7Ny3DRr8ph7G3DFgFmcR37EFlKRNTBL4pe+9KVhOsV/haWy9rXmOEVcn/BYUtfIceheke0YQANRhBdre/G2fbQ60KtMLpbx5WMTMTUkn3m3rpkse9vG2glnW0AYoQGGbelxmkau+hAUZYTYWPgC+UGZ2hg/6vpd6tm1myUj7hCM5JDzzNcvYv84z9KG5K+3w7g1pXy7yu2GwZAm2qIY0C/XYH45LPrKgMv+b0FqAPaPKnqx/Tw6HfjuRYKUrxVfIivCaFDjqxqk5mvwthCjc5tqCNJyuKaB1O5aZPyktmXAjJ9N0kZlhCW4Bjp6f36/4r/TYRF5FAhZFPltWCysJycEX1nM+E92EVRjC0FWypfTFy2UrTjcri3GUMUxjIpajoS/2bWDrFNGkvlqXUqMEZ6Xfe0DN9rsynfcbst73uA6r//mCg+b/JWQOU442B155JG8r/Hv9B5Itz1Ba+Rjms4DRl5dSF9IGzgUVQdT3IQNAbJog0+fkYLDjwd2mxYyJwcQCbSBLIyQQOK8PeBfqiq+6xzII7gyK2SWxLChNiF07keOSgR6aQPAkPo1yBUD7kYVUAt4qtRVoI3+ArO3sWoizgIZi2+gqdnWnG8omkQDAhBDoifUAk8jCkDtOK4G6RXv95gL+VqPiArtTUSigxAzAhABnLmtEQI1vIZGlrg+JQAMRBZxfYCaJOctj6I4jSXCTduLI9o++t4logKbm4WgDxZOp9h8lMA3T60vB1WOk1iNiLVjucP3xSEPkMbUyl9HmkeLuaPfpjMERRlhhj4qMX6iWevox1UIHmHgTsC3fLgQzqR+dpcDzJqfh41FUcXONBGJiFtTystvV7ndMFglOzk6VYZ7E1rO+YbBaBlw2f8tSEHYxrC+NgkGxUgsjZEvEqR2ju2hXxsDk7dKQQoCYg9ySHLo4GXotYBUASsC+5u46Ep2wjSQLjJ+UlmsWBrslD0Z7JeEoTpESLszGAXiL9mIPzsmIISkEhaLf56xCUthan52kYnYV9BUxF0spy/avHQn/mUrlu1aMIYq6HdUjIBbkc6uDZhsjTcFSd3F23Xm75gD6dnnn7ftJleNqV58yUqEFwuMw3re857nfkIBam4khDYWmSG7iDKCxjhOeCJ+iE4aEEOszgM8C9c4w+gBPIUv9igcZPjEBGZsQ+bgrBPW8KBdHo8ScRGCz3UfI1MvQgDYYYgcvzyoTWYGXCGTtdpkO1K/4UufAWBgGfRGXUyoY6wLw8OVZN2I/qI8x1U3ClAPHsc0yezcaMwI92THE+zsVKgQZsEicdoAE2x+jByXx+fROOMVWEHBXjmleFW4jE7ZFYLTwuvWCEWZQzX52eAxbUStBaesShvXByMGzxqDpfGKWJkXHvauHqFItMcrLqs0DDAgbt3USi/lUS2dctE3NvMyKdw0Ym/d+dNYR4IIwEasHXQRNIDCL65kQMnFlU790Cc0NdKGZPm0hhggjQUUZYRRxV9zRESNUJu5mrCDVzgVCSQZQndKI+C3YlaZGynHI/uh3BKZu6u+Ul5T7Spn1xICcOQjtZ7di5iF9r8MmNDc7v8CUpsB0EiiiDSQ2k526eJBagmsvnClWGagXnUgtQHwHDaAS1AzTZhIBEiHh2saSMGt6MNhEr+2zTY9PM6lZRIqcsg9HCiIp7AH7hC0407XwKI1GwOyspdMgXCGSW3DYilT2Ca7CHqxq72ypYmwEu3pi2bLVizbtWCMqOIv7jnTbYLrtB8shCPfaaed8KlL8kmXtos1mL78SN+P2nnPr55y1im/Oe/bp//yNlvv2JaEuRwtjEy4xOMF7HsYKs5hqHcyZA5UjrlwSqlN48ZeTrYG3WOrYWrLCYPLR8MmhswBfdc8SsIscLqTr7BN4yKBrINnwaSIPYP4WcsIkGztoVd/23iRatnxwwAwoWqjAkJ1lBnWtUcxlRH9BY+JEMJ3mCZHXXldkLogUwjOFNgLQHkRKNoWzztPR0JhdxKhfIsCDjN9hR7JfM4A2MId+mojAGkfI2//pWDeglGDbQAYuxwvryM/0o/WDDUuZtEnXGEsnLell/IIw8adtk1vdTzq1CEEdkA+5phjos1YViC1lNaCji6OrjUiAuI5rBpOHFm6dESXxVQlKJB6CygUKCOMKv4OY/zIJGv6IeckPP3qglwCjJhTmaiF7eH02l0xJDTYlkB3I25NKa/BdpWzawkwRNgix0jwHHnnXAZc9n8BqZ1gHclJ2DIgRSGWBKTW19gE+MElrFKQGi2AY4+gbxtbpwWkw8M1DaQYO2ckQBp/bR6MSJvTpsePpJKYLX3RV+N0ncQwAxGigshuxbMpmIoPODYRPsGN2ZmG4ZgoICfuBbKwhF0UOMpGsp2gLJnt6YvCl+7Ev2zFsl2HGENr5usUSEQL7V/7jTQME1InQLCpGmnLrL3pMYnntte5yav3eNLhP/n2nte77t9cbyXjKKB/05veZNphsOQs0XdZM/w4pEligBwtAwpBOFAMdsaJp+IVsywz/uJiABcbCDeF0n9iyBzlXQwQhhxafA2mBqKJzeQAYxuxG7CtiCmYPoopK2pnYBnagCvYqwz0gt9sA8DkeCTiN6wr326mayLtDWPVQMrUxCif8SC6qBeeyHU6zKIi+PgbU5YAMYyMktJYPIw/LAahe3RuoU6cOD6dBAZ3O04AbjphgZM2b9GafD9sdRsAJhRiWvNzZozEeY67/RLhBkDaXhRuH3UNaAQUigLLGnJGiVREUWAAOtIpXK8vDGZ4LFsROgrRgIwfnnLgLx3R5XAhWjZBAp+cFhQeywjBnKLP0pcYP9FU/tUa5KuuTeivTcK8wgCkQTvRGdGnjVszjFSkwVxl6dwwmAATtPFMNtcxetfFSMgovEULUtUtNEbNaoKtbaORxYOUOpGum/7QMSRZrjqQGi2dkinb4dbUYwGp/OHhmghSawQ7Bwzj77ziJ4W01Lasa6eJ3pKqAF2hKvAjrwAO3E1nFb1g8mxL+8Qj1ERLgduT6agS2nAt8AkEEufFWttFLhGdVgyWlQo2qz197RSkYyuW7TrEGAYZhyVGEg1m18Zsk0CJoQ0qXaztj0sWuQBiwsuDoL0I7yMJOO5kCQm5Tiw5YBq84AXYKlZ0WpnIx3E4/7FUdgnGE4+DZZAZBYKPsFfi0UgMCbLWhVpWV4GoLuGVXTKtx2Fd5XH6qbSZJXaLOxKy0cQunBy9x4abWMDudw2QI3T/hMAU/UZb0SrkxCOuDyEAB0dCBV6/KExvBiD6xcIDRemlPLbtZ1oZ0Mu+Ml/CgB0eKCAz9aJHlCZy4CyKGgVyXvILKMoItWB3xfawr1Qcj/ED5iZrH0aP0LEh4QlCKLSC2MnYA1GglC+rnBsmCk/8WwZc9v+qBimuDnqi+SS153ZapSAFQJyiO3bbDJ80BGk5XBNBij6hYUj7RJBOzJzzSE6sJdNo50Qv7fHRkUm129hbst34xhv2XrZrwRgTt1Z0bbRzDnjY3fLJIfeTvIMBHY5qTOIZlh7JSRwUp93yJNUhS7rzD5Z/WgvwwrRXJT/vCeQ7Y+QDm6PdHy1CUcZIQkTILrKARKZLL/E4rJu4LArkHCdWj8xpVMfbaauSrcG2iZ1JCfb9CNVRK1dBmqiH5GCpDIBYmW1KQE/xGNNve5FfHtuKmVam7SvzJVIgy0w0IKmOTOo1JyrnFcUKKMoIk2QqHKr2bHxiosA8mBJSVxS2bcq6l/JllUvhiT2WAbf7X/lVDVLra3uvTpDaiuYFbpEYghTQWrgNQerS3uGdF9XR45xHcuLqyJwFibdbWkelqfZteTXyWLZrwRgtiLKRYdf5ap1JLJnEs85ApE+kQ6BDoEOgQ2CREBiXeP5yyb/IblZbdYpa9x+lO+odF4ltJrOuMGJxZ/iCF7yAQsDVERlWGSoIUnNbeGLalXjry+lGmmLBnWoUdp0z0VUlG2dd4waeKE0NQoPsin5iLyWTJE4tI5NyrLwaeXTvxedgpMC8XrkMD8vjthbzBxr5Nmda2kgws/mWcVGYPsqxFhNd/LJxxl3hI2UAjAb9BbpsalqCEpVG0dusPq3kMH/Nbg/jARDXDxT6ln44vJIz3+1hE9IBlkbKowHY2PnLxSrF8tENSqYnJhw32z5esT5gW0/NNbFkOSwTy7SZTnSO042j89W+nTFtg7EpVTiBOWPFXmwJIbCWER7EgCdjGikkIGz0MErOnIhcAKOxXGCaTJXMOMS9qwJDX/Ss1SbQFYaYmQO7QRD2feS4J59IvbJxRgG0Hw4e6ykXUWn+mw1OTCCQ7hu8CjuCiWVKpjkyjkKoJo6nFJ7zEdlj81aufNUy/fDlnrMFtrYU+lkM8XAfi/2R434uzny+jUQ2no7i7AKYfgi50WpWS618tEwMLD1m9Xw1nljj2wNGZhHHEoe5QV4cjox5vtvDOo6ruPXFiMYFu4RVk2BIMjIAryayDm0VDgBp/scElP1ke47akuWwtK8mphEqhpQMWBhr4DX9nVhsPJM1aZiSJjDHy/e3qwICcxCeH/3qjIOO+fSRPz1u2Hcw5vHXJT/rEVYf/rp1VBgiYKjGfAipwIe645GJQ7FpJHirMAyzxcMV3B5ij++QhNtX23Lpl4ML90+st2a9gjjwdNpJesAoq41cwIIWx+feldUvi36ISV12d06jTnG7rQe+Blvv5egaSdMgouWRPhpyD+oVb/1FjQzAxG3otnFGNUgIdzO0R0SG8NAuMy1wUwWCNkHNBuPpVpx3LSJkgkFXCuiUhNnZBLc+2CPAd+ScN5jODb8zrLocjkHuh8PA2mKxVKR6hjuYEVpTVA0Q0qG6THnYghw/Uim4xWaw1i6oYlnjbYF8Nh6O4khXQIyVGvtgVdjR2k4GI98jSVSaDVKsBR7cRoLdonr0bo4KqBjlS7AMk1VljW8PEzcGu9oGQ5WXfHvYOcDSCqCgEXOXiJ/TwVSXKTx3OgkkcOQs/7nS5SgeWv6PLoHpUIkOgJKZFz6Gj1pUbDfb8LAo054mj8Pd7h4LG2e72l2BBGxOg4kcAFSr3f8ebXV//WyJSPibZ82wCU/pe5AFemKVQmCM8Hzr9BP/+fDXn/SrY95x3Ede+NX3teMYj1wARbZe/VgqmAIO4i4XjDxp18dsWKmjN5qVcJ/G/ZCNgJbtJ2jChrBlW2yFzGCmMGWiDwTFGnpol8gFLl15ubLZtS8RFYfKDXMGLyju4igHe3/+xizH4D4Dc3L4D8NxsJ5H95P2KBVQyhYOkiqErYhN0DbuXDkSCnOh5QRjqMOZMvR0GDLiA08dBDJY1PCQ4LVDbEJa/GVSrIUCOjk40NYHexz4SB1ZkOUoERBAVHdozZdflNWBPsLjUj6FG4QFDkQ3rlFMP+EmNutlysMW5Fg7pg32QNw8g555wSlexa9APhvXox9ZR3kDkyZ3EgtKbAvkh8SpwYBVhja4tPYEP3P4iFCFFuI8jM0YIgzBGt8eLODtGdOnwnVAykFYku3Bli8CYfwZ9pfNPR9LonRatlMUdjBpveaMDmCNwgiekYuzoG672fgb5UmMwzLcWsPdzlLJ1gU3nJbDpc2FBQjIs8b6hgU2vQhyi01pEU6BTH9cQgiMEZ53fO/QO2675fYbb7Lbdbb4+qnHt726txA0BU7HzMq3cs4z9gS2wikz/7AnMCZQD8MVSBPqh9oYyIdQz4SJl08aMllv+Sx/NOucIA/hKkEtgzXOfumsbFAyChRMJy6/9f/3aNPI4RjBsIpvgRwSAyzGmwyqNbD2ogUZw92zlId9wgPfdQLmiAUUPO5IqI4VRTBawxvsoQGEv5ECJoWtJh/ArQ6AnPFfmWmB27CuNp0QVBkAjVaBAjqkkQ82Fg8qR8DIlHMCHw02RxOBjgHBwglPgEJgS3UE4GGHw3wOGMlS1rTVd5UpD1swSOtoaq2pGMijcymnFsgPJ97mQIUR24KXX3DZHPpsGIgvJKq2sLTytpBZCGkBGuFnboltMEQ0mGIt2Jnr/PYADaAzzRZEMfc2p02XPVm2k5LOIDWD/QOe+D86ZOScXIUaMZ9tm7IzbWA8GanOzp+4VdryZWt5VXa7HCuL+/FD0mx4OVp26jFPNqqZDgccXbCNjkT56/jTAZDMsC/4G0isFOiPqwICY4Tnmle5xq8vWqE387v8BiuVdKMwErlg6KNLw0argHW1X6PB9q/92nrdw312AwNNOBcdypJ6pDJGvfBB7GvDaoKYogBeyV8nQfk2coEdj0D6q18UIhQ10WD48cHUdmR44A+9l+mgUDjiV4vg8KdEnJBIVImuPfJSzKFOS5SZ4tnbiA/DWshzBHSicUIwhgUwlY4NvQGlU/hgzwl8E892pANiaDYegsQD8nQ+CgCvljP8RFYpUx62oGTQ4NY0AxFy5+xsezuEfDY+MUEmCL/xiG1BKyLwnfmGz+awCsQa5XHZ5qK6Mu2sPVpQjMg6vz3M1L0I2iORv5h7PpZE2ZPD7cQyfpboAJgMJxFJcGAp9yKQVdlspeuytcrbeEQXHQpuv4SeOPtU9NRuesHcYC+GA7YNbO9pAQI064gRne127GMEw53Ydc9cQgj8BQcNG33W7g/9v7MvPPrnZx168mlPuvXftgUcZpELMDthfAXnsmVy+Yz3Rx7wKdhnvr42nDgCKipglxBmo5FiqI5bUZK0AV/gSREJ3BOqY28hP1GFqoTATjGlCz+UDLelWeZMVGFY/igWkQtgc1sNriHO20yi1yiPndGsYiQYw8b5hrs4z2cn05FwVaMX9ElrWlCSHADd64WGLdr3F82D+OAsYyOnO9iqQKk8ZNvGpXPw0jHlMtMCN8VQplAgSPsRvCACXBhpL3ixAjqSnDIBE0KA4z0n8AMF59iMHE+qcdotjTPECCbAt46QWKyl4EPER2IrkPLlHk65tGDYQESp4rIKcDxGX/YDYEbvBfLZeBaWiLS6aGHEtoAaSH74a2wvuTPiruK1LR8hOELgKI/nDT9zW0hH4cARY4i/WrbE5rJ8tsel073ckm8PzdJdQ+jRfvyNubc50gmZsieH24k+HPYnYdseFi40VAIBkGKpCrJZ2gKrpoDN6YAQR2yGslXyJMYAhlur7PZsXMKuwDUiM3RuUAEBCOMFdQwHbJxahhmMJDqKduKsoVguUBEz7KwbWXG52l56ehVBYG4/nlN/88ttrnGZv+HIIOiCCRyWlvInnMVYK1J3xNaBsyCduMyY1ogWoIxpb0fybWhXjnlygsFpm9K7Mq0nlzKxC72SbgsvYBiMCFq1UjY+bcxtFwVu1BE48RhbVi/tZ/5IYl7ABwSyTnRq8PA1kcXCySRepMubx/TlLkNqWxgZVfuqQL5tvC2WaTwBepZugDAOmzdXVtbdUAHN9su3agEsvmEEc2XLRrKubg/KA+pueoKc7CyJsidVabfTSAtUGu0STCxZtsrwsJStNbGRYaaNCgnkcpcBD3vRQpw1dHTOMQ+76zlzQiA0UviAiSXnJjwTq80rE05x70KTQ+s1r4q98OIhsADg02KhxHFJtvgB9BbWIAQIheTgkQ/1rsGx9a7XbQisecKzbsO3z65DoEOgQ6BDoEBgnPCM3fGUhvpjh0CHQIdAh0CHwOIhsDYRHopa14B+rt8ZdHqcOH92Cm4dh6/o8Smvh/kLi4WjnVUa7CTGubSxcPjEiBs0hMCMOYyUwFbhaRCOdqjOWdyWNq3XxEUpxRbw6O6nxMvh9mSH+DtLuJ3cFbOPsA0JY8CsVEq4pjKL7CLz3cO7ys7HaQm+z0Y17W3kW9M4FPk3ozpNrMjYrLU2HJYxWtdCmc9IZBihKt7mQufGyFrTEqyWY5wc+Bh3tMai06oM82P7Ze/DAj1n+UNgbSI8bpJZbbFP44/JbZPNzET4OiccCYevMj5HeQVzsRxzHiJ/xlg4qzrYicE4WksYC0eD4tAMY+EUaIw8shnhQ6rANAhHXfAcBteJAEIjjS/4Fau2sGlk7eannXmF28ldMfsI25AwusMAlXBNZS7ZRebnUDNnYkLEa6AeUvG2sEA7bnH87GH+WBKtnUtbMtIlENSwAOYsvLO9QqUmRqiKWrnQuTGGrZWc+DyjI8wUjQFLWJmWMnM+xvbL3ucs3wssQwjMQXgO/PYnHvTRf3vyYQf+/k9/LKNnnSIn/iIJI2E28HdLFTKH5RW/VAbQuDauLbgzY2C6zV7Tj+dgO8g23+nNSDk+T8f3UAyF+Hy6KguIhVOCnWikDbdTAJLxORRbRbFwtMwkmgUHo/BAHDjxNhARhEIIiJBx/DAiTA6JSkVEV3QcNEnIE5gLJMPhiX8DG3fW6oEgGJJx1lM+f8DIjYlF2cTgOozjGUCrbl1AgLWSVSuha0RGYO9uMJBRNtsmhlXgnTYcDrte80V+Zgm3wyqPVT1vDy2w+Gp3RYxQ1zB4xkDyCDjM+tlk8hqO3R7DwxYQR5RMlkXoDY17a1LWAiSJNW0XTH4tEKEzQ/sMl4xdsr7A0+7VFLBEsKXo1F9Sglr5yHJPnBs/OUzhJUiW7aqV1YmKiGUGgoocrpckiRIhtESoUrLd5BnoKDcGkLYxqOwNGwCojSfiM2mBJ4YjDG4cLUJULeexDNjmiSBSWotEDDh7twltCYxg5Pe/awUExgjP+44/8lu/+PZdt998wyv/+lGffEU7nzUSMqcdACNa6AMmZUYJU0Cggi36ZZmSb7tnfA5OOazs6GHgXwhLFfaU842FAxlpk4tABDvhpdSG23FanLfVGQvHLKC5kUBEkEKGYBB0hAoFaoPmOCQ5+RwgeFpQGaFVVEkRTYfPnRgE2Hk8Pk4ZRojQAwlkaIUrjIpEzGFwHSiSasWnMDlMwL+QHVqIUYUmsPwiJkAWRDqWV8ZTSFp2MaxizFbcl62Db+AaQsCCyCJezni4HSiS1bWlxychAO2uiBHCbm0MJMMAHO6KHCHBITycYmzDcE0CJYQjCwkMBWLEjDdqu7DfCCWAFkPVTlkyEZJsbPDBJQRTRcQM//wECIvhEhItX0WirFpZHWXaQFAoMSbDZkYbjIolfbaGspYIVWWT2/wRRSk3RomEhP0q8Zk0zm/GciPATqu/csp5LAO2i0JJq7VWW5u980KjpbABbGmLlePvieUMgSuODO7Inx5z8y03U2Cba1zje2eudGsCH9k0QuYEixRhNkTIoO3FwDLGjZA5Aq7ALJzIMmROfDCbcTePrewa0rELYQTNRiY3QyfQacckTnPpgjFFPXFK7bZQuzlR2ea0fAUcb8w4vIMHh4lCfQTzTouF41hms9MSbbgdZWAxiDUBMqxFzwBjQiIgo5jDU2ASsXAEREAUISxHjsf4YqBKdIivsYmyhS46t0ZlaQLBGQaljTFwtlUggqwAL09bBtmuwRz74Sziw+eC65AmrTXhRmC6thg/3OK9iF2w0PRaKJlhADuypMo0e3+vSpUIhyPfNotwOG2PJa0L7qV6kS/cDuKnX0jWdCbGC2+jtuS6cz/k7aHfNvaMzUk0JIIDXajanAI/HSHe2HCw5b7ajkdh+7nNKYuuHWSV5gr5RKGVtASxQFnLfjCefBwmyqqV1bGU5Bj9GqS63Cr53rpuIUA4cXKsfrSZEaoikoW5lE3uALa9I1R0GxBCMIVYOgSb9JbxmaIwmYyAi1ZZCHSX9FPOI46t3U4GHBXtw7a7TAsF6WdlsThwhdao4vNtTyxPCIxJPLe/zk7/e9aKy5Kzzj9/wytt2E5gjYTMaQdgW9MXCzcA39nc2CgscKuumZavEbhVhAxVxBoIrBctw8VO/sJi4UCvRArtcIIRYQFLvvpj4bTwkTa1NhARNE0KlA8xobXONgTEwz/8aiHWqA5rwCCRxg1QsoVBQeSUv6gj7dO04DoKD13zInJBtAOV0+bpDswDvWotEG7bUVtlYjictnBJEzgifE6E28HiQGT+tqx9W2Vi1JZ2AFkYeCNkCyEpMnPwGAVsO4knqHtWmTNh02oNUVQ9CsPOhXLLT1w8scGyasPVaQNBKez704gQnoaqsG3QDikRqsombwtLg5IFxSFlDKrILMWIyJhOim6caxC5ch7LgHkNx3xRqdJUPBKJBFfFehKvnbvQOk4s2TOXDwTGCM9jd7nn9pvc+PAfn/njX13uoHvu3w7aeV7NIXOid+jJlnUbQc3iYFBw46owknhYfHHEpArGbZif8TmE6BddQxVCQLrla39hsXBiYCR9GBMLTM2C5JS4I8rAU852FPZ3VcTCSbft6KXEXwE3ClKv0Bi4Bk/tSgCfCIYyA2hRMfEsEOGIHWmYIu6NolgWdo2B/E8LrqNYNpVdtC1g7fEKYPWYxzwmuoZcKMEinX/bKshnCYdT4uW0tVQs4XawxgasC1cOhBvbKXeFisoPo7ZEvr/m0k7HsEu4JoMnNMcAXEOSXUKVlF20CxSTanNUBA33RlCn4ZEL5RCdiz2IJRt3CC2rVlZHm1Ycr2b8dFyEYEuMjXNvRL+a0W9t5mGEqrLJiXRoLWlJmzGdEglJfkAs3npsf0LQBqkr57EMGJNkwHYvdXrbWvZuvsBl5MKrU3XCBm0vPb08IbBkkQtopR0Vq44LhlDMto1aYYPa66soZI6+KM2Qjei3BXTJd2hjX7pdgDVC9dSWL2nVWxuhrF6K5SMgwIzxWACCr6deKKeitJ/tjCQWA1W3C65nQ+9kLlZKlJGRvrxi0QtBQBzDwbcVqUGIU0nFPWZwnbZYSWPtiVP77LMPoQQrYHugBHQ1lJClZHkEW8gosbax2XtD6SprQaMZbsfYTNykZFoOUxsu6+zrYsBtuKbsURcgkN92G3aRJdsE0mVgUC0M7u4dc4BFcCOSl3Nt4ZF0WbWyOiMVnYsRMEbFdpMPF9pJN9k8BSN9ta/KeRwOeCIAo3cDnnPMbV89vXogMO5AumSEZ2Qy9kcPmTMCn4W9WgBUES1sLAOEhfW4Kmq51cOoQtPMdsmsMD7uAZFYFX0t/zbpA1n9uXekfSKOII1MscMidPkPvo+wQ6CFwJonPO1oerpDoEOgQ6BDYJ2HwDjhWemOJ3UX6zxQ+gQ7BDoEOgQ6BFYdBJiZjGjyV1K1GYSrQjqcVTea3nKHQIdAh0CHwDoPASbHIxHuK+FZ58HRJ9gh0CHQIdAhsGYhsJKqbc0OpffeIdAh0CHQIbA+QKATnvVhlfscOwQ6BDoElhEEOuFZRovRh9Ih0CHQIbA+QKATnvVhlfscOwQ6BDoElhEEOuFZRovRh9Ih0CHQIbA+QKATnvVhlfscOwQ6BDoElhEEOuFZRovRh9Ih0CHQIbA+QOD/A4oseKGd2F9yAAAAAElFTkSuQmCC;" vertex="1" parent="1">
                    <mxGeometry x="370" y="440" width="552" height="151" as="geometry"/>
                </mxCell>
                <mxCell id="4" value="" style="shape=image;verticalLabelPosition=bottom;labelBackgroundColor=default;verticalAlign=top;aspect=fixed;imageAspect=0;image=data:image/png,iVBORw0KGgoAAAANSUhEUgAAAigAAABpCAIAAACf9E8yAAAAAXNSR0IArs4c6QAAAERlWElmTU0AKgAAAAgAAYdpAAQAAAABAAAAGgAAAAAAA6ABAAMAAAABAAEAAKACAAQAAAABAAACKKADAAQAAAABAAAAaQAAAAAaoXzWAABAAElEQVR4Ae3dC9z3xZQA8K6opItUulEKtREJESqX3RBh7Y3VWslld9tt3UVCCqXdZdt1KZHSyv0ScquIEFKJitBFUSrS5X277/ft6LzH/C/v/32e9/I87zv/z/P5PfOb38yZM2dmzpkzc87MirfffvsK/dcp0CnQKdAp0CmwpCiw0pIqqJfTKdAp0CnQKdApMI8CXfD0ftAp0CnQKdApsEQpsEot7ZZbbvnpT39aY3q4U6BToFOgU6BTYAoU2GqrrVZdddWhGVfMPZ6bb7756KOP3m233Yam65GdAp0CnQKdAp0Ck1PgxBNP3HPPPe9yl7sMZpkveH784x+vtdZa97jHPQYT9ZhOgU6BToFOgU6BhaLA9ddff9VVV2277baDuf5kqW3wc4/pFJhFFPjmad/8xS9+eettt2666aY7P+Zxo9T8WVSjjmqnwDJJgS54lslmXe4q9YEPf+AHZ/7wfg/ecoPNN1x1pZXOu+T8T+/36c032/zl+7xsuaNFr3CnwIynQF9qm/FN1BFcEAXecOAB69xn3Qc97iFNwl+cdcFPv3veOw4+tInvr50CnQJLgAJjltq6OfUSoH8vYjFS4Mij37/u5uuF1GEpc9lFl/74++fcdONNitxiuy23eey2b37rgYux+A66U6BTYOEp0AXPwtOs55hJFDjzR2du+5gHw+g3F/96n6e/1N8b9trvc8d8JnDcbOv7XnvjdZdeemmD8sUXX/zCF75w1113/ad/+qc5c+b4esIJJzRpmte5c+e+7nWvy0hC7l3vetcjH/nIZzzjGUcddVTGjwr87Gc/G++r8LKXvYxl6THHHHPGGWeMAtLjOwWWDQp0wbNstONyWouvnvTVrR+xTVT+k0d9/Ibrrj/46EM+esanHvn4HZMi2z1++y98+Yv5GoHDDz/8H/7hH0466aSHPvShn//85y+77LIDDjjgl7/8pa833HCD+JBGXi+55JJTTz31pptuImkiwbnnnnvllVf+6Ec/OuWUU770pS99/OMfl/7ss89u8v7+97+/8MILpRHw6WMf+9iHP/xhrnLMR4m9kIXnnHMOaL76kUy33XbbFVdcYYHCqxK//vWvK0j4V3f8ZJyXrv86BWY/Bbrgmf1tuBzX4Gc/v2DD+20UBDj/rPN22PkRD3jIA1deeeVNttg0qbLhZhteeNE8iVJ/22233cEHH0wSPOlJT3r2s5997bXXkjckxK9//etnPvOZP/nJT57whCdQcTgiUIlOO+00iSP7pz/96UMPPZTXAXH1N3/zN2uvvfYqq6xy7LHHPvjBD27ykkxPfvKTaTl/8Rd/AfLvfve7q6++mmh5zWte86pXvYp0eeMb30ga/dd//dcRRxxRcRP+wx/+sMcee5x11llPf/rTf/vb3x5//PF//dd/Tfo0yfprp8AspUC3apulDdfRnkcBa1Mrr7Jy0OLGOTeutsZqQ+ly223tSbjPfe5zH/KQh5x88snPec5zSAL8feONN6b9fPCDH3zpS19q9Yx+Q9Ghzbz3ve/daKONzj//fJCpIOTNRRddxCeOamKdLYojV2699VbaT817t7vd7e///u9f9KIX/fznPyczdthhB+pOONPRt9ZZZ51vf/vbssj4lKc8Ze+9966Yf+UrX1lttdXU7p73vOd3vvMdn/bbbz8CrKbp4U6B2UuBrvHM3rbrmK+w6SabXPmreYtRfutvvMFFP7sowvV5zdXXrL/++jVG2DobcfIv//Ivb33rWz/xiU/k17ve9a6xyGaNa4MNNuAJ5NXvu9/9rjT3v//97esccsghwttvvz3thwZDnNieoe40eaUhezxpYJIJ5G/NNddcaaWViBwxlC3SJT9FQEZykUZlI2qbbeatJXLubtL0106B2UuBLnhmb9t1zFfY+TE7//i0eZsrfrs8bdcfffesY9959Jc+9sWvfPxLEen5k2/9aNfH7pKvEXjBC17w1Kc+lYJy4IEH7rXXXiLvfve7k0C0Cstfz3/+8y1w8bj26eUvfzkptd5660lz73vf+3nPe94Pf/jD733ve3/3d39HojzmMY8BxzqbxE3eFVdcsRa6ySabHHnkkWSYXOJ9pXVZQCNaXvKSl4jJeOHHP/7xlvusxb3nPe9RaAOqgu3hToHZSIHuxzMbW63jPJ8CBxz0xvvteP+N7rfx7bfdftzhx5z0ma/9/srfveDVez/1OU+TaM71c0459iuHvfWw+RnuDFlMs1xGrYkIiouYOOzAFkueHSWevjL0vKl58OfMkcU2z51Q523PZN6MjMCNN95IK6qRNpbEhMip8RGGHoFHNxr81GM6BWY+Bcb48XTBM/Obr2O4AArs+6p9d3zGTutt1K6nzb1h7olHff71r3zdhndKlwUA6p87BToFFh0FxgiePpladGTukJYSBQ496NAzT/zBqZ885Q9XXxMozL1hzvdO/O7XPvSl/V7x2i51llKz9GI7BUZSYP4Swcgk/UOnwMymgMWut735bdxcvvCVL1x++RW3r3D7Omuv/cRdn7TjS/5odTaz0e/YdQosdxTogme5a/JltcJ/dsdvWa1dr1enwLJEgT8RPPZF7a8uS9XrdekU6BToFOgUWCoUYDszqtw/ETyxFzQqaY/vFOgU6BToFOgUmJACnKDDlW0w/Z8IHh4DoyxBB3P2mE6BToFOgU6BToFRFBijyXSrtlFE6/GdAp0CnQKdAouFAl3wLBaydqCdAp0CnQKdAqMo8CdLbc6b6ifgjqJUj+8U6BToFOgUmJwCTvSYaI/H6R1OrJocbk/ZKdAp0CnQKdApMJQCk1q1rbvuut24YCgFe2SnQKdAp0CnwEJRoBsXLBS5euJOgU6BToFOgcVIgW5csBiJ20F3CnQKdAp0CgxSYKEFzze+8Q2XiDzxiU90ZS9wLop3ue8g3Brz7//+7/nqZARXabm60SWPRx11VMaPCnzzm990nsKor8ccc8wZZ5wRz1FpxH/0ox89++w/3toSya677joVGZPFp/e///1ZNVdM7rrrrnB2+Yq7kF1jPD7vmK/uuDzzzDMnQaAB4nB+l8GIdDGlu5Pd/vK3f/u36C/mhBNOaBI3r+6PcZlmRrpvRl2e9rSngdBQJtNMEnAzzdFHHy3lAhEYBW0KGd1E8NrXvhbARVuLKbQIHFwBd9VVV7lpVMd43OMe5/lv//Zvoyo7NN4Vc/rnIu9gkwzMofhMM1Ln/Nd//dcEMp166ZkGS7bLf//3fyOvfuv3yU9+MouYQgCGbrsYz1uGgoVS8L2GDQ5NPD4Se3G1eaaZTu10QmTP6izFcfGOd7zDRVZZqTGBcYLn1IvP/uh5X7/2pjk1v3uCP/CBD3zhC18499xzL7zwQrdmubheK7pO0VXBl19+eSQWc8opp1xyySVeL7jgAs/LLrvsF7/4hYvoxbvxFx886aSTguvZgxLGUCS7+OKL5XLHMAjiNTOwZM8vf/lL3FOCmtiFJZYR4+nTTTfdJKO7I4WZ5/k5OBJYN0W6qguGIASn/v73vw/y1VdfLeU555yjLgLxI8lgRUD+5je/kRd87BUyq6++OjhuPr7Xve6FU0TiBEgUoYaqpZhkIvitb30rrp4ExyccSq7HPvax97nPfUYhAGEIqCxySewJDXiqI5RcDibyi1/8ojsr0VBbuChMmgMOOEAWn2qhXrMuaqFDgIDN6aPqq+E+97nP/eM//uPb3vY2Kf2yLiqLSlK64zk+VZpXMqqIm9BGIaAuWtPFz4E2DpKCPMBmxmws8SipEaMzgICq0e6RRYxeFP1qfC0mb5GoxUK1iJt1oAElhNLrjj32WB3jmmuu8XznO985YXX0DddaS4w7D+1gtT9rC8TE76QMUtS2HuxgOTAlrj18aAcLgPlUKYjpLRGTHcPrpZde6lruGOZ1VLpHVbyKqFQM1eiQC6xX7U7C0FOK3q4IndYz20V9TTiMwfe973377LNPjKzaW/QHmOvzgTZolSPVSpnAacHgLRLX7p1tl73uBz/4gTS6nGRQQgGvDRsUUxvLq4roxtJHWNtFxhyS2JTIYHTSLLB2tYl1huAzwT9VzeDK6izFcbHHHnsceuihqrPA30jBc/j3P3XcuSeef+XZL/zCoXNvuSkBuZH3Fa94Ba6HYd33vvfV8NiiTvCXf/mXaLrnnnuazktsbqLH4GvBbV1Z7zJHJygYmS70XXvttVnaGa7kAYo/85nPxJue8IQnzJ079//+7/9cyGgu8OxnP1tb6tBaSCs+6UlPckd9kzixEtASqi3j05/+dEz2+OOPp5npRtpmu+22k0B/NTaOOOIIk3QjRJ/Qli55NES1mXhpcHD6k9evfvWrAVMfDSYIkxi0mnmLLbbw1cyCaHF9st4Dt5122smkgzInJfq88pWvxCbcLynl3nvvrdu57xIEEtdzKAKGyqMf/Why3cB7wxveIKMnAqoC+F7jt/XWWx933HGmSF4PO+wwxRkSADaFNnXBR173utdplLjrTO+M6rjOGZxaF5TcYYcd4OmSTRVsaF7JCIJbO0chYHDSzFAPDVVNSgT5Yx3u+JcZs7FUE0857bTT3M4piZ5GP9Yl4rZpNVJxl1UH05FgTC0mb5GoxUK1iD7/kY98pNalhiepjubQXZFXC0Ze1IgWiQ7W9GdkN0y+/OUv69XSN2092MFyYNYePqqDVeRNON70pjeZIMa9qLVjGE1ubtUhKcoYN2xzVFoCgbbEQGnlr33ta25uxfe9LrBeOSqNd31GFrM0M1EBv2wXYbMQhRKKOq378ZregsPo4QR/kLRypKZShpUhAzG8pene2Xb/+Z//aZ7kpwcq+jOf+Yzqz0Pojl/DBpvG+uxnPwsNUy6dWfIYCBhOMyT/4z/+A7eMBpVsfO1qE+Oc6CALJnMHOvPEXlQnXpfWuNhqq60wQ90s0Bjz/BM/nprue785f4d7ryHmXqvf/p1Lz9vlPg+Or5gyvqBv4Sl6DA5lUmP2d7/73c8ig/nvpz71KQLGScG4Bo5DwCCKq3wxdEfyYKlYc4DSpaBoCOHI1GdDMXoqau6yyy7gkE96GBXBxEfzUJCp3k3ixBkyyjWdpw3omuL3228/61HEDAHpVbzp0l/91V895SlPwQ0Jjw033FDfhQA0ROq4MnrVKY3b008/neAkSgkDHZQw0/livG266aYECU3oQQ96EAxPPPFESFJ4DTYwDRvIk/zqa4iqpqJPPvlkElfDBMLbb7/9IAJG9QMf+MCQKIhghOu7KBlZsjkBUSLRePDBB2+++eZvf/vbN95444c+9KGyZ6E4Y60LpqCXQxsaAQ0pDF2MDD2buqiUVSOgdG7qrApWmlcynnfeeaA94AEPGERArX06/PDD3aGp9Qk81KOfRenxzIy4TDSWVVkKpes+jZzQ2Q866CAjCm11M8jreKZ7+EtAGFOLyVsEVwJtYVsEwrUuTXiB1THT0nY6jCuxqUqyNx1ssD8j5qMe9Sj3cMe8Ktt6aAeLgelu09rDx3ewqALTVsTHWLVF0zHwaxMCjW76HzjHqDTEXv3qVz/rWc8y3DTTlltuidVqbilNksbXq3anpGEqW2KiXXQwYfyBloB0wHq18FB7C1aju5pXQcPEt3Ika6FZqSglecsg/4m2Mwk2S4ZJCAbzSxkRM7I3bFAXqszn4Q9/OCkV3D/SazuErUPSNH3fffc1+TAhizTjazfIQ+RKnpDVCVBLcVysv/76GJdnYDLqOVLwbLTGer+94ap7rb76pdfO2WytP0LBr3FnIoRg0MDaLPx+OACFWoBBb7TRRj6FjmmqjrlgcLQKzAI7040QRXaTVtzEr+aNe4jFDKK71lpriRxMnCl5KhktmLt+v80225iqRBZtE8igBWVCZ8KvY9sJYtFyWJt2BYqM9NRpLHAJmDph64Yr4ORE8BpI6mdPfvKTN9tsM8UZhKRRqOGRFwLS67heQUYiuynWc2LqJDJ/gwjonfHVMLawQO3LxBn43//9X/KJUNdr0ROG8akptKkLloEF2FPZfffdpQdcMwkbEnTNWhdftaYhZymM1GloLleSEZKJlUCDgJg111zTUy3e+973+jqmO0ZjGb0URxqqjGHZTwjFzdBoFWVZVYiA55haTN4iFauptUjik4EFVgc1dBvp9ZDI1XQwArv2ZzwrhpipmyZoSL0IO5huQ5kz+37Ri15E660dw/zABIJQEVhxxRWhHdXE8VHbqymXmRYOIIySIT/G18vwye5El41OayKr3CBLferzprYml8Sq+MHeYtDBRNG108KnVqpRu2vK4D9RqT//8z83GwbKnm7FQXiQDZpu1sYyydt2220RkEYbeWMgRO2SvUTHy4vPx9euNrEsiGAgmBk0uMXrUhwXZh5BwKGIZeRIwXPQLnu9+pT3nn35dc/9s922WHvDyKClTf9ts1siM4mmf+gir3/96zEgnc9czFjCrE1P1lhjDXREHXMQn+TSkDimViTq9R4tgXdrHt3CehQZZhPFqw2MKCvaQ6/9n//5H2pKRJrL1MSxIBZjIJQqCwsawyQiIuXCmqnPAuIxWewMEPyd3mZGjx2b0ZCC1CmdjIpj5OAF7373u62bUZUMBhMTfDMQ8NTJDD+VpWSYA9rBMpE3UKWJJVcKteoDqI7W/VTfbgpSEGYkYux4DUUgixCwrgKORQ9h498kIlbtvBoP8GSaYdYZW9lkmyqLzELx61oXzQRts7bddtuNKgBI0EfXt6jiWeviq8malAaYeSv2UWlu4SvJmEQeRECtc0SZAFqECQGpJ1iH0ZGU4hcZE47m2H///fUEKOEIkSaeWgfN1R1ktYvIMbWYvEXQFrSFahHAtU4YViTyiW3GjKmO+bgaPec5z8GGzMczCyDRwXRLM7zsz+L/+Z//mfq78847m97Wth7awShSMTBrD08MBbKDmV7oGHW7noKrP1iZaDoGnmLNXJ/XslZUFBEADWTrcgajKRehmO3u6wLrRaBmdyJNkQWHhZL1ksgb7WKbKqEpQpXNogbJS9HRteSlTUqTHIlSmJUKnD2Dt5gQ1+4dLMVXcMy6oOTn1RQZQ4u8g2xQi9TG0kwYWoCi9gVBGvaSylPA9Iz6jqpd5SEor2NgKTE5C/hRnVhmDFBDR/diHRd4hWo2IzcrWAMrxqxEFC5MUk3iQEpu0yHWWWedAETYREkWOmt2bCv5Sy1S2Kegb8Y3eTNeIOFn5JjE5oOmiiqfiVXQXgUeAUkLUFAKrICFg5SmSD7laIGbrlYHTIIaDOjQoMnO2oJgIyB1wUhmlOoZUZYYY8l8KksRMwoBn+Bsb5bUCdYWAJsn5VJZRpd4ZcmiOk2hU6sLKhFgpCk6BHxFVJpXMgZWoxCIr9AwNaHpIpRKYdkR75kZM4YOOkZVhwaxlFhlrgwsxRZJHGpgfHWs6OY4qrkynP0Zf6Re05tzOtm09dAOhuBANT1cTO1gWseM0KJfFiqG6pCIJUkl8MmQ0dMwgeDINVf29owcFch6SdB0J0U0cHKkDEKr5DWhxJ2RRQ+JlLXTNpWKBMlbasr4BA5h8+IXvzjXupvSGzboa62USaF5JyDIVbsrNCZnL7V24NcmVjpmUvmJBFmdBlWv2YiLlVNReTEus6JAgJgwlqkTg/hMRfAMQpnhMRQRLTSqAy0S5Bk1IDGta5FA02AWNPR7E7dFAnChgCj9Qx/6kBniQuUak5iksZpnoVUa6wO0nDGJF9WnZalF0MR+hg0eu3SLhD61g2GOfo0UWSSlLGEgLFBsPC+qQi3V4OOW2RcVwBkCZ7GOC2sz1v/NS6Kyy7vgmSFN3tHoFOgU6BRYfigwRvDMX5KaaeSwZmqV2X4Sp6RB3Eycc5OQmZNkdEnJKDd2nmLPxqs01srT3bXmGoQZMdXddTANXT5sRgc/TR5DA6Bxm52lWfBgXmu1FqzVywK6QGzeDiazJJImXoNfLQQjTsRb9xv0bbRRxwpjMOMip9tgET2mU6BTYLmlwHQFj40Ndp/hUGZFMn3NbKkRd8jK9lHAk02BLe4gtN17uUJUDCW9fXi26rg8+xmG9nYyI1nCt73PotHqsPhw52Q7L6wsyFjCxlK9WrBiM5PurjVX9aqz1GB1koGNLNXdtdbIJz/+xmoRwOvXWl9CxYaZTbz0QavwlWvdzyq2pc/Gbx+VohRPa+4M8FiLslkQIDbsVUa5vgrYlVVNP4uqYpgD2PXJ7HCzfwCHMK4Tr1Cb2ALQU9nYUa9uhpHXV79p0q1iAmzzGgX1Z6dAp8ByS4GRguf8qy997mcPetYn9n/DqUdX6uBKWB42Rx4wyLEGioWFQ1l1LeRyYb0P+4uNJsvTmJ0Zt6m0jNXdTDzGFFYrWRBWyyKAVQazfcY8rId9omqkwyahRcZAhtJAPuHO1mQzewbYODJxYWES7q6ZiypQ/UapFGQSVIMdp7trrRGY+Lh9S/iE6X39WutrL1Gh1fOxwic/6DGgMe2DQ6IqwLynvtYwvc3WIm8JwqnxhpPMvj2vjrDskIw1J7cki7kVAtGl1mKqJ1q6GYqnLFLCmD6LnCbd2J0zKEJ2Ehfk5lVM/3UKdAoszxQYaU592Hc/svNm97rx1ht/dMUlZ/zmgu033DLIRHiwUMLawuCKRaPJPl2BFUf1BcNxMGhOPHaVMWIGtbbKeT7i6Wbo1d1MXkzfD+vMvVPCCe9TInFiLYhxDiPO6rBp65v5ILttokhZnkQXwdC0ZePnFc5ozFWrV51Nb3YHRAVzSagyFwnLbO6ftUYgkxMMeYlbdcej69da39hbS89HVa7w4cmSFTSVbZa5GBc1+OcrMzMZSWgupcQwwY8+sSpIHSSnLanRI9Gc1ROZrZmoOFYdE0IGoE1MhjdruBmyqEbehz3sYaRFmGBMk25EMr2TeNZP9JDmlU9uItMDnQKdAsshBUZqPLfcdiupgyKrrLTCjbfcnKQhSCxGYV6Ug3Ao4yfFF4f9MQXFupbFHx6auDY7QhwnXHDCPlKMr5h77FjQdYA10ebdwtIJzCyF+4v1MQqTyXJY4+Hm4cvG9YHdZKbkVsLkkQOBZygi+Yk+REnitoKrYnYm4PEJGiAL49QKBTlWBWFCfPpKwBx44IFkSa0R1YoOB+AjHvEIvv3Ujvq1qS/g6fnYwAc2igv4ie2YACWGEwxKUpIkIxq5+PGyRHmvvA1oV0x6iGe0wvHJs1iEHAqTnwTBj/g0xUjAcJYU16xW8BBt+nTTyhYkSUeQ+Rw0r0Ox6pGdAp0Cyw8FRmo8L9xu98NO/8jqq6609t3u+ahNtk6KmCmzMsRVLd2Ys1eHMvHpCyY9Rokb8kQLk/OEUN3NCKG3vOUt5ubcFXH8TMNBlSgiMzD3cH8RqE6O4VZmE8XPGTPEHj0AEH7vCYS0a9xdWdYP+o3iuaPcXYmlrBElibGDMxfAJ7EIJypCfhWZ9U0EItDAJ7doLWQt/Uw1a2IA40TCGimMfSORapINpAKA1RuOzKOrWc3D6PkMahf7ZzQeq3NIamFNrQGxZxZgyRtpwpuVfAo3Q8CtQzrpx1Kb8DTpRqqpC4UMqgqlItfXQKM/OwU6BZZbCozz47n1ttt+O+eaDdf4o6PoUBrhg7ibST3pwhUgfcFM5+kf3LIwvlEZGzexwWSAi6zJMEev4RZHzim3iqtBCGIgRsNIb7jM1XjVKasWlKCyRhlTA/l18vri+G9+85utqjkTgWI3oXcRFQ3CREjg6Vld/CpKGZaFuMrXGqieaAgS9MwEdDtUnQ7dmqKb1yyoBzoFOgWWYQpgvBbGhjqQjtR4kGPllVYaL3WkSWYdDmgUkaCjZSvb4IyjRpE1M45KUIFnmjwXQEzDLjNNE6Cc+WVk5kr35vg0Cp+sUUKogfw6eX3tMDk9iOSwcjih1FEiERKKS+DpGYGKTBMeJXUki9O0In0SJLOHLJ8O3Zqim9csqAc6BToFlk8KjNN4lk+K9Fp3CnQKdAp0CkyfAmM0nvnbKtMvpkPoFOgU6BToFOgUWCAFZq7gmfDkAvvkLJvZufElCv/KxitzkATsEdinZbxteTvqNsCZ5NmNyPgIND78zdfBV3Zx9RDMJoFKcaSNSDs9tvGbBAv1ahuGwd5CZZHYtR/8fkblYvWOpEO/5t268TXvvR6aOCLHX4XLzhDxOXVpPgHtMgpUvYZ8aJpRxMyzKtij24cbmjcjmSw6/ZrVn75k7TTjFxiwKwa+ZKP6HvyBZVbjIiXJGkoOwh9/IMVg+h7TKTC7KDBO8Lzr+x9/zclHnP7r+e70g3Wb2skFWADDpzgpYBCmmMlPLhhzD7TdeAbfdlOiCMXhubFn7kx1Nr5MosO+ixxiCsFniE+SX5g726OSt/Hhr18lc0IBQSIlOgTfJLq41PCt4foa5VY0nF8bwD15kvKzCW6oIAQJ99WmCMBHHfrAnShO3uTfI3scUpDsm4EcWwxmzeG0i5OypoMSkzy4sXxj+hEY8priCIV7eiW8BVgcxDETCVktOPcgoFw8sZQSN0ZL3GAoARdjRFApJwZyz4pS4qkVgIowecMDSRpuyAIMxKHBo2uQJvoDaIhG2lVo0PPaEFNMtjVoccIFw7/YaqqVbQ6YYBbIWJHVH1fiwRvBgU1qCIdkQnMU05c8mWyYc8RBEhLETxYlkvRO1mD6z8EA/YOSEugtSBoHf3j1KU70ADDgQInfWFJMGnSor1FKf3YKzC4KjBQ8bzntwxddc8HG95j7lm8ec/n1845Bi59+P82TC8AxvcUR4qQA3B9MEuLOEub9x4YmPLlg1D3QRjs/TTyR4xHuYKbpKiC21HyMwDewHXEGB3ZxhjG3mCOPPNKwZ/7bnEHQ+PDXr+AwO8YpVMSFoW404S8pklEyps+XE09p0PA1fqbGKig7lMTU0wSaIsYc+kDo8uwxqTdDJ/lwcHK0XtnLM5QhA7nFMJ2Ucj0Uzq44tw2xg3dvMSFB7YA84ZT3/UjAWg9NKmTMHX2wUcw6LjwWIK2VWDHEfJ3LQO6qGtY5eBWuC35w0iBC82TYrWuBSS/0qdLEK1QJD11FmGQitiko3H69NsSsbZ1nVVAN5Woq2xwwARRGH5MJ3lFeFYFicbt5pYZaUw2JDTMYBJfSD330JSUKVwzd02HCwTPMPcdkj1xBScnq9cy6Sj3Rw9c4kEJf5cOgjeJSeSp1fZWs/zoFZh0FRlq1/fSqix++0d3VZ/N1V//JlRdvsMbaUbfpn1zAL6d68vOh4ZXijAOjEeuMUgzCCU8ukB6jwYZIFJcIcLR0nAGPH8oEsFZOjFsCgE7jWB3WXBgu4CQEJyQsPopjbA0N9l2OmZElz1wglhof/vqVExLHVc6YeIEjagDEXAAkDHAlHj8Kxb8qGlGcp3sHsGY8yEFztBYOQ5CJ0wRYyiUCihhz6AMxwJiQdgIOEUuUQhgQYlut+fEoCGtzkR2h6CQFTJ8nkPPfaBhxlS9541O9RDkw5BvEdbdClktdCDDTc5CtLKFqJK4Y0pMQATXyFAkOWDQ5z0gc5Ua4eRKf8KEqhe5VaSIl6R7XkOPdGtfKFXt0ePrUELO2Nds/kwldIspyJWBT2TxgIhLg9Yz6ht4IvuOOO1Y6R3p0joCnPhx9bxBDAk/VzEjIPw0dlKTa1uuZ4VlP9CC8tSNqsOSkhGlfyJs6OPeoeeVeljj0QKfArKDASI1ny3U2/vV1t6280l1+dc3ND1r/vlmZ6Z9cgDmaPgNosQLLphyYQVsFchxAljL5yQUcYsxSzYWpLCbLCYEUidkx7kzUKdSrHwVLGue4UJViRZ5dtTUfjIwKAiW8DOuJMxekN+etZx/Ur+CEXbL03F3z7rjg12boEjdoBHqYMt5K3igR+zZNVnqeJtAUEWbTisDjmkMfTLcBJLBtpVDv7HNQJqg4JDE9TEv5GhzfKlO9cCXWahBfWeJjjQ6c5qacBnIg75l3kUVMxVAYWLVz4Ft8Nfdv0iecJkAmkdmkmsr6VGni1XHd6qWCmDuZhGvrMwoaJGbT1rWUwcqyGq/W3jg7xctJEK5JBaceltFQQy56T7OwFmU1GFKsqZi69Dvf+U70gXkkq31DR2oal3CKAykkjgU9q3muxDVJal5rBXu4U2BWUGCkxvOGx+z5wbNPvOTaKw/e5cXrrXaPrIwJNcZquBp1Uzu5wMyunhRgnmsE2t73zFImPLnA8WVUEHPhwXugyZJ6o+1ee+3lvGdoEyRKqfdA2z8ARHWcJoD7+1rPIKCXWDuCj2EfR5/lV9tFybNS6ghghUo3UbUIo6YVDZoZ+DYS4EyeCe++++74qektBGACh4pALUJ8c+iDTRGyx9mgcbCQAL0EGfEsHNYvsUo8ARFpLctmiSUgaiVMqC+chHBGvC9SqoLtCtK3QtZw9RryAO5Zgau4g3zspYMQwtKztixd0CyBSgqT5sfRzHogiWULCm+tJyzQU/MacgoNmU0VoFhQcIUbYta2pj5azNRPoqymsg0CXqNSpPXgjeBIVKlhIOgJpGz1jyO5zX5omRVDuztOuLC8jOCGDMUoKEmUInhez0wm5QXS4s0JEEoudDC7AhPxSR3EMcnI18Eq9JhOgZlPgen68dAJcBZzQywSp5uCJ/8YGgHua0yoI9mokwuoNYP3QMtC7cjbuE29TZDJnjEl+iQZ3iFjnrkQ9ghx9sHg16HQqBTQDi7WoDE0vcg8TWCBRSBL0MQCjlyYqSUguwhYFTiyY+5jruwNBOxYpH4jC7FX6ZxIVsgizTmqFMlkGSAhiBwS0RUMOCb9kk4Aw0wwPqB9tWNWMGkyKhf0qtjLZGqUbQ1n/TO0KAnGVDaz10Dtcg01Es9MDzjFVHEZkxhSmIiTJHJSsnZRuQZhqkgiL0HzmgX1QKfATKOAla1RJxeMXGqbsA4GEk5kYJA6sphgxtCyZmVVOi6AGQoqR+DQrxEpTZMMV0rGF+VGSnNJozrCAjnyU+r4JH6BUkeyQczlCqkz9GsU2jwt36XU8ami0aTMV4stwUMHEcg0EUiaUC+iRjKG1JHATgA9ZoFnIqTUkaUyxKasCtmnJH6TLF/N5WkYFEcbS/A0IRjTBzJXBrSvcFYwaZIJmsBQqSNNbevaT+JTwm+gDX2tXa6hxiCc2vcCWmJIYarpk5JN36hpAkKVOmKa16E498hOgRlOgelqPDO8eh29ToFOgU6BToGlQoHFqPEspvpYiGCjxVzHpJ7R8GApdlziMhvGQrajF8nl1mAqzm6TSXpj3h0ING6Ag1g1MTaHwxumifdqwSRcDoVtV9hGCjPcwZQTxrCOoypNmDiS2Z+Y0Nd1DNhsiEhjyY7d45j0Pll/s6l2+umnu+GC75QFQ1tco7L4ap9jmk6mqG2/JIoYQ+0wNrGTF4bLo1ASz/MXVmrhxyxwTMrmU7Z7lNV87a+dAssJBcYttc255aaLrrliPCGm5kBqvTsc5UYBZ89qZ4VTJPNWG7M2MKQUg0NZvRG2P49nWVJvHDzTYVAaW8oM3qIIKUHjV+iVSbGn/QNSwRI8X0jcUwxpZ1ve3jWBgU9ZrK/OmIywqxugPRJriXIJEIHEBmikoGQEQLhqsjwWqVylS+mXKAEehYqsV3d7Fc+dRQKgICnGk92BXWX4o0BC46CjLCltDMCNBUStTuOIGu4pcF4oX9cKECZRZcWpVLi7ZkMEfG0Ua2tebfYkAeHsXgk2aawhZMe1XQ/B0BzdXLvH3EstwI+fncJoca+mAqyKRzmZ6gwwCau8MU6mgAfmADbUzq6IyOH+yeiDb6yUNurMP2Ar3BBf07B/Q3P2F/vssw9xIo22zvpWxGJCEKZoMNG+WVZ0Znn7r1NguaLASMFzwgWnPe+zBx307aNe9MXDKkWMw2k6kBq01VEO4zD80u4oysL92SZZH5fY7NIGkj1Y3IefDeMrzCvvbLafwQ3QvHiRXG5NhHCcZETEwtsmTXXGbNwAbSMRTvgySwTyZpSrJssl9uJ0MvXigYFNcww64ogjkqR4lk34vLqbNvCmN70JNAZOmG+ciOOJyzPiEokCdDLZcUnGaaCxlMPa7OeLxAdJdPCZhzWOqMzzpuDrWgGCbxLgWV07oyEoOuA7c0hANaVpfDNJGm3EFktlfa0/lGTvnoLBJ9UhpWqaDFcn08ajUxqdRKOEqCDqUIYRYziZBoSG2rUrkkAkDUGo75GaPlUH5Ib4oBGrkhkLJiv2XVCGQT/rSoZ2DWJjXE31B1bj2lHpWcce6BRY5ikw0pz6U+d/a+f7rKf+Z11+xWm/OvfRd94FN30HUmZO1VHOLJ6a4levvjYrx+jNfK174MW4iU1XP3yND4fRHnc221pvHDync7k1BUUR7Aj421OnsI/qjIk/Yp3VDdBUHdq8Mt/znvew5sJVG1dN1MMo3U1nImw+Xu/b5sIZfUskFsk9nujFy1hn0NJIU7eoudqOICRy6E+MBSzOcF/nl8oPEQNFBPjglVg/DsvaGEDEMQ1n5suFE9jqiDo1X9cKEHwiOUpJd9dsCNiaItAaJYhf+mbSvSQjkBC2Jrgz4Qpwoy6kQYQ65qcmUJ1MtQjBT2KF56yUzOeGOplKFnAaalMfsyvScsL9k7YtMdo2nr9J/ADFAYsapHQOYWIIXbixRDAR0Q0axCSoKl26mjIrJxpdtgtzPkNx8kXA789OgWWYAiM1ntVWmWel5nfdzTetvup8D5vpO5Cy/MEuQabreJreDl59TUWwtcPbhlNkGG5RerBjkoBbTDi7yGtu2zh4ivQzAw1eYyKJdeJQ1WXVVzPNwcutZeRmYW1H6TgCVlidMcmYxg2Q5kFTgVg4aQ511YzZt2UW8qyidAea8x6m0vXqbktV9VprR5da0gkVR+I0hRKW0tPiFbEEclQQDjggHjd4+/jUfF0rQMXFr3HtjEgi887vf/yv4cKmi40f6Sg2VueaZF5JI800GD8YU51MNW71nJV4lJNpwmmo3XTFTCaA1NF21HEKWcTUBCZD3HpQO04hYpxm5qGlnMzUIIYIJkxDXU0B1IIEs7JI7gq/hzsFlmEKjNR4Xvqw3d/+7Y/ccPPcP1t/64dssEWSYPoOpI0X5NCrr61yWDrHgokoU1GrXtQLKxJmzZQhk8pNNtmEMoEvNw6ejFaZ81oDcTYB+UEzsIffuKxiN3IRKubv+J1FElyDvFEKaWe7GJtQnJMUxKQzpsubpbRklG6ABBixZ2kFcaQMEgWrjbBIXqum+aBhZBWlSEBaUIYoClLG1d1u7zbRJvbiHBR0sKRm8S3SZxGKNkc2xcbjiEP4s6L2FXGyOl6n7+vaAEQEK4eWy5Ao3F1ppRoizzpKOlSEzeWJZ+LK7lq46NavwhQ7q4gZabGLiCKPMyYD1cmUSK4enYoe5WRKCwRhkNrWHqvPZrh/Rln6Q/X8TQuXbN+oqTmN7mTtl0SEDPlKl53c1ZR2S8+2KybvUNJlxXugU2BZosB0zanN1DBBw88EHHNZtA6kFtzxAgM7KW7bA99XohjT5NAAFI2npKuNePhIQ2hJkJwCqlbSElQGEueMyYDVqsYZE6OHT8ABkOTD1AKNzFUDlA/J8rbTBqWaMsPSh4Ykr2kyqWPDJr/WgJRojmFJ6fQdyWCS1YF84wlb82YYSqqTXK/xZ5QsAWYWAdvj9ICgbTZETVDD8DzuuONMWWxWketmA8wiLANa1LJaxbbNWlks4tVco8J6hRUtMKFN1dMl0odpaBZpsg8MTRCgfEIxlNR5MtkgNfLTYAAc8jj8chrEsojMFWXppeNxy/Q90Ckw6yiALZtB1qM9sgrTFTwJqAngLDY/mJwN5fVN4hn7aqcHV839mAZPuoiFR4ejNPGL6lWzISDJ5/DTBcK0YomF5TaJ9DOqCQhFG1EUJgqotcFjjz3WwhS5SO+EtjXV2KNaYDV7gk6BToHZQoGlIHhmC2k6np0CnQKdAp0Ci4MCYwTPSOOCxYHH5DApaHwqrbP7Wc6ygjHGLZHZWzhnNM6kCyxuEg9KXhdwsGk81KvUbrZdH6jauBKwbLXAQmsCmyV2iWrMFMIUCFvcU8hYs6BwOrSKZ9OlOpO4bVYgY8KNv+T0by+11gdDTYP4AmMoYBfNptEY3Ma4lMZVoZNgy8gNMhYSIcOy31LbmBKbT7RV1pusKHXg5pNXZ4xWG3TNZJmuJhuVUZs2l/Mu7M2nFkJtdKEwiwmrhbXQCcNNv7JMClpQCcwwOZkQVOzXSrzAWkwIsCdbihSYruCx+WyH1gapOhhsBnn4RXKDwBpEetqFHnQnZNIW7pxDK2/bxln62J8fz3CrMUPdEsOqmF2QDg1O40wKmQBuP1xKOFh9Yv8K5/gEYUyHTa0BFilJjvQZtHlAYltqG+NVynaAe6MzoZm3CdjLqV6EUSIgg0VHcY5CkD4oJkaAkXRsC4VfC55i4x16o1xH5WLdwLepZg/g2RZeiVgrXVGQfQtbR0EBW1aaD/XQJyI9pcdDq9umG3cG64UThQk4sy7wkRGXkdeeENIJZHX0gfDNzKKndntpQgackR4MGe9ZQRZgaoHIcEBtX+Gmg4URnRib/6hqghIYShBpgpmOcinVGRjrkyiBrSw6jNfo7YjG/F0p0fdQwLqrDT9yQqeFjPS6MZTCS7SODuFIgFCgwdCT2aTi1HEecnf+5FWLGsmaznCo0EZlZBDBdgYyxgWL/6wO2LWfe9W71Au2qBQdgNWDohmqODzbiGDtgsiBVO1Xdfhn40o2ql8RmcYIKoFm1ATlpa8ws9uIJ5I9q+9t1iKo6mv8xr/emar/nykUGCl4brz15lec9O4XfP4QDj0VWWMVc9QviRYc3/6HgcG8CoOuzoZGVHV+HHQnNFowC3lxtOj3zTwOfHsAfjoffjHolmiQMKbC9agdgWHjTFrdP0GYmgclyGO8SitlhA3U9CLEGtKncmjR2JZBaI9dHeWtrqP2nPEXEHwyC268F6vrqHohFP5Ss4NGkUIZplYYn1cGfrg/izLyDMuLK0RlrJ68CnIJDVGKB8lSf0Prhf4SI77j+il8mokRnVwC3GUqPtgQfoFBZ9ECqgb5hbq9NCBXxDKM3Tv+gPLHGFJkdXH1ClX2C7pcGA6AQxWgxZpxk7j0iXTgrTTBiGGOowW24NiXMnfhKuRMHU6+aq1vENIhewgPKY0OY4HlBUZcXZ7r6ACZMACQ3MrDmQAhgUIWmnDYX6QZMMqQrP4MKyOlQhuVsbmcN6ujjtU31q0clA+2oKR4FEQwcKpjJcErWSRMdJiw6a/9qhn+2biVhgA2/QpJpURGAoa5qQQVZu02Pg363mYtGt/b8a9Rr/6cORQYKXhec/L7Nllz5YduuNonfvrVn/1unu4SP0teOjrex7IIv2MizAuB5DDj84rN0Q94L+qyxiS5ghfEjjd3QoPNmOdrKYYo0qFZiLFGY9JqpLEovbOQef+NrvhhDTU+4eChdt3xvlyFM2FkOmVhBKM3KoRNrCzyYLsghAelaalhpsRQKeK2UJZjpofmhkyZMeu4ny0LZR8RXqVGBTwbsJlMwIKPlLCK87vCp1L2oUUbKjxd4GnjXR3DdRQZuY4yTmOBjVEy0AhthveiNRZfpcTayFTCgD+T+Wlsy9fs5qGIQG5pC2wFYvJiB3io5vCKIGIYlRFFqEF4IDUkNZAZrgatlRpVL1KTgNx///0po1gkjh8Tc+6fGG7FJ/0ls+iEH7eXusJHr4AP5yooRZWl4UWkC2XigJyvNQCOaYf5EKYmXldMF1evHDPJQjKe7mspzMqbauob1KbGpbTShEUlAsa1SYAgS1wYihfz4RWj4jCHlUb0qkdpLyKQ4NENqJKannCFjCaro0Pi+JGIdwZXCN9nTqzMxMk2MpLU0UyZoAYqtFEZ2fFrfeMUwqgqENVp+jlqkLsS6PaKMIQRB8V0TqObp5TxzvJQvZp+BYc6/OWdpF/RPlHJT0txm2tg1m6T9a1UyloYqhQmndD8lXwa/5qgemCGUGCk4Llqzh9WXmmeF/pad7n9smvnD/4JHUhlbJwf053QiIr1EEIIJyW0MFBhkCtRdEos3g9DqfEJhyWxEe6TOZSnqaKpU70ttLp/SjA1D0oZx3iV+lp/JonpRSjeKIqvg0WTHwY8hB1ZxmGISDOVq66jJpjVO7VabEsJLGZHihAYUf2aHYXr1Zl0Hctx1BFSNvCJK0FJfYqIGPNuz0SyjvNIP6pevuI+TLHrJQuRpeITMfFsbiMNo0cCTKHCIVlz6V/tmvQVVA1jlO7cIwYsQ4lvXFzxx7hwljwwy+ZOZLodusXUXEqDVnqgspQYcyO7FyZPSI3jmxD4quvqwOHyXF1xUSwakbofeWtdiAfiipwLeVY/ZbhCy8gmIwt1kpjqvFCX8wKSN5+SQGpqKuaWcRpq06/oauZGaC5NmONP0q/QH5VM9fhp6fYNzKbboC1SxOpfVjMD6INK2jF8b8e/Zq4emAkUmO8i02DzxM13OOmi76x119uvmrvSozfeOr8aSNg97q9D4MgmqnR//cNESbxpOCZl8UH6oc6P4ht3TosS9Hp5K2+VDDPKQtPLJGMETD+lMRfT4cw9sS2KjsGft4WKMYqMfz8dOliSjAlNwHoXbE2jRt0WKg1lyIxefQe9Sis+wtWLMD+BMFi0iTYXUZNlyUgO2o+z6arrqCk8sYSLJRwBcFS5uo4a88meMjuuZFFeu+CwFvdxWxm5qXo1SrVgwKyevMZ/IllLjPDQetVkSVKRBCo1hZBLfESGb6bpfOSK9JUy4jUELjbm9tKAPNSxlA5tIm8fCxzMyOqZ9goXVytgeeEsXokOpvBUFqIdee0uVAfexqVUX7WQqCcDS5ElqvFifZWOOMgNkwgaBan1luryTOnJ0aFD6r2kozkB1T8ymqZY77Jtpn398HRF65nKJVZjOySWryFDUUhoozIiFDj1ct6ojlXH6hur41k2MKL1N5Dz5lOUsZBOQbR6QU4ruulXpgV1+PPplt1vTL9KEkmmUdQRPWtfNf+o3UZfNWEyHam+IFELvVrLGvjhe8sPfczrHXj1xwyiwDg/nlMvPvOy66/aY6vH3m2Vu4xCGSPDCrEtnN1wstiC3fvpQEbmeOdHyUaBnTze7FgXzPTQoE5FjIHRuH9mshow64dJDglL82RnTdCEx4NFECxvPIQGYL7KG66jYoTHeKf6itqBs2VP45PWWLODgL2qV4hzy26qyaNemobsgzGJTw1ItrD1qvggmi6hn1SYTRgXMw/A5nATksN0WBfCOptko16xJxVUkA5JQuDp6eI6KgttQ+LBr5UmzZRogd2jgWazM12ec3REmlpKxCgLiSpKGm7UhKBCG5PR+irphSBZRHSJWhFEQwqyp0Heq1ZTBZTMT7VfqUId/plGYLB29WsTbmDmKBgFR33VqFKmIVTz2hTXX5cMBbBic9A6achyxwmeTDSFgCJtGEzo/DgF+JNkGe/+OQmEoWkWE9imLOLE2uMk3qk4iP3b3XffvYEw614JNvNWssckV3XoN/aKxsuqWVfHjnCnwPJDgaUgeJYf4vaadgp0CnQKdAoMUmCM4BmyzjCYv8d0CnQKdAp0CnQKLCoKzFzBYxnXLuiY269ZNltiQgjbnswTgiLsmJkbjKEOY+VRX+2gMgG3N2BD1UY3OwWBMS7xQ+HYmUi3uJpgjHt8TTY+bAcrtpe5oQxaQ2Ve2+wwn+TcARvIVrQy42BgDNrhQG59LM3ZB7NnjI1rBhq207l8sWDM+EkCFmyVEq0zmN6GUEYORWZUxlnRbbJqPdApsCxRYJzg+eYlZ378vFNuuvWWMRVmXTPJyQXjfe+HwudRgc+y9OXOxoDHDqdkYpjPhZcyk5jw9GaTynTHBqkEXB/Ck0NYQGLqXoThAFvmRl5JF7kEKkCmZfZvmO7w8OD6UF3iI6/0cmHWAn7g25DIV5KA5RIbMzulvuJ3Xu3N3pG2vXFZFVTNJqqvCYGXibxg+hRAfGXzFocLCPP4iV0fuDWH0LBKD9toyUhNVbBBwipJgIFcJYVdX/DDPwZxFsqrH5HljbIQn6upDd5k/Syy2O9CACk4tXASDCKLEY+8TAYYCzhRRoyfiqNShCtBQjKFv7qv0gAYrROtHFlUxI8jZ7x6JjLis46DGe08s0kZ2m30B463ulYUhG5LsttEx87q6ANQHfWa8T3QKTDrKDBS8Bx7zteOPOuz37jkG88/4W233Da/9xvS+Ck+wiERk53w5ILxvvfmznhNdRVERzNxhp5YiYIYvDLisoteXcENS3wTPhLTThgos6fkzBHOBI0rO0sHWkIIIdZTIDPuagBiRiyFBjWJzEv+5cEECq3HMRAwcMtjFOg9LPriBmspwcRz0z2ermbiTwrKYpJeT1ho/OEbJ3CG3eGL44mfgpw/HnlpV52REWhIMWWvftAoUpgy4cFSmUTEKOEfh0p4Qok0cvG2yHokQaChz+DjpBEbdzF0oDxboSEIFQfDJRFRJvJ61tbRW/LogUwgkMjUOtaMJhxMkzk4u0Fc+sFu424h3ZvPCktoCbLphZdAt0FASqGiwzeLIIcqF05dBQLNq5j+6xSYpRQY6cfzlQu/t8O955kp33b77771q5/svNmDoobWVZj5Gr1m32Kq6zJfQtoJkySjxUFM9eQC0/O8ORgXNrYtB5mhYwpECzWFs6eFNdw56Wiwjb/9Oh22ZeFpwTODJ6bAIYccIsY0HyMOZhcwiQ0ATWnDwYK/Av5C/OBWMIdS3uKcOGQg8nLtJjAYp8rI09vXvN05j1HgzcCuNxyw+Q/Gyl7jHq9ojFUWVWa1xRiaXkJ0xQkLFAjuLJxD4U8HUhCCU2LMwTF6Ali5PKiQN9ET4GpTX2u4IYXKplc/5q4pQROjLKtPbi7gWhGHTRAMCvXE8uhhFj/jyAk+idAgP9KrX3XUUZsKaH2O9wolP7hS4tehpekbTG8pshw1NK6zFbQXILzrd9xxx0qQQD6VxXiN1iGYGyRrTTNc6xgZsXInF5iUaER9WK8zhxjsNtrX+q0Fxpx/LMlugzLkcb0JWxj9dTNTImcCNa/Vyjnr3gOdAjOfAiM1nnXvtuZtt8+78fqaG1e4993n32o85ZMLqn8o7g8yxoq94jihuyQXC6rhwib4C7z9OhJjiGbTlCSHSkUMflpd2UVy8vDE+8wr495r3LP6lkfGoc/I2zjwSznqGAUVrMcQNO7xmGC9s7k5YSFEC86I93FWiAU0C0eKIycCPfLAkmCEF/hsSDFlr34yMlRGCgfhWstFVe0oRtUwfYHwFhKf8sNJMPQJXvFOhAOqnq3QEETdzQYGPTSB5aHFf9B6qfW3UHYrGhlu6ihe97M+SScmsDHxSDnYbchv2qS+B/NIsyS7jRINiuqNb2iQ3NY2HTukYzSvgWF/dgrMOgqM1HgO3mXv13/9/b+bO+cZ93/8/df9o8O56pmem/lO+eQCPMWQtlZjaonduLYZb43DyqpkUpDZ6Pjbr/Hl8PQOP0o6AYZI2ISvHJ5SXdmVG23jqwMO8HoHiliQqb7leZ1242KZecc48DfHKCgrHbAxa5sZ1T0+4OCDJBnVUMXzhIX0Yw1sqxM4zDlXkj2y0D8c0BBp4km9oIhwAq+REW5IQa3E1qfg1c+/HXmVIrvNsHAgd5iKUqBN98WvNYrjxbwm0RKfqBp5SWtpfOAxd/7nSZDGXz1AZevUoweEaYEWAJUCnzwuttaRmIlb0j1hbsOMxgPVwKfpNnDQGynitnZsMmUtlky3adzvrRO4MQ9hzah0kuY1CdsDnQKzjgLTdSA16yRITGDN8c3IDHJc2888d4EnF0gfg38M1Uzxxt9+reicnDZwGlf25mu+Vt9yMrWRf5ksAuqLeY06mADDymMUpKwO2A0c+oFy485m6gux4YATEqJJloUiqTBRapeC2MbunaQ5Kv0gKoGCtgAACCJJREFUkIYUgCwOr37KGeolsx5Eo4nRuOoVBK8EkQz1oso1y2DrkHOjWr/WcTCj4kbhCSurqUMRqMgsjm7TYDX+tSLTw50CM5AC5tzL48kFM7AlhqK0UEchSGwKHM+h0Hpkp0CnQKfATKDAUhA8M6HaHYdOgU6BToFOgaVFgTGCZ6RxwdLCNcpllRv+j5bgWQNPARm798wNIuMYl1IrKja9G/jpmtrEe7V5wO4o4u0PMQ62seTeYjGOVbanbVcmrsCx+90YnkWufFqIY9WWr02AFyrIapEGBU0Cr1beJnQUhdsoZKxW2bYJ4At0F53kEmj7LrDiLuoX9xINYj4qxpKjlcx+t/Eo+vT4ToFlgwLTFTzsYoc6kLLMIe7QiNGwQONOyKwgnSKH0hFYJqQYq19cC8ajhV0pLil9uvUJB+sP0ylbLDxGyRLx1aEyJBCuaseYsaw9lShUPC9CKb3aBcnLodM1VXz1GPVaL6u2yq9qfmyloMdcmIxkwOZ2SKvzbOcsiClLmKOlNFFo1j22wUSy+bZDDu30eRQGjfkAR588lCGy13qRytVRlOkBEqXzI5gAEm8yMiUAE6okR8CJpzTQ0DrxGmcupKRPVG3ehLtoXgItxhUDQWpUhRXKB2GRgiyHPzowD4kmq2SsiGkU3lRKJ2U9SWtSP8qSLLDqz06BToFljAIjBc9Prrpwz8+99dmfPOCNp36w1hmvmcSBlF8IUxw810647NWdEGOqNy5jjlgMT5FaijAI3GX8TIGJH25AZIZ7RHxKt756CTQ/EmyOnZstkAZUvOKDLOX4kbBoEiMv/yG79MEZRdqO5jSDC9texqPVtPEYZUtWL6uupfAQIodYabsUmeyxcU0KMrUAvN6X3NQdBAw6rhmuPo+4MCniKz8YDB0Zs6wxjqLV+bFxyZQdf6fZhKggIUhZqhsf2IQMVfpcerlWVFmOEEKaiajWIj6hJEKxrSfYGu9gABFKSv2EtZ7N/0rGBjFWWzEt0L6BSZbVeFMmnj3QKdApMNspMNKc+t0/+NzDN7q7G7y+9avzzrriF9utv0VUdUIHUqyNvx7nA7yJKWp1J2TtVp0iTZZN0v3wX56MSVDcNmbQYo4//nhf2YAxwiYVxOBlnDSrI6pVKXbG7LwpEJanBEKiSAyBACsXEchBkgZAsIWrYKx3MQIm/PBWrkXpmuqgtuoxihUCy9OCxS3P+YAZT8Z1pCOA/Fh5OAIefotm+nFfMu8Qn5j81roTKlQWs35gq88jVh4XWgPO8phlSHrtjHEUrc6P8EFAsiF8VMExA+DXyZQccGuDVgUJ3XBljSo0Xq5wS1TzEmiaqMRqyljcShptiTInJr2DA5RIapDS3fspppJx3333bRCLLClcWZSFaypaNd6UkbI/OwU6BWY7BUYKnhtutkQzz0n+7quuet2N85Zr4lcdSJ07QmDQP6y6MIzGHLEYnNRBZw47MdWNxRYZwzRWDFZFDKRTJBlgdu/kEktz4Xh4Zzkr0IqcEBqvDK9jyci8O25ZDrc+s2MJSAKCRBE77bQTRcEn5s6Yl1U4EHBA6kjAifk+1QSjjxgTcAG6jssosePGLzI8RiVgfEyM0eEko804EccvIMQTHSweWmKyMGgFTHUinq1wFEqkuZiy1p2OBUm81VELKEYSWMjiXykjLkzlCgik74TXP5NJspNYcEMokhi1tU5sQfFxgbwjjlwDitQwJGKr6zuBxKQbu/ek1nDdrc0UyAxWKiA0NuhUK4KWqkr6ylLJ2CCGmJJphRBptRThxpuy+dpfOwU6BWYpBUYKnj22etTR53x5vdVXX2nFtXfadJus3uQOpM7OwVK5NBIP1WeicYrkNOfrbrvtNsohQ9Fm6zQSEgVbx7sDmvTi0xHVCtv+++9vKYz8wwftjmDltisINkeIBv6UML4vO++8M22JzDNnB40Q4nwDpl1xLvHkBEEYrqnVY5RC0FxWHXf9hiuSk2aoUzbVCTl6G1WPZhZ+i4pQFlcSrJ90fMlLXmKZa8sttxRP4cCj5eJhWn0eJabkwZnkUM3K1sc4ilbnRyKwumRCkkCi4lA4iE9n2FCzSBqiyFqfgsi5xsuVHK2oEkh5CTTJWu9OdsBEkDdbOWhC61JH2mclo0asiCG1Q97InnCNCghRlkaxMeYAobjbOIroz06BToFlgALjHEivv3nuFTdcs/laG4ypJzaNM2IxpEt1IDVPN2u2r2DrYmh2GUMNGvp1MBJA7GkwCzjpiEpRqKtSgFBuyBjsT9iiE6lJq0gFAnoEVXyV1wQfWwzEsH6VUjWvyRYHsWpiTOdBSyTTb1FBwVgj/ai6p88jeeNIMQt6pJ2Vydgna8oa+lqdH9VI9cNHdWhikdKktBiapqKa1YmUTaWGZs/ISsYGsZiXNGgoCyWbyITWA50CnQIznwKms0vagdQyl21w6zzJhZc6mZhs2eCp20hLHaUxCFDUsF37VVQ3InBMyv6pU6BToFNgBlJgKQieGUiFjlKnQKdAp0CnwBKjwBjBM9+c2oYzx70lhlMvqFOgU6BToFNgGaYA69bGZCwrO3+PRxR7Yrvr+a0HOgU6BToFOgU6BaZGASZULJ6G5v0TwTM0RY/sFOgU6BToFOgUWIQUmL/UtgiBdlCdAp0CnQKdAp0CoyjQBc8oyvT4ToFOgU6BToHFQoEueBYLWTvQToFOgU6BToFRFOiCZxRlenynQKdAp0CnwGKhQBc8i4WsHWinQKdAp0CnwCgKdMEzijI9vlOgU6BToFNgsVDg/wGqfUH98ZbHlwAAAABJRU5ErkJggg==;" vertex="1" parent="1">
                    <mxGeometry x="309" y="320" width="552" height="105" as="geometry"/>
                </mxCell>
            </root>
        </mxGraphModel>
    </diagram>
</mxfile>